<?xml version="1.0" encoding="UTF-8"?>
<svg width="14px" height="15px" viewBox="0 0 14 15" version="1.1" xmlns="http://www.w3.org/2000/svg" xmlns:xlink="http://www.w3.org/1999/xlink">
    <!-- Generator: Sketch 54.1 (76490) - https://sketchapp.com -->
    <title>d</title>
    <desc>Created with Sketch.</desc>
    <g id="Page-1" stroke="none" stroke-width="1" fill="none" fill-rule="evenodd">
        <path d="M6.99998331,0.968778685 C8.2213347,0.968778685 9.3515402,1.27411664 10.3906002,1.88479213 C11.4296602,2.49546761 12.2545282,3.32033558 12.8652037,4.3593956 C13.4758792,5.39845562 13.7812171,6.52866112 13.7812171,7.75001252 C13.7812171,8.97136391 13.4758792,10.1015694 12.8652037,11.1406294 C12.2545282,12.1796895 11.4296602,13.0045574 10.3906002,13.6152329 C9.3515402,14.2259084 8.2213347,14.5312463 6.99998331,14.5312463 C5.77863192,14.5312463 4.64842642,14.2259084 3.60936639,13.6152329 C2.57030637,13.0045574 1.74543841,12.1796895 1.13476292,11.1406294 C0.524087431,10.1015694 0.218749478,8.97136391 0.218749478,7.75001252 C0.218749478,6.52866112 0.524087431,5.39845562 1.13476292,4.3593956 C1.74543841,3.32033558 2.57030637,2.49546761 3.60936639,1.88479213 C4.64842642,1.27411664 5.77863192,0.968778685 6.99998331,0.968778685 Z M11.4843476,4.08595875 C11.2838274,4.3593956 11.0012757,4.65106171 10.6366934,4.96095667 C9.94398685,5.54428847 9.15101999,6.01824595 8.25779281,6.38282828 C8.42185492,6.7474106 8.58591703,7.13022219 8.74997914,7.53126304 C9.57028968,7.4218883 10.4635169,7.41277388 11.4296602,7.50391935 C11.9400758,7.55860672 12.3958036,7.62240852 12.7968445,7.69532515 C12.7786152,7.02084745 12.6601261,6.37827086 12.4413766,5.76759537 C12.2226271,5.15691988 11.9036173,4.59637434 11.4843476,4.08595875 Z M10.8280992,3.42971032 C10.1171634,2.79169114 9.30596726,2.35874919 8.39451124,2.13088529 C7.48305521,1.90302139 6.56248435,1.89846397 5.63279907,2.11721345 C6.41665151,3.15627347 7.13670173,4.28647897 7.79295017,5.50783036 C8.66794808,5.19793541 9.42445684,4.7786653 10.062476,4.25002086 C10.4088295,3.95835475 10.6640371,3.6849179 10.8280992,3.42971032 Z M4.53905168,2.52736872 C3.71874113,2.91018031 3.02603459,3.457054 2.46093163,4.16798981 C1.89582867,4.87892561 1.52213193,5.68100689 1.33984056,6.57423407 C1.83202688,6.57423407 2.41535869,6.54689039 3.08983638,6.49220302 C4.34764588,6.38282828 5.54165359,6.17319322 6.67185909,5.86329827 C6.01561066,4.6784054 5.30467485,3.56642874 4.53905168,2.52736872 Z M1.20312213,7.75001252 C1.20312213,8.47917758 1.33528314,9.17644155 1.59960556,9.8418044 C1.86392799,10.5071673 2.23306773,11.1041713 2.7070248,11.6328158 C3.19921112,10.7760471 3.87368882,10.0013091 4.73045747,9.30860255 C5.66014276,8.54297938 6.62628615,8.02344937 7.62888806,7.75001252 C7.50128406,7.4218883 7.34633679,7.09376408 7.16404542,6.76563986 C5.94269403,7.13022219 4.62108273,7.37631535 3.19921112,7.50391935 C2.43358795,7.55860672 1.76822509,7.58595041 1.20312213,7.58595041 L1.20312213,7.75001252 Z M3.44530429,12.3164079 C4.28384409,12.9908856 5.22720122,13.387369 6.27537566,13.5058582 C7.32355011,13.6243473 8.3215946,13.4830719 9.26950915,13.0820311 C9.03253041,11.6783887 8.62237514,10.2200586 8.03904333,8.70704149 C6.92706668,9.07162381 5.94269403,9.61849751 5.08592537,10.3476626 C4.3203022,10.9856817 3.7734285,11.6419302 3.44530429,12.3164079 Z M10.2265381,12.562501 C10.8827866,12.1250021 11.4296602,11.569014 11.8671592,10.8945363 C12.3046582,10.2200586 12.5872094,9.48177908 12.7148134,8.6796978 C12.3866892,8.57032306 11.9856484,8.48829201 11.5116913,8.43360464 C10.6731515,8.30600064 9.87107022,8.30600064 9.10544704,8.43360464 C9.63409147,9.89193435 10.0077886,11.2682334 10.2265381,12.562501 Z" id="d" fill="#FFFFFF" fill-rule="nonzero"></path>
    </g>
</svg>