<svg xmlns="http://www.w3.org/2000/svg" viewBox="0 0 76 76.15"><defs><style>.cls-1{fill:#fff;}</style></defs><title>designer</title><g id="Layer_2" data-name="Layer 2"><g id="Layer_1-2" data-name="Layer 1"><path class="cls-1" d="M20.4,38.15C23.28,47.68,30.2,54,38,54s14.73-6.3,17.6-15.83c2.62-.16,4.57-3.51,4.57-7.92a13.55,13.55,0,0,0-.48-3.58,22.61,22.61,0,0,0,.48-4.33V22a22.17,22.17,0,1,0-44.34.3,21.84,21.84,0,0,0,.48,4.33,13.55,13.55,0,0,0-.48,3.58C15.83,34.64,17.78,38,20.4,38.15Zm34.92-3.24a1.54,1.54,0,0,0-.46-.19,1.58,1.58,0,0,0-1.92,1.15C50.73,44.81,44.72,50.81,38,50.81s-12.73-6-14.94-14.94a1.62,1.62,0,0,0-1-1,1.54,1.54,0,0,0-.56-.1,1.73,1.73,0,0,0-.92.26C20.19,35,19,33.3,19,30.23a10.66,10.66,0,0,1,.17-1.87c.81.05,1.62.12,2.43.23l3.74,2.49a5.54,5.54,0,0,0,11,1,4.76,4.76,0,0,1,3.38,0,5.54,5.54,0,0,0,11-1l3.7-2.46,2.48-.21A9.26,9.26,0,0,1,57,30.23C57,33.3,55.88,35,55.32,34.91ZM24.16,19.15c2.06,0,6.1,0,8.64-2.56a6.5,6.5,0,0,0,1.06-1.38c3.41,3.37,10.29,6.63,16.93,7.06a22.48,22.48,0,0,0,1.1,4.19l-2.18,1.45a5.54,5.54,0,0,0-9.7,1,8.29,8.29,0,0,0-4,0,5.54,5.54,0,0,0-9.7-1L23.7,26.19C23.54,23.14,23.74,20.13,24.16,19.15ZM47.5,31a2.38,2.38,0,1,1-2.38-2.37h0A2.37,2.37,0,0,1,47.5,31ZM33.25,31a2.38,2.38,0,1,1-2.37-2.37h0A2.37,2.37,0,0,1,33.25,31ZM38,3.31a19,19,0,0,1,19,19,19.13,19.13,0,0,1-.29,2.93l-1.83.15a14.66,14.66,0,0,1-1-4.66,1.59,1.59,0,0,0-1.59-1.59C43,19.14,35,12.82,34.84,11.23a1.59,1.59,0,1,0-3.17,0,4.15,4.15,0,0,1-1.1,3.11C29,15.88,26.09,16,24.19,16a2.83,2.83,0,0,0-2.23.8c-1.42,1.53-1.56,5.62-1.47,8.48l-1.21-.09A19.38,19.38,0,0,1,19,22.31,19,19,0,0,1,38,3.31Z"/><path class="cls-1" d="M62.18,52.8,54,50a1.59,1.59,0,0,0-1.69.42c-1,1.09-2.05,2.41-3.17,3.81a70.45,70.45,0,0,1-4.8,5.59,16.83,16.83,0,0,0,.27-2.66,1.5,1.5,0,0,0-1.5-1.5H32.86a1.5,1.5,0,0,0-1.5,1.5,13.23,13.23,0,0,0,.31,2.7,67.55,67.55,0,0,1-4.84-5.63c-1.12-1.4-2.18-2.73-3.17-3.81A1.6,1.6,0,0,0,22,50L13.82,52.8A20.6,20.6,0,0,0,0,72.24v2.33a1.58,1.58,0,0,0,1.58,1.58H74.42A1.58,1.58,0,0,0,76,74.57V72.24A20.59,20.59,0,0,0,62.18,52.8ZM51.65,56.18c.38-.49.76-1,1.14-1.42.34,7.71.22,15.93-.59,18.22H44.7a19.65,19.65,0,0,0-.57-3.48,9.48,9.48,0,0,0-2-4C45.69,63.62,48.8,59.74,51.65,56.18ZM38.39,67c2,0,2.76,3.48,3,5.8H34.63C34.91,70.62,35.76,67,38.39,67Zm3.13-8.38a12.26,12.26,0,0,1-.4,1.86c-.86,2.75-2.27,2.75-2.73,2.75-2.73,0-3.61-2.8-3.89-4.61Zm-7.48,7c-1.77,1.9-2.54,4.88-2.75,7.36H24.76c-.76-2.17-.91-9.72-.63-17.08l.23.28C27.26,59.81,30.45,63.79,34,65.62ZM3.17,72.24A17.42,17.42,0,0,1,14.86,55.79l6.37-2.22C21,58.32,20.65,68.2,21.71,73H3.17ZM72.83,73H55.26c1-4.67.73-14.19.49-19.06l5.39,1.87A17.42,17.42,0,0,1,72.83,72.24Z"/><path class="cls-1" d="M35.25,25.66a1,1,0,1,0,1.31-1.51l-1.71-1.48,1.64-1.21a1,1,0,0,0,.4-.67,1,1,0,0,0-.2-.74l-2-2.61a1,1,0,0,0-1.58,1.22l1.38,1.79L32.66,21.8a1,1,0,0,0-.41.77,1,1,0,0,0,.35.79Z"/><path class="cls-1" d="M10,42.86H7.11a1,1,0,1,0,0,2H10v4.55a1,1,0,0,0,2,0V44.86h3.07a1,1,0,0,0,0-2H12V38.32a1,1,0,0,0-2,0Z"/><path class="cls-1" d="M5.12,31.35h1v1.82a1,1,0,0,0,2,0V31.35H9.19a1,1,0,0,0,0-2H8.12V27.54a1,1,0,1,0-2,0v1.81h-1a1,1,0,1,0,0,2Z"/><path class="cls-1" d="M3.69,51.89h.48v.41a1,1,0,0,0,2,0v-.41h.48a1,1,0,0,0,0-2H6.17v-.41a1,1,0,0,0-2,0v.41H3.69a1,1,0,1,0,0,2Z"/><path class="cls-1" d="M65.4,25.13h.48v.41a1,1,0,0,0,2,0v-.41h.48a1,1,0,0,0,0-2h-.48v-.41a1,1,0,0,0-2,0v.41H65.4a1,1,0,0,0,0,2Z"/><path class="cls-1" d="M68.82,32.18v4.54H65.88a1,1,0,0,0,0,2h2.94v4.55a1,1,0,1,0,2,0V38.72h3.07a1,1,0,0,0,0-2H70.82V32.18a1,1,0,0,0-2,0Z"/><path class="cls-1" d="M58.72,42.29v1.82h-1a1,1,0,0,0,0,2h1v1.82a1,1,0,1,0,2,0V46.11h1.07a1,1,0,1,0,0-2H60.72V42.29a1,1,0,1,0-2,0Z"/></g></g></svg>