<svg xmlns="http://www.w3.org/2000/svg" viewBox="0 0 73 73"><defs><style>.cls-1{fill:#fff;}</style></defs><title>developer</title><g id="Layer_2" data-name="Layer 2"><g id="Layer_1-2" data-name="Layer 1"><g id="noun_Iron_Man_213797" data-name="noun Iron Man 213797"><g id="Group_57" data-name="Group 57"><g id="Group_54" data-name="Group 54"><g id="Group_52" data-name="Group 52"><g id="Group_47" data-name="Group 47"><g id="Group_42" data-name="Group 42"><path id="Path_51" data-name="Path 51" class="cls-1" d="M53.23,36.5A1.52,1.52,0,0,1,51.71,35V23.45a1.46,1.46,0,0,1-.12-.77l0-.38c0-.33.07-.67.08-1s0-.93-.07-1.38a1.45,1.45,0,0,1,.07-.62c0-5.18-.48-11.2-1.13-12.2-1-1-8-4-14.08-4S23.43,6.1,22.37,7.16c-.61.94-1.05,7-1.08,12.19a1.33,1.33,0,0,1,.07.56c0,.46-.07.92-.07,1.38s0,.68.08,1l0,.38a1.46,1.46,0,0,1-.12.77V35a1.52,1.52,0,0,1-3,0V22.81a1.41,1.41,0,0,1,.07-.45,9.45,9.45,0,0,1-.07-1.07c0-.4,0-.78.05-1.17a1.41,1.41,0,0,1-.05-.35c0-5.84.34-13.14,2-14.76,2-2,10.06-5,16.28-5S50.81,3,52.79,5c1.62,1.62,2,8.92,2,14.76a1.47,1.47,0,0,1,0,.36c0,.38,0,.77,0,1.16a9.07,9.07,0,0,1-.06,1,2,2,0,0,1,.06.48V35a1.52,1.52,0,0,1-1.52,1.52Z"/></g><g id="Group_43" data-name="Group 43"><path id="Path_52" data-name="Path 52" class="cls-1" d="M48.67,24.33h-7.6a1.52,1.52,0,0,1-.49-3l9.13-3a1.52,1.52,0,0,1,1,2.88l-.48.16v1.44a1.52,1.52,0,0,1-1.52,1.52Z"/></g><g id="Group_44" data-name="Group 44"><path id="Path_53" data-name="Path 53" class="cls-1" d="M31.94,24.33H25.85a1.52,1.52,0,0,1-1.52-1.52v-.93l-2-.67a1.52,1.52,0,0,1,1-2.88l9.13,3a1.52,1.52,0,0,1-.48,3Z"/></g><g id="Group_45" data-name="Group 45"><path id="Path_54" data-name="Path 54" class="cls-1" d="M41.06,12.17H31.94a1.52,1.52,0,0,1-1.41-1l-3-7.6a1.52,1.52,0,1,1,2.82-1.13L33,9.13H40l2.66-6.65a1.52,1.52,0,1,1,2.83,1.13h0L42.47,11.2A1.52,1.52,0,0,1,41.06,12.17Z"/></g><g id="Group_46" data-name="Group 46"><path id="Path_55" data-name="Path 55" class="cls-1" d="M48.67,42.58h-3a1.59,1.59,0,0,1-.85-.25L40.6,39.54H32.4l-4.18,2.79a1.56,1.56,0,0,1-.84.25H24.33a1.52,1.52,0,0,1,0-3h2.58l4.18-2.79a1.59,1.59,0,0,1,.85-.25h9.12a1.59,1.59,0,0,1,.85.25l4.18,2.79h2.58a1.52,1.52,0,0,1,0,3Z"/></g></g><g id="Group_48" data-name="Group 48"><path id="Path_56" data-name="Path 56" class="cls-1" d="M47.15,73a1.52,1.52,0,0,1-1.52-1.52c0-4.22-5-7.6-9.13-7.6s-9.12,3.39-9.12,7.6a1.53,1.53,0,0,1-3.05,0c0-6.1,6.43-10.65,12.17-10.65s12.17,4.55,12.17,10.65A1.52,1.52,0,0,1,47.15,73Z"/></g><g id="Group_49" data-name="Group 49"><path id="Path_57" data-name="Path 57" class="cls-1" d="M28.9,41.06a1.52,1.52,0,0,1-1.52-1.52c0-3-2.85-6.08-7.6-6.08a1.53,1.53,0,1,1,0-3.05h0c6,0,10.64,4,10.64,9.13a1.52,1.52,0,0,1-1.52,1.52Z"/></g><g id="Group_50" data-name="Group 50"><path id="Path_58" data-name="Path 58" class="cls-1" d="M44.1,41.06a1.52,1.52,0,0,1-1.52-1.52c0-5.12,4.68-9.12,10.65-9.12a1.52,1.52,0,1,1,0,3c-4.76,0-7.6,3.09-7.6,6.08a1.52,1.52,0,0,1-1.52,1.52Z"/></g><g id="Group_51" data-name="Group 51"><path id="Path_59" data-name="Path 59" class="cls-1" d="M44.1,48.66a1.33,1.33,0,0,1-.67-.16l-5.77-2.88H35.34L29.57,48.5a1.51,1.51,0,0,1-1.89-.44L18.55,35.89A1.53,1.53,0,0,1,21,34.06l8.36,11.15,4.95-2.47a1.58,1.58,0,0,1,.68-.16h3a1.58,1.58,0,0,1,.68.16l4.95,2.47L52,34.06a1.52,1.52,0,0,1,2.43,1.83L45.32,48.05A1.48,1.48,0,0,1,44.1,48.66Z"/></g></g><g id="Group_53" data-name="Group 53"><path id="Path_60" data-name="Path 60" class="cls-1" d="M71.48,73h-70A1.52,1.52,0,0,1,0,71.18L2.49,58.89a7.53,7.53,0,0,1,4.05-5.31L10,51.87a1.52,1.52,0,0,1,1.76.28l.77.78,15.77-7.17a1.53,1.53,0,0,1,1.71.31l2.6,2.6h7.87l2.6-2.6a1.51,1.51,0,0,1,1.7-.31l15.77,7.16.77-.77A1.52,1.52,0,0,1,63,51.86l3.42,1.71a7.57,7.57,0,0,1,4.05,5.31L73,71.17a1.53,1.53,0,0,1-1.2,1.8,1.36,1.36,0,0,1-.29,0ZM3.38,70H69.62L67.53,59.48A4.53,4.53,0,0,0,65.1,56.3l-2.44-1.22-.75.74a1.49,1.49,0,0,1-1.7.31L44.44,49l-2.3,2.3a1.55,1.55,0,0,1-1.08.44H31.94a1.55,1.55,0,0,1-1.08-.44L28.56,49,12.79,56.13a1.51,1.51,0,0,1-1.7-.31l-.75-.74L7.91,56.3a4.55,4.55,0,0,0-2.44,3.18Z"/></g></g><g id="Group_55" data-name="Group 55"><path id="Path_61" data-name="Path 61" class="cls-1" d="M16.73,73a1.52,1.52,0,0,1-1.47-1.13L10.7,55.15a1.52,1.52,0,1,1,2.94-.8L18.2,71.07a1.53,1.53,0,0,1-1.07,1.87h0A1.34,1.34,0,0,1,16.73,73Z"/></g><g id="Group_56" data-name="Group 56"><path id="Path_62" data-name="Path 62" class="cls-1" d="M56.27,73a1.39,1.39,0,0,1-.4-.06,1.52,1.52,0,0,1-1.07-1.86h0l4.57-16.72a1.52,1.52,0,1,1,2.93.8h0L57.74,71.87A1.52,1.52,0,0,1,56.27,73Z"/></g></g></g></g></g></svg>