<svg xmlns="http://www.w3.org/2000/svg" viewBox="0 0 268 76"><defs><style>.cls-1{fill:#e74d89;}.cls-2{fill:#fff;}</style></defs><g id="Ebene_2" data-name="Ebene 2"><g id="Ebene_1-2" data-name="Ebene 1"><rect class="cls-1" width="268" height="76"/><path class="cls-2" d="M103.09,34.45a3.29,3.29,0,1,0-3.29-3.29A3.29,3.29,0,0,0,103.09,34.45ZM211.21,45.62c-.52-.34-.87-.39-1.21.26-5.5,11.92-14.77,6-13.86,6.5,2-1,7.45-5.28,6.62-11.26-.47-3.68-3.64-5.29-7-4.72-5.8,1-8,7.27-6.89,12.86a11,11,0,0,0,.87,2.52c-6.58,5.37-9.18-4.81-9.49-6,0,0,5.07-4.29,6.5-14.43,1.47-10.61-1.9-12.52-5.37-12.48-6.41.13-8.14,13.48-5.8,24.61a6.9,6.9,0,0,1-2.56.6c-1-3.29-5.5-6.19-6.67-5.07-2.95,2.78.69,8.24,3.29,8.67-1.56,9.48-11.17,7.14-9.36-4.77,3.12-5.8,5.5-14.47,5.12-19.71a4.36,4.36,0,0,0-4.59-4.2c-5.94.21-6.59,13.6-5.89,23.09a4.76,4.76,0,0,1-2.82,1.86c-.56-3.21-5.72-6.41-6.93-4.85-2.25,2.9,1.64,8.05,3.51,8.4-1.56,9.48-11.18,7.14-9.36-4.77,3.12-5.8,5.5-14.47,5.11-19.71a4.35,4.35,0,0,0-4.59-4.2c-5.93.22-6.58,13.6-5.89,23.09a4.71,4.71,0,0,1-2.9,1.86c-.08-4.16-5.24-6.07-6.5-4.72-2.21,2.38.52,7.19,3,8.4-1.56,9.49-11.18,7.15-9.36-4.77,3.12-5.8,5.5-14.47,5.11-19.71a4.35,4.35,0,0,0-4.59-4.2c-5.93.22-6.41,14.3-5.72,23.78-1.94,8.41-8.53,18.89-7.67-2.12.09-1.47.18-2-.56-2.6-.56-.43-1.82-.22-2.47-.22-.82,0-1,.52-1.21,1.26a29.48,29.48,0,0,0-.56,6.24,10.69,10.69,0,0,1-.61,3.33c-.43,1.61-3,4.55-4.46,4-2-.69-1.3-6.19-1-10,.3-3-.7-4.33-3.16-4.86a34.45,34.45,0,0,1-3.9-.73c-1.43-.48-1.78-3.21-4.85-2.3-1.69.52-.61,4.07-1,6.71-2,13-6.15,13.39-8.06,7.06,8.66-21.22,2.51-29.58-1.08-29.58-3.77,0-8.06,2.6-6.24,19.14a5.8,5.8,0,0,0-2.13-.39C58.7,37.5,55,41.92,55,47.38s3.73,9.87,9.18,9.87a8.69,8.69,0,0,0,7.24-3.72c1.12,1.6,2.47,3.77,5,3.68,7.45-.3,9.62-15.55,9.88-16.42.78.13,1.55.35,2.29.48,1.22.17,1.3.65,1.3,1.9-.3,10.4,1.6,14,5.94,14,2.42,0,4.59-2.39,6.06-4.08,1.13,2.3,2.86,4,5.24,4.08,5.76.13,8-9,7.76-7.8-.17,1,1.86,7.75,7.8,7.8,7.32,0,8.7-8,8.83-9.4,0-.26.05-.26,0,0v.08A6.66,6.66,0,0,0,135,46.16s1.87,11.09,8.8,11c7.19-.13,8.53-7.41,8.7-8.84.05-.34.05-.3,0,0v0c2.78-1,3.51-2,3.51-2s1.48,10.87,8.8,11c6.5.09,8.92-6.59,8.92-9.36a10.89,10.89,0,0,0,3.08-.69s2.38,9.53,9.05,10c3.12.22,5.46-1.77,6.8-2.68,3.17,2.55,13.61,5.8,20.23-5.42C213.59,47.79,211.6,45.88,211.21,45.62ZM63.71,53.77c-3.2,0-5.24-3-5.24-6.16s1.86-6.15,5.07-6.15a4.23,4.23,0,0,1,3.33,1.13c.22.78.78,2.64,1,3.47.39,1.12.83,2.08,1.26,3.11A5.49,5.49,0,0,1,63.71,53.77Zm7.8-11.05c-.13-.22-.09-.09-.26-.26a29.85,29.85,0,0,1-1.86-9.18c-.13-4.55.6-9.92,2.86-9.92C73.76,23.36,75.41,34.19,71.51,42.72Zm45-4.77c-.34-2.72-.39-14.77,2.51-14.46C120.59,24.18,118,35.57,116.47,38Zm21.14,0c-.34-2.72-.39-14.77,2.51-14.46C141.73,24.18,139.13,35.57,137.61,38Zm21,.18c-.34-2.73-.39-14.77,2.51-14.47C162.74,24.35,160.14,35.74,158.62,38.13ZM181.8,22.79c2.64-.26,2.55,11.31-2.78,18.63C178.33,38.78,177.29,23.7,181.8,22.79ZM193,47.7c-.87-4.29,1.34-7.1,3.6-7.45a2,2,0,0,1,2.17,1.34c.38,1.82-.05,4.51-5.12,7.89A4.82,4.82,0,0,1,193,47.7Z"/></g></g></svg>