<?xml version="1.0" encoding="UTF-8"?>
<svg width="14px" height="15px" viewBox="0 0 14 15" version="1.1" xmlns="http://www.w3.org/2000/svg" xmlns:xlink="http://www.w3.org/1999/xlink">
    <!-- Generator: Sketch 54.1 (76490) - https://sketchapp.com -->
    <title>g</title>
    <desc>Created with Sketch.</desc>
    <g id="Page-1" stroke="none" stroke-width="1" fill="none" fill-rule="evenodd">
        <path d="M4.53905168,11.6054721 C4.53905168,11.6783887 4.48892173,11.7194042 4.38866141,11.7285187 C4.28840109,11.7376331 4.23827115,11.7057324 4.23827115,11.6328158 C4.23827115,11.5598991 4.28384409,11.523441 4.37498957,11.523441 C4.42967694,11.523441 4.47069247,11.5325554 4.49803615,11.5507847 C4.52537984,11.569014 4.53905168,11.5872428 4.53905168,11.6054721 Z M3.69139745,11.4960973 C3.70962671,11.4231807 3.76431408,11.4003944 3.85545956,11.4277381 C3.94660503,11.4550818 3.98762056,11.4915399 3.97850614,11.5371129 C3.96939172,11.5826858 3.94660503,11.6145865 3.91014693,11.6328158 C3.87368882,11.651045 3.8372303,11.651045 3.80077219,11.6328158 C3.76431408,11.6145865 3.73241298,11.5918002 3.70506929,11.5644565 C3.67772561,11.5371129 3.67316819,11.5143266 3.69139745,11.4960973 Z M4.89451958,11.44141 C4.98566506,11.44141 5.03579542,11.4687537 5.04490985,11.523441 C5.05402427,11.5781284 5.01300874,11.6237013 4.92186327,11.6601594 C4.88540516,11.6601594 4.85350405,11.655602 4.82616037,11.6464876 C4.79881668,11.6373732 4.78058742,11.6054721 4.771473,11.5507847 C4.76235858,11.4960973 4.8033741,11.4596392 4.89451958,11.44141 Z M6.69920278,0.968778685 C7.93878302,0.968778685 9.08721778,1.2604448 10.1445071,1.8437766 C11.2017963,2.4271084 12.0312213,3.22007526 12.6327824,4.22267718 C13.2525727,5.2617372 13.5624677,6.40105754 13.5624677,7.64063778 C13.5624677,9.15365486 13.1386405,10.5071673 12.2909863,11.701175 C11.4433321,12.8951827 10.3359129,13.7200502 8.96872862,14.1757784 C8.82289577,14.2122366 8.70896361,14.1940077 8.62693256,14.1210911 C8.5449015,14.0481744 8.50388598,13.957029 8.50388598,13.8476542 L8.50388598,11.5507847 C8.50388598,10.9674529 8.34893829,10.5481828 8.03904333,10.2929752 C8.71352103,10.2200586 9.21482178,10.1289131 9.542946,10.0195384 C10.0533616,9.83724698 10.4452876,9.56381014 10.7187244,9.19922781 C11.0286194,8.72527075 11.1835671,8.07813673 11.1835671,7.25782619 C11.1835671,6.91147271 11.1197653,6.61069218 10.9921613,6.35548459 C10.9010158,6.17319322 10.7278389,5.94532932 10.4726313,5.67189247 C10.5455479,5.4896011 10.5911204,5.27085162 10.6093497,5.01564404 C10.627579,4.61460319 10.5637768,4.21356275 10.4179439,3.8125219 C10.2356525,3.75783454 9.98044495,3.79429264 9.65232074,3.92189664 C9.43357126,4.01304212 9.17836367,4.14064612 8.88669756,4.30470823 L8.53122966,4.55080139 C7.9661267,4.38673929 7.38735232,4.30470823 6.79490567,4.30470823 C6.20245903,4.30470823 5.63279907,4.38673929 5.08592537,4.55080139 L4.73045747,4.30470823 C4.43879136,4.14064612 4.17446935,4.01304212 3.93749061,3.92189664 C3.60936639,3.79429264 3.36327323,3.75783454 3.19921112,3.8125219 C3.03514901,4.21356275 2.97134722,4.61460319 3.00780533,5.01564404 C3.00780533,5.27085162 3.04426344,5.48048668 3.11718007,5.64454879 C2.89843059,5.91798563 2.7389259,6.16863622 2.63866558,6.39650012 C2.53840527,6.62436402 2.48827532,6.91147271 2.48827532,7.25782619 C2.48827532,8.07813673 2.63410816,8.71615591 2.92577427,9.17188413 C3.18098186,9.55469571 3.56379345,9.83724698 4.07420904,10.0195384 C4.40233325,10.1289131 4.89451958,10.2200586 5.55076802,10.2929752 C5.31378928,10.5117247 5.16795643,10.8216196 5.11326906,11.2226605 C4.8033741,11.3684933 4.50259357,11.4231807 4.21092746,11.3867226 C3.7369704,11.3502645 3.37238765,11.1041713 3.11718007,10.6484431 C3.00780533,10.4479229 2.86197248,10.2838608 2.67968111,10.1562568 C2.55207711,10.0833401 2.41535869,10.0195384 2.26952584,9.96485099 L2.07812005,9.9375073 C1.87759983,9.9375073 1.77278209,9.96940841 1.76366767,10.0332102 C1.75455325,10.097012 1.79556877,10.1653712 1.88671425,10.2382878 L2.02343268,10.3476626 C2.15103668,10.4205792 2.27864026,10.5390684 2.40624426,10.7031305 C2.515619,10.8307345 2.60676448,10.9765673 2.67968111,11.1406294 L2.78905585,11.3593789 C2.88020133,11.6328158 3.05337828,11.8424508 3.30858586,11.9882837 C3.52733534,12.1158877 3.79165777,12.1979187 4.10155272,12.2343768 C4.3203022,12.2526061 4.5481661,12.2434912 4.78514484,12.2070331 L5.08592537,12.1796895 L5.11326906,13.8476542 C5.11326906,13.957029 5.07225353,14.0481744 4.99022248,14.1210911 C4.90819142,14.1940077 4.79425926,14.2122366 4.64842642,14.1757784 C3.26301291,13.7200502 2.14192184,12.8951827 1.28515319,11.701175 C0.428384534,10.5071673 0,9.15365486 0,7.64063778 C0,6.40105754 0.29166611,5.27085162 0.874997914,4.25002086 C1.45832972,3.2291901 2.26041142,2.4271084 3.28124218,1.8437766 C4.30207294,1.2604448 5.44139328,0.968778685 6.69920278,0.968778685 Z M2.65233743,10.4023499 C2.68879553,10.3658918 2.73436848,10.3750063 2.78905585,10.4296936 C2.84374322,10.484381 2.85285764,10.5299539 2.81639954,10.5664121 C2.77994143,10.6028702 2.73436848,10.5937557 2.67968111,10.5390684 C2.62499374,10.484381 2.61587932,10.4388081 2.65233743,10.4023499 Z M2.35155689,10.1836005 C2.388015,10.1471424 2.43358795,10.1425849 2.48827532,10.1699286 C2.54296269,10.1972723 2.56119195,10.2337304 2.54296269,10.2793034 C2.52473342,10.3248763 2.4837179,10.3294333 2.41991611,10.2929752 C2.35611431,10.2565171 2.33332763,10.2200586 2.35155689,10.1836005 Z M3.25389849,11.1406294 C3.27212775,11.1224002 3.29947144,11.1178432 3.33592955,11.1269576 C3.37238765,11.136072 3.40428876,11.1543013 3.43163244,11.181645 C3.45897613,11.2089886 3.47720539,11.2408897 3.48631981,11.2773479 C3.49543424,11.313806 3.49087723,11.3411496 3.47264797,11.3593789 C3.4179606,11.4140663 3.35415881,11.4049519 3.28124218,11.3320352 C3.24478407,11.2955771 3.22655481,11.2591186 3.22655481,11.2226605 C3.22655481,11.1862024 3.23566923,11.1588587 3.25389849,11.1406294 Z M2.92577427,10.7578178 C2.96223238,10.7395886 2.99413349,10.7350316 3.02147717,10.744146 C3.04882086,10.7532604 3.07160712,10.7760471 3.08983638,10.8125052 C3.14452375,10.8854218 3.14452375,10.9401092 3.08983638,10.9765673 C3.07160712,10.9947966 3.04882086,10.9947966 3.02147717,10.9765673 C2.99413349,10.9583381 2.96223238,10.9401092 2.92577427,10.92188 C2.88931617,10.8307345 2.88931617,10.7760471 2.92577427,10.7578178 Z" id="g" fill="#FFFFFF" fill-rule="nonzero"></path>
    </g>
</svg>