<?xml version="1.0" encoding="UTF-8"?>
<svg width="742px" height="230px" viewBox="0 0 742 230" version="1.1" xmlns="http://www.w3.org/2000/svg" xmlns:xlink="http://www.w3.org/1999/xlink">
    <title>Logo_type_w</title>
    <defs>
        <circle id="path-1" cx="59" cy="59" r="59"></circle>
        <circle id="path-3" cx="46.5" cy="46.5" r="46.5"></circle>
        <circle id="path-5" cx="32.5" cy="32.5" r="32.5"></circle>
        <circle id="path-7" cx="18.5" cy="18.5" r="18.5"></circle>
    </defs>
    <g id="Logo_type_w" stroke="none" stroke-width="1" fill="none" fill-rule="evenodd">
        <g id="Group-Copy" transform="translate(39.750514, 39.750514)">
            <g id="Oval-Copy" transform="translate(77.000000, 77.000000) rotate(-68.000000) translate(-77.000000, -77.000000) translate(18.000000, 18.000000)">
                <mask id="mask-2" fill="white">
                    <use xlink:href="#path-1"></use>
                </mask>
                <g id="Mask"></g>
                <path d="M108.476883,91.1535485 C114.500166,81.904052 118,70.860741 118,59 C118,26.4151998 91.5848002,-2.84217094e-14 59,-2.84217094e-14 C26.4151998,-2.84217094e-14 0,26.4151998 0,59" stroke="#FFFFFF" stroke-width="6" stroke-linecap="round" mask="url(#mask-2)"></path>
            </g>
            <g id="Oval-Copy-2" transform="translate(76.646447, 76.387628) rotate(-212.000000) translate(-76.646447, -76.387628) translate(30.146447, 29.887628)">
                <mask id="mask-4" fill="white">
                    <use xlink:href="#path-3"></use>
                </mask>
                <g id="Mask"></g>
                <path d="M46.5,93 C72.1812409,93 93,72.1812409 93,46.5 C93,20.8187591 72.1812409,0 46.5,0 C31.0961834,0 17.4417408,7.48996019 8.97992227,19.0266304" stroke="#FFFFFF" stroke-width="6" stroke-linecap="round" mask="url(#mask-4)"></path>
            </g>
            <g id="Oval-Copy-3" transform="translate(76.646447, 76.387628) rotate(-105.000000) translate(-76.646447, -76.387628) translate(44.146447, 43.887628)">
                <mask id="mask-6" fill="white">
                    <use xlink:href="#path-5"></use>
                </mask>
                <g id="Mask"></g>
                <path d="M32.5,65 C50.4492544,65 65,50.4492544 65,32.5 C65,27.4279099 63.8381065,22.6271946 61.7659616,18.3494964 C57.8954248,10.3592301 50.8490121,4.19377559 42.2666976,1.49310682 C39.1839624,0.5230367 35.9030621,7.10542736e-15 32.5,7.10542736e-15" stroke="#FFFFFF" stroke-width="6" stroke-linecap="round" mask="url(#mask-6)"></path>
            </g>
            <g id="Oval-Copy-5" transform="translate(76.646447, 76.387628) rotate(-342.000000) translate(-76.646447, -76.387628) translate(58.146447, 57.887628)">
                <mask id="mask-8" fill="white">
                    <use xlink:href="#path-7"></use>
                </mask>
                <g id="Mask"></g>
                <path d="M18.5,37 C23.4611418,37 27.9661726,35.047157 31.2883327,31.8682308 C34.8080249,28.500289 37,23.7561261 37,18.5 C37,8.28273213 28.7172679,0 18.5,0 C13.1548454,0 8.33914423,2.26685946 4.96181888,5.89165595" stroke="#FFFFFF" stroke-width="6" stroke-linecap="round" mask="url(#mask-8)"></path>
            </g>
            <circle id="Oval-Copy-4" stroke="#FFFFFF" stroke-width="3" transform="translate(76.646447, 76.387628) rotate(-165.000000) translate(-76.646447, -76.387628) " cx="76.6464466" cy="76.3876276" r="5.5"></circle>
        </g>
        <polygon id="Path-Copy-2" fill="#FFFFFF" fill-rule="nonzero" points="197.967285 137.719238 197.967285 116.137207 224.183105 116.137207 224.183105 137.719238 228.150391 137.719238 228.150391 93 224.183105 93 224.183105 112.423828 197.967285 112.423828 197.967285 93 194 93 194 137.719238"></polygon>
        <path d="M309.039202,93 L309.584581,93.0049958 C312.648142,93.0616154 315.254028,93.5995009 317.402239,94.6186523 C319.676816,95.6977539 321.390683,97.2264811 322.543841,99.204834 C323.696998,101.183187 324.273577,103.505371 324.273577,106.171387 C324.273577,108.752767 323.702288,111.069661 322.55971,113.12207 C321.417132,115.174479 319.719134,116.798421 317.465716,117.993896 C315.212298,119.189372 312.477516,119.787109 309.26137,119.787109 L309.26137,119.787109 L297.296038,119.787109 L297.296038,137.719238 L293.328753,137.719238 L293.328753,93 L309.039202,93 Z M308.53139,96.6181641 L297.296038,96.6181641 L297.296038,116.200684 L308.785296,116.200684 C312.615048,116.200684 315.487363,115.322591 317.402239,113.566406 C319.317115,111.810221 320.274554,109.366374 320.274554,106.234863 C320.274554,103.145671 319.280087,100.770589 317.291155,99.1096191 C315.302223,97.4486491 312.382301,96.6181641 308.53139,96.6181641 L308.53139,96.6181641 Z" id="Combined-Shape-Copy-3" fill="#FFFFFF" fill-rule="nonzero"></path>
        <polygon id="Path-Copy-3" fill="#FFFFFF" fill-rule="nonzero" points="368.835658 137.719238 368.835658 134.069336 344.206752 134.069336 344.206752 116.486328 365.598354 116.486328 365.598354 112.836426 344.206752 112.836426 344.206752 96.6499023 367.534389 96.6499023 367.534389 93 340.239467 93 340.239467 137.719238"></polygon>
        <path d="M401.877232,93 L402.429083,93.0051616 C405.348273,93.0602185 407.883235,93.5557311 410.03397,94.4916992 C412.319127,95.4861654 414.070022,96.9302572 415.286656,98.8239746 C416.50329,100.717692 417.111607,102.986979 417.111607,105.631836 C417.111607,107.811198 416.656692,109.789551 415.746861,111.566895 C414.83703,113.344238 413.509312,114.814779 411.763707,115.978516 C410.018101,117.142253 407.918085,117.893392 405.463658,118.231934 L405.463658,118.231934 L418.53983,137.719238 L413.842564,137.719238 L401.401158,118.67627 L390.007115,118.67627 L390.007115,137.719238 L386.03983,137.719238 L386.03983,93 L401.877232,93 Z M401.496373,96.6181641 L390.007115,96.6181641 L390.007115,115.089844 L401.750279,115.089844 C404.3105,115.089844 406.436965,114.682536 408.129674,113.86792 C409.822382,113.053304 411.076044,111.937174 411.89066,110.519531 C412.705276,109.101888 413.112584,107.493815 413.112584,105.695312 C413.112584,102.754232 412.091669,100.506104 410.04984,98.9509277 C408.00801,97.395752 405.156855,96.6181641 401.496373,96.6181641 L401.496373,96.6181641 Z" id="Combined-Shape-Copy-4" fill="#FFFFFF" fill-rule="nonzero"></path>
        <path d="M449.438825,138.354004 C452.86656,138.354004 455.775902,137.803874 458.166853,136.703613 C460.557803,135.603353 462.356306,134.101074 463.56236,132.196777 C464.768415,130.29248 465.371443,128.134277 465.371443,125.722168 C465.371443,122.992676 464.731387,120.808024 463.451277,119.168213 C462.171166,117.528402 460.6107,116.311768 458.76988,115.518311 C456.92906,114.724854 454.495791,113.915527 451.470075,113.090332 L451.470075,113.090332 L450.105329,112.709473 C447.270043,111.926595 445.10655,111.244222 443.614851,110.662354 C442.123152,110.080485 440.8642,109.228841 439.837995,108.107422 C438.811791,106.986003 438.298689,105.494303 438.298689,103.632324 C438.298689,102.151204 438.679548,100.828776 439.441267,99.6650391 C440.202985,98.5013021 441.40375,97.5808919 443.043562,96.9038086 C444.683373,96.2267253 446.751651,95.8881836 449.248396,95.8881836 C451.893252,95.8881836 454.136091,96.343099 455.976911,97.2529297 C457.817732,98.1627604 459.478702,99.389974 460.959821,100.93457 L460.959821,100.93457 L463.75279,98.3320312 C462.081241,96.4488932 460.07115,94.9783529 457.722517,93.9204102 C455.373884,92.8624674 452.549177,92.3334961 449.248396,92.3334961 C446.455427,92.3334961 443.937523,92.7513835 441.694685,93.5871582 C439.451846,94.4229329 437.663923,95.7030436 436.330915,97.4274902 C434.997907,99.1519368 434.331403,101.294271 434.331403,103.854492 C434.331403,106.457031 434.982038,108.557048 436.283308,110.154541 C437.584577,111.752035 439.182071,112.963379 441.075788,113.788574 C442.969506,114.61377 445.344587,115.407227 448.201032,116.168945 L448.201032,116.168945 L449.692732,116.549805 C452.422224,117.269206 454.548689,117.93042 456.072126,118.533447 C457.595564,119.136475 458.859805,120.019857 459.864851,121.183594 C460.869896,122.347331 461.372419,123.913086 461.372419,125.880859 C461.372419,127.912109 460.838158,129.594238 459.769636,130.927246 C458.701114,132.260254 457.262312,133.244141 455.45323,133.878906 C453.644148,134.513672 451.618187,134.831055 449.375349,134.831055 C446.243838,134.831055 443.657168,134.291504 441.615339,133.212402 C439.57351,132.133301 437.663923,130.620443 435.886579,128.673828 L435.886579,128.673828 L432.998396,131.339844 C434.966169,133.603841 437.283064,135.338867 439.949079,136.544922 C442.615095,137.750977 445.778344,138.354004 449.438825,138.354004 Z" id="Path-Copy-4" fill="#FFFFFF" fill-rule="nonzero"></path>
        <path d="M497.174735,93 L497.720114,93.0049958 C500.783675,93.0616154 503.389561,93.5995009 505.537772,94.6186523 C507.812349,95.6977539 509.526216,97.2264811 510.679374,99.204834 C511.832531,101.183187 512.40911,103.505371 512.40911,106.171387 C512.40911,108.752767 511.837821,111.069661 510.695243,113.12207 C509.552665,115.174479 507.854667,116.798421 505.601249,117.993896 C503.347831,119.189372 500.613049,119.787109 497.396903,119.787109 L497.396903,119.787109 L485.431571,119.787109 L485.431571,137.719238 L481.464286,137.719238 L481.464286,93 L497.174735,93 Z M496.666922,96.6181641 L485.431571,96.6181641 L485.431571,116.200684 L496.920829,116.200684 C500.750581,116.200684 503.622896,115.322591 505.537772,113.566406 C507.452648,111.810221 508.410086,109.366374 508.410086,106.234863 C508.410086,103.145671 507.41562,100.770589 505.426688,99.1096191 C503.437756,97.4486491 500.517834,96.6181641 496.666922,96.6181641 L496.666922,96.6181641 Z" id="Combined-Shape-Copy-5" fill="#FFFFFF" fill-rule="nonzero"></path>
        <path d="M543.197266,93 L560.431152,137.719238 L556.241699,137.719238 L551.227051,124.38916 L530.343262,124.38916 L525.328613,137.719238 L521.075684,137.719238 L538.468262,93 L543.197266,93 Z M540.816895,96.3642578 C540.737549,96.6975098 540.524307,97.3550873 540.17717,98.3369904 L540.17717,98.3369904 L539.891711,99.1342287 L539.891711,99.1342287 L539.7854,99.427002 C539.203532,101.024495 538.584635,102.637858 537.928711,104.26709 L537.928711,104.26709 L531.67627,120.866211 L549.925781,120.866211 L543.67334,104.235352 L543.203217,103.044174 C542.739044,101.852005 542.292725,100.65686 541.864258,99.4587402 C541.292969,97.8612467 540.943848,96.8297526 540.816895,96.3642578 Z" id="Combined-Shape-Copy-6" fill="#FFFFFF" fill-rule="nonzero"></path>
        <path d="M590.774484,138.354004 C594.836984,138.354004 598.296456,137.407145 601.152902,135.513428 C604.009347,133.61971 606.283924,131.159993 607.976632,128.134277 L607.976632,128.134277 L604.675851,126.198242 C603.067778,128.885417 601.18464,130.969564 599.026437,132.450684 C596.868234,133.931803 594.1599,134.672363 590.901437,134.672363 C587.537179,134.672363 584.606678,133.831299 582.109933,132.14917 C579.613188,130.467041 577.703602,128.150146 576.381173,125.198486 C575.058745,122.246826 574.397531,118.898438 574.397531,115.15332 C574.397531,111.344727 575.021717,108.001628 576.270089,105.124023 C577.518462,102.246419 579.359282,100.00887 581.79255,98.411377 C584.225818,96.8138835 587.166899,96.0151367 590.615792,96.0151367 C593.726144,96.0151367 596.371001,96.7080892 598.550363,98.0939941 C600.729725,99.4798991 602.47533,101.262533 603.787179,103.441895 L603.787179,103.441895 L607.151437,101.410645 C605.627999,98.8292643 603.490955,96.6710612 600.740304,94.9360352 C597.989653,93.2010091 594.604236,92.3334961 590.584054,92.3334961 C586.373442,92.3334961 582.744699,93.2750651 579.697824,95.1582031 C576.650949,97.0413411 574.328764,99.7020671 572.731271,103.140381 C571.133777,106.578695 570.335031,110.583008 570.335031,115.15332 C570.335031,119.617839 571.123198,123.600993 572.699533,127.102783 C574.275867,130.604574 576.603341,133.355225 579.681955,135.354736 C582.760568,137.354248 586.458078,138.354004 590.774484,138.354004 Z" id="Path-Copy-5" fill="#FFFFFF" fill-rule="nonzero"></path>
        <path d="M247.09668,92.7192383 L247.09668,105.741777 C247.09668,112.921479 252.916978,118.741777 260.09668,118.741777 C267.173814,118.741777 272.930108,113.086586 273.093129,106.048634 L273.09668,105.741777 L273.09668,92.7192383 L277.09668,92.7192383 L277.09668,105.741777 C277.09668,114.453805 270.543299,121.635209 262.09722,122.625308 L262.09668,138.719238 L258.121502,138.719238 L258.121502,135.259756 L258.09668,135.259238 L258.097142,122.625425 C249.755204,121.648036 243.259333,114.631114 243.099688,106.064817 L243.09668,105.741777 L243.09668,92.7192383 L247.09668,92.7192383 Z" id="Combined-Shape" fill="#FFFFFF" fill-rule="nonzero"></path>
        <polygon id="Path-Copy-6" fill="#FFFFFF" fill-rule="nonzero" points="651.776995 137.719238 651.776995 134.069336 627.148089 134.069336 627.148089 116.486328 648.53969 116.486328 648.53969 112.836426 627.148089 112.836426 627.148089 96.6499023 650.475725 96.6499023 650.475725 93 623.180804 93 623.180804 137.719238"></polygon>
    </g>
</svg>