<?xml version="1.0" encoding="UTF-8"?>
<svg width="230px" height="230px" viewBox="0 0 230 230" version="1.1" xmlns="http://www.w3.org/2000/svg" xmlns:xlink="http://www.w3.org/1999/xlink">
    <title>Logo_w</title>
    <defs>
        <circle id="path-1" cx="59" cy="59" r="59"></circle>
        <circle id="path-3" cx="46.5" cy="46.5" r="46.5"></circle>
        <circle id="path-5" cx="32.5" cy="32.5" r="32.5"></circle>
        <circle id="path-7" cx="18.5" cy="18.5" r="18.5"></circle>
    </defs>
    <g id="Logo_w" stroke="none" stroke-width="1" fill="none" fill-rule="evenodd">
        <g id="Group-Copy" transform="translate(39.750514, 39.750514)">
            <g id="Oval-Copy" transform="translate(77.000000, 77.000000) rotate(-68.000000) translate(-77.000000, -77.000000) translate(18.000000, 18.000000)">
                <mask id="mask-2" fill="white">
                    <use xlink:href="#path-1"></use>
                </mask>
                <g id="Mask"></g>
                <path d="M108.476883,91.1535485 C114.500166,81.904052 118,70.860741 118,59 C118,26.4151998 91.5848002,-2.84217094e-14 59,-2.84217094e-14 C26.4151998,-2.84217094e-14 0,26.4151998 0,59" stroke="#FFFFFF" stroke-width="6" stroke-linecap="round" mask="url(#mask-2)"></path>
            </g>
            <g id="Oval-Copy-2" transform="translate(76.646447, 76.387628) rotate(-212.000000) translate(-76.646447, -76.387628) translate(30.146447, 29.887628)">
                <mask id="mask-4" fill="white">
                    <use xlink:href="#path-3"></use>
                </mask>
                <g id="Mask"></g>
                <path d="M46.5,93 C72.1812409,93 93,72.1812409 93,46.5 C93,20.8187591 72.1812409,0 46.5,0 C31.0961834,0 17.4417408,7.48996019 8.97992227,19.0266304" stroke="#FFFFFF" stroke-width="6" stroke-linecap="round" mask="url(#mask-4)"></path>
            </g>
            <g id="Oval-Copy-3" transform="translate(76.646447, 76.387628) rotate(-105.000000) translate(-76.646447, -76.387628) translate(44.146447, 43.887628)">
                <mask id="mask-6" fill="white">
                    <use xlink:href="#path-5"></use>
                </mask>
                <g id="Mask"></g>
                <path d="M32.5,65 C50.4492544,65 65,50.4492544 65,32.5 C65,27.4279099 63.8381065,22.6271946 61.7659616,18.3494964 C57.8954248,10.3592301 50.8490121,4.19377559 42.2666976,1.49310682 C39.1839624,0.5230367 35.9030621,7.10542736e-15 32.5,7.10542736e-15" stroke="#FFFFFF" stroke-width="6" stroke-linecap="round" mask="url(#mask-6)"></path>
            </g>
            <g id="Oval-Copy-5" transform="translate(76.646447, 76.387628) rotate(-342.000000) translate(-76.646447, -76.387628) translate(58.146447, 57.887628)">
                <mask id="mask-8" fill="white">
                    <use xlink:href="#path-7"></use>
                </mask>
                <g id="Mask"></g>
                <path d="M18.5,37 C23.4611418,37 27.9661726,35.047157 31.2883327,31.8682308 C34.8080249,28.500289 37,23.7561261 37,18.5 C37,8.28273213 28.7172679,0 18.5,0 C13.1548454,0 8.33914423,2.26685946 4.96181888,5.89165595" stroke="#FFFFFF" stroke-width="6" stroke-linecap="round" mask="url(#mask-8)"></path>
            </g>
            <circle id="Oval-Copy-4" stroke="#FFFFFF" stroke-width="3" transform="translate(76.646447, 76.387628) rotate(-165.000000) translate(-76.646447, -76.387628) " cx="76.6464466" cy="76.3876276" r="5.5"></circle>
        </g>
    </g>
</svg>