<?xml version="1.0" encoding="UTF-8"?>
<svg width="13px" height="13px" viewBox="0 0 13 13" version="1.1" xmlns="http://www.w3.org/2000/svg" xmlns:xlink="http://www.w3.org/1999/xlink">
    <!-- Generator: Sketch 54.1 (76490) - https://sketchapp.com -->
    <title>i</title>
    <desc>Created with Sketch.</desc>
    <g id="Page-1" stroke="none" stroke-width="1" fill="none" fill-rule="evenodd">
        <path d="M6.1249854,3.60548876 C6.69008836,3.60548876 7.21417537,3.74676461 7.69724727,4.02931588 C8.18031918,4.31186715 8.56313076,4.69467874 8.84568204,5.17775064 C9.12823331,5.66082254 9.26950915,6.18490956 9.26950915,6.75001252 C9.26950915,7.31511548 9.12823331,7.83920249 8.84568204,8.32227439 C8.56313076,8.8053463 8.18031918,9.18815788 7.69724727,9.47070916 C7.21417537,9.75326043 6.69008836,9.89453627 6.1249854,9.89453627 C5.55988244,9.89453627 5.03579542,9.75326043 4.55272352,9.47070916 C4.06965162,9.18815788 3.68684003,8.8053463 3.40428876,8.32227439 C3.12173749,7.83920249 2.98046164,7.31511548 2.98046164,6.75001252 C2.98046164,6.18490956 3.12173749,5.66082254 3.40428876,5.17775064 C3.68684003,4.69467874 4.06965162,4.31186715 4.55272352,4.02931588 C5.03579542,3.74676461 5.55988244,3.60548876 6.1249854,3.60548876 Z M6.1249854,8.80078888 C6.69008836,8.80078888 7.17315984,8.60026866 7.57420904,8.19923616 C7.97524154,7.79818696 8.17576176,7.31511548 8.17576176,6.75001252 C8.17576176,6.18490956 7.97524154,5.70183807 7.57420069,5.30079722 C7.17315984,4.89975637 6.69008836,4.69923616 6.1249854,4.69923616 C5.55988244,4.69923616 5.07681095,4.89975637 4.6757701,5.30079722 C4.27472925,5.70183807 4.07420904,6.18490956 4.07420904,6.75001252 C4.07420904,7.31511548 4.27472925,7.79818696 4.6757701,8.19922781 C5.07681095,8.60026866 5.55988244,8.80078888 6.1249854,8.80078888 Z M10.1445071,3.46877034 C10.1262778,3.66929056 10.0488042,3.8424675 9.91208574,3.98830035 C9.77536732,4.1341332 9.60674779,4.20704983 9.40622757,4.20704983 C9.20570736,4.20704983 9.03253041,4.1341332 8.88669756,3.98830035 C8.74086472,3.8424675 8.66794808,3.66929056 8.66794808,3.46877034 C8.66794808,3.26825012 8.74086472,3.09507318 8.88669756,2.94924033 C9.03253041,2.80340748 9.20570736,2.73049085 9.40622757,2.73049085 C9.60674779,2.73049085 9.77992474,2.80340748 9.92575759,2.94924033 C10.0715904,3.09507318 10.1445071,3.26825012 10.1445071,3.46877034 Z M12.2226271,4.20704983 C12.2408564,4.71746542 12.2499708,5.56511965 12.2499708,6.75001252 C12.2499708,7.93490539 12.236299,8.78711704 12.2089553,9.30664705 C12.1816116,9.82617706 12.1041379,10.2773479 11.9765339,10.6601594 C11.8124718,11.1158877 11.5618213,11.5123711 11.2245826,11.8496097 C10.887344,12.1868484 10.4908605,12.437499 10.0351323,12.6015611 C9.65232074,12.7291651 9.20114994,12.8066387 8.68161993,12.8339824 C8.16208992,12.8613261 7.30987827,12.8749979 6.1249854,12.8749979 C4.94009253,12.8749979 4.08788088,12.8613261 3.56835087,12.8339824 C3.04882086,12.8066387 2.59765006,12.7200502 2.21483847,12.5742174 C1.75911025,12.4283845 1.36262682,12.1868484 1.02538818,11.8496097 C0.68814954,11.5123711 0.437498957,11.1158877 0.273436848,10.6601594 C0.145832847,10.2773479 0.068359212,9.82617706 0.0410155272,9.30664705 C0.0136718424,8.78711704 0,7.93490539 0,6.75001252 C0,5.56511965 0.0136718424,4.712908 0.0410155272,4.19337799 C0.068359212,3.67384798 0.145832847,3.22267718 0.273436848,2.83986559 C0.437498957,2.38413737 0.68814954,1.98765394 1.02538818,1.6504153 C1.36262682,1.31317666 1.75911025,1.06252608 2.21483847,0.898463968 C2.59765006,0.770859967 3.04882086,0.693386332 3.56835087,0.666042647 C4.08788088,0.638698963 4.94009253,0.62502712 6.1249854,0.62502712 C7.30987827,0.62502712 8.16208992,0.638698963 8.68161993,0.666042647 C9.20114994,0.693386332 9.65232074,0.770859967 10.0351323,0.898463968 C10.4908605,1.06252608 10.887344,1.31317666 11.2245826,1.6504153 C11.5618213,1.98765394 11.8124718,2.38413737 11.9765339,2.83986559 C12.1041379,3.22267718 12.186169,3.6784054 12.2226271,4.20704983 Z M10.9101302,10.3593789 C11.019505,10.049484 11.0924216,9.55729763 11.1288797,8.88281993 C11.147109,8.48177908 11.1562234,7.91667654 11.1562234,7.18751147 L11.1562234,6.31251356 C11.1562234,5.56511965 11.147109,5.00001669 11.1288797,4.6172051 C11.0924216,3.92449856 11.019505,3.43231223 10.9101302,3.14064612 C10.6913808,2.57554316 10.2994547,2.18361715 9.73435179,1.96486768 C9.44268568,1.85549294 8.95049935,1.7825763 8.25779281,1.7461182 C7.85675196,1.72788893 7.29164942,1.71877451 6.56248435,1.71877451 L5.68748644,1.71877451 C4.95832137,1.71877451 4.39321883,1.72788893 3.99217798,1.7461182 C3.31770028,1.7825763 2.82551396,1.85549294 2.515619,1.96486768 C1.95051604,2.18361715 1.55859003,2.57554316 1.33984056,3.14064612 C1.23046582,3.43231223 1.15754918,3.92449856 1.12109108,4.6172051 C1.10286181,5.01824595 1.09374739,5.58334849 1.09374739,6.31251356 L1.09374739,7.18751147 C1.09374739,7.91667654 1.10286181,8.48177908 1.12109108,8.88281993 C1.15754918,9.55729763 1.23046582,10.049484 1.33984056,10.3593789 C1.5768193,10.9244819 1.96874531,11.3164079 2.515619,11.5351574 C2.82551396,11.6445321 3.31770028,11.7174487 3.99217798,11.7539068 C4.39321883,11.7721361 4.95832137,11.7812505 5.68748644,11.7812505 L6.56248435,11.7812505 C7.30987827,11.7812505 7.87498122,11.7721361 8.25779281,11.7539068 C8.95049935,11.7174487 9.44268568,11.6445321 9.73435179,11.5351574 C10.2994547,11.2981786 10.6913808,10.9062526 10.9101302,10.3593789 Z" id="i" fill="#FFFFFF" fill-rule="nonzero"></path>
    </g>
</svg>