<?xml version="1.0" encoding="utf-8"?>
<!-- Generator: Adobe Illustrator 23.0.3, SVG Export Plug-In . SVG Version: 6.00 Build 0)  -->
<svg version="1.1" id="Layer_1" xmlns="http://www.w3.org/2000/svg" xmlns:xlink="http://www.w3.org/1999/xlink" x="0px" y="0px"
	 viewBox="0 0 141.7 141.7" style="enable-background:new 0 0 141.7 141.7;" xml:space="preserve">
<style type="text/css">
	.st0{fill:#FFFFFF;}
</style>
<title>Combined Shape Copy 2</title>
<desc>Created with Sketch.</desc>
<g id="Logo">
	<g id="Arthur-" transform="translate(-3662.000000, -652.000000)">
		<path id="Combined-Shape-Copy-2" class="st0" d="M3746.9,771.7c5.2-12.1,11.8-24.9,19.7-38.3c0.5-0.9,0.2-2.1-0.7-2.6
			c-0.9-0.5-2.1-0.2-2.6,0.7c-9.3,15.8-16.8,30.7-22.4,44.8c0,0-0.1,0.1-0.1,0.1c-1.8,4.1-3.1,7.5-4.1,10.4c-0.3,1-1.4,1.5-2.4,1.2
			s-1.5-1.4-1.2-2.4c1.4-4,3.5-9.2,6.4-15.5c-2.2-13.5-1.5-25.8,2.2-36.8c6.4-19.1,24.4-36.6,24.5-36.7s4.5,9.8,4.4,9.4
			c0.9-9.4,1.5-14.2,1.7-14.4c0.3-0.4,8.6-7,28.4-11.7c0.6-0.1-1.6,2.2-3.1,9.7c-1.4,7.5,1.7,25-2.1,38.2c-3.8,13.2-18,28-25.3,32
			c-0.3,0.2-6.2-7.1-6.4-7c-0.2,0.1,0.9,8.5-0.7,9.4C3756.6,765.4,3751.2,768.6,3746.9,771.7z"/>
	</g>
</g>
</svg>
