<svg xmlns="http://www.w3.org/2000/svg" xmlns:xlink="http://www.w3.org/1999/xlink" width="273" height="273" viewBox="0 0 273 273"><defs><clipPath id="a"><path d="M26.593,32.5A656.278,656.278,0,0,1,63.9-40.155,3.629,3.629,0,0,0,62.6-45.121a3.63,3.63,0,0,0-4.971,1.281Q31.2,1.086,15.076,41.256l-.176.15Q9.9,53.032,7.066,61.1a3.634,3.634,0,0,1-6.86-2.4q4-11.384,12.082-29.4Q5.883-9.126,16.43-40.507c12.205-36.318,46.225-69.414,46.479-69.752s8.454,18.606,8.4,17.9Q74-118.978,74.535-119.694c.538-.716,16.387-13.239,53.942-22.3,1.064-.2-3.069,4.21-5.809,18.481s3.2,47.489-4.06,72.465S84.4,2.1,70.655,9.65c-.662.363-11.81-13.407-12.213-13.26-.394.236,1.761,16.048-1.407,17.844A319.7,319.7,0,0,0,26.593,32.5Z" transform="translate(0 141.999)" fill="none"/></clipPath><clipPath id="b"><path d="M-4051,5203.811H3415.869V-794H-4051Z" transform="translate(4051 794)" fill="none"/></clipPath></defs><g transform="translate(-346 -732)"><rect width="273" height="273" transform="translate(346 732)" fill="#fff"/><g transform="translate(416.908 902.499)"><g transform="translate(2 -136.999)" clip-path="url(#a)"><g transform="translate(-5866.103 -950.909)" clip-path="url(#b)"><path d="M-5-147H138.122V73H-5Z" transform="translate(5860.971 1083.435)" fill="#133a41"/></g></g></g></g></svg>