<?xml version="1.0" encoding="UTF-8"?>
<svg width="13px" height="13px" viewBox="0 0 13 13" version="1.1" xmlns="http://www.w3.org/2000/svg" xmlns:xlink="http://www.w3.org/1999/xlink">
    <!-- Generator: Sketch 54.1 (76490) - https://sketchapp.com -->
    <title>l</title>
    <desc>Created with Sketch.</desc>
    <g id="Page-1" stroke="none" stroke-width="1" fill="none" fill-rule="evenodd">
        <path d="M11.3749729,0.62502712 C11.6119516,0.62502712 11.8170293,0.711615594 11.9902058,0.884792126 C12.1633823,1.05796866 12.2499708,1.26304629 12.2499708,1.50002503 L12.2499708,12 C12.2499708,12.2369787 12.1633823,12.4420564 11.9902058,12.6152329 C11.8170293,12.7884094 11.6119516,12.8749979 11.3749729,12.8749979 L0.874997914,12.8749979 C0.638019173,12.8749979 0.432941537,12.7884094 0.259765006,12.6152329 C0.0865884743,12.4420564 0,12.2369787 0,12 L0,1.50002503 C0,1.26304629 0.0865884743,1.05796866 0.259765006,0.884792126 C0.432941537,0.711615594 0.638019173,0.62502712 0.874997914,0.62502712 L11.3749729,0.62502712 Z M1.88671425,11.1250021 L3.71874113,11.1250021 L3.71874113,5.27345354 L1.88671425,5.27345354 L1.88671425,11.1250021 Z M2.78905585,4.48048668 C3.08072196,4.48048668 3.33137213,4.37566936 3.54100718,4.1660343 C3.75064224,3.95639925 3.85545956,3.71030608 3.85545956,3.42775481 C3.85545956,3.14520354 3.75064224,2.89911038 3.54100718,2.68947532 C3.33137213,2.47984027 3.08072196,2.37502295 2.78905585,2.37502295 C2.49738974,2.37502295 2.25129658,2.47984027 2.05077636,2.68947532 C1.85025614,2.89911038 1.74999583,3.14520354 1.74999583,3.42775481 C1.74999583,3.71030608 1.85025614,3.95639925 2.05077636,4.1660343 C2.25129658,4.37566936 2.49738974,4.48048668 2.78905585,4.48048668 Z M10.499975,11.1250021 L10.499975,7.92579096 C10.499975,7.01433494 10.372371,6.34897167 10.1171634,5.92970197 C9.7708099,5.40105754 9.17836367,5.13673511 8.33983221,5.13673511 C7.92055417,5.13673511 7.54685701,5.23699543 7.21873279,5.43751565 C6.94529594,5.60157776 6.74477572,5.81121281 6.61717172,6.0664204 L6.58982804,6.0664204 L6.58982804,5.27345354 L4.83983221,5.27345354 L4.83983221,11.1250021 L6.64451541,11.1250021 L6.64451541,8.2265715 C6.64451541,7.77084328 6.7083172,7.42449021 6.8359212,7.18751147 C7.01821257,6.87761652 7.31899311,6.72266883 7.7382628,6.72266883 C8.1575325,6.72266883 8.43096934,6.89584536 8.55857334,7.24219884 C8.64971882,7.46094832 8.69529177,7.8073018 8.69529177,8.28125887 L8.69529177,11.1250021 L10.499975,11.1250021 Z" id="l" fill="#FFFFFF" fill-rule="nonzero"></path>
    </g>
</svg>