<?xml version="1.0" encoding="utf-8"?>
<!-- Generator: Adobe Illustrator 23.0.4, SVG Export Plug-In . SVG Version: 6.00 Build 0)  -->
<svg version="1.1" id="Layer_1" xmlns="http://www.w3.org/2000/svg" xmlns:xlink="http://www.w3.org/1999/xlink" x="0px" y="0px"
	 viewBox="0 0 17.7 17.7" style="enable-background:new 0 0 17.7 17.7;" xml:space="preserve">
<style type="text/css">
	.st0{fill:none;}
	.st1{enable-background:new    ;}
	.st2{fill:#FFFFFF;}
</style>
<title>left</title>
<g>
	<g id="Layer_1-2">
		<rect y="0" class="st0" width="17.7" height="17.7"/>
		<g class="st1">
			<path class="st2" d="M11.1,15.6c-0.1,0.1-0.1,0.1-0.2,0.1c-0.1,0-0.2,0-0.3-0.1L4,9.1C3.9,9,3.9,8.9,3.9,8.8s0-0.2,0.1-0.2
				L10.5,2c0.1-0.1,0.2-0.1,0.3-0.1c0.1,0,0.2,0,0.2,0.1l0.6,0.6c0.1,0.1,0.1,0.1,0.1,0.2s0,0.2-0.1,0.3L6,8.8l5.7,5.7
				c0.1,0.1,0.1,0.2,0.1,0.3s0,0.2-0.1,0.2L11.1,15.6z"/>
		</g>
	</g>
</g>
</svg>
