<?xml version="1.0" encoding="utf-8"?>
<!-- Generator: Adobe Illustrator 23.0.3, SVG Export Plug-In . SVG Version: 6.00 Build 0)  -->
<svg version="1.1" id="Ebene_1" xmlns="http://www.w3.org/2000/svg" xmlns:xlink="http://www.w3.org/1999/xlink" x="0px" y="0px"
	 viewBox="0 0 43.4 37.2" style="enable-background:new 0 0 43.4 37.2;" xml:space="preserve">
<style type="text/css">
	.st0{fill:#6CC6B3;}
	.st1{fill:#243340;}
</style>
<title>lucid-logo</title>
<polygon class="st0" points="36.3,1.3 7.1,1.3 1.2,13.9 21.7,35.9 42.2,13.9 "/>
<g>
	<path class="st1" d="M25,30.6l5.5-15.4h8.8L25,30.6z M13,15.1l5.5,15.4L4.1,15.1H13z M35.9,4.1l4.3,8.5h-8.5L35.9,4.1z M7.5,4.1
		l4.3,8.5H3.3L7.5,4.1z M14,11.3L9.6,2.5h9.9L14,11.3z M27.3,12.6H16.1l5.6-9L27.3,12.6z M24,2.5h9.9l-4.4,8.8L24,2.5z M15.6,15.1
		h12.2l-6.1,17L15.6,15.1z M43.4,13.9c0-0.1,0-0.2-0.1-0.3c0-0.1,0-0.1,0-0.2c0,0,0-0.1,0-0.1c0,0,0,0,0,0s0,0,0,0L37.5,0.7
		C37.3,0.3,36.8,0,36.3,0H7.1C6.6,0,6.2,0.3,6,0.7L0.1,13.3c0,0,0,0,0,0s0,0,0,0c0,0,0,0.1,0,0.1c0,0.2-0.1,0.3-0.1,0.5
		C0,14,0,14,0,14c0,0.1,0,0.1,0.1,0.2c0,0,0,0.1,0,0.1c0,0.1,0,0.1,0.1,0.2l0,0v0c0,0,0.1,0.1,0.1,0.1s0,0.1,0,0.1l20.5,22
		c0,0,0.1,0.1,0.1,0.1c0,0,0.1,0.1,0.1,0.1c0.4,0.3,0.9,0.3,1.3,0c0,0,0.1-0.1,0.1-0.1c0.1,0,0.1-0.1,0.1-0.1l20.5-22.1
		c0,0,0-0.1,0-0.1s0.1-0.1,0.1-0.1v0l0,0c0-0.1,0.1-0.1,0.1-0.2c0,0,0,0,0-0.1C43.4,14.2,43.4,14.1,43.4,13.9
		C43.4,14,43.4,14,43.4,13.9"/>
</g>
</svg>
