<svg id="Ebene_1" data-name="Ebene 1" xmlns="http://www.w3.org/2000/svg" xmlns:xlink="http://www.w3.org/1999/xlink" viewBox="0 0 85.039 85.039"><defs><style>.cls-1{fill:none;}.cls-2{clip-path:url(#clip-path);}.cls-3{fill:#fff;}.cls-4{fill:#6cc6b3;}.cls-5{fill:#243340;}</style><clipPath id="clip-path"><rect class="cls-1" width="85.039" height="85.039"/></clipPath></defs><title>lucid-logo</title><g class="cls-2"><path class="cls-3" d="M85.039,42.52A42.52,42.52,0,1,1,42.52,0,42.518,42.518,0,0,1,85.039,42.52"/></g><polygon class="cls-4" points="57.143 28.347 27.896 28.347 22.047 40.945 42.519 62.992 62.992 40.945 57.143 28.347"/><g class="cls-2"><path class="cls-5" d="M45.767,57.643l5.514-15.438H60.1ZM33.758,42.205l5.514,15.438L24.937,42.205Zm22.935-11.04,4.261,8.521H52.431Zm-28.347,0,4.262,8.521H24.085Zm6.422,7.208-4.383-8.766h9.862ZM48.12,39.686h-11.2l5.6-8.961ZM44.793,29.607h9.861l-4.382,8.766Zm-8.36,12.6H48.607L42.52,59.247Zm27.814-1.189a1.272,1.272,0,0,0-.051-.27,1.149,1.149,0,0,0-.035-.193c-.012-.036,0-.075-.014-.11,0,0-.007-.007-.009-.011s0-.012,0-.017l-5.849-12.6a1.258,1.258,0,0,0-1.143-.729H27.9a1.258,1.258,0,0,0-1.143.729l-5.848,12.6c0,.005,0,.011,0,.017s-.007.006-.009.011c-.015.035,0,.074-.014.11a32.291,32.291,0,0,1-.086.463c0,.029.017.054.021.083a1.125,1.125,0,0,0,.07.215c.008.026.015.051.025.076a1.288,1.288,0,0,0,.067.219l.006.006,0,.009c.025.038.069.055.1.089s.021.064.045.089L41.6,63.851a1.2,1.2,0,0,0,.143.1,1.1,1.1,0,0,0,.138.1,1.111,1.111,0,0,0,1.283,0,1.1,1.1,0,0,0,.138-.1,1.122,1.122,0,0,0,.143-.1L63.915,41.8c.023-.025.023-.062.044-.089s.072-.051.1-.089l0-.009.006-.006a1.2,1.2,0,0,0,.067-.219c.01-.025.017-.05.025-.076a1.125,1.125,0,0,0,.07-.215c0-.029.019-.054.021-.083"/></g></svg>