<?xml version="1.0" encoding="UTF-8"?>
<svg width="13px" height="13px" viewBox="0 0 13 13" version="1.1" xmlns="http://www.w3.org/2000/svg" xmlns:xlink="http://www.w3.org/1999/xlink">
    <!-- Generator: Sketch 54.1 (76490) - https://sketchapp.com -->
    <title>m</title>
    <desc>Created with Sketch.</desc>
    <g id="Page-1" stroke="none" stroke-width="1" fill="none" fill-rule="evenodd">
        <path d="M0,0.62502712 L12.2499708,0.62502712 L12.2499708,12.8749979 L0,12.8749979 L0,0.62502712 Z M10.1718507,3.52345771 L10.1718507,3.38673929 L7.90232491,3.38673929 L6.28904751,7.43360464 L4.42967694,3.38673929 L2.05077636,3.38673929 L2.05077636,3.52345771 L2.81639954,4.45314299 C2.90754501,4.52605963 2.94400354,4.6172051 2.92577427,4.72657984 L2.92577427,8.36328992 C2.94400354,8.49089392 2.90754501,8.60938308 2.81639954,8.71875782 L1.94140162,9.75781785 L1.94140162,9.89453627 L4.40233325,9.89453627 L4.40233325,9.75781785 L3.52733534,8.71875782 C3.43618986,8.60938308 3.39973134,8.49089392 3.4179606,8.36328992 L3.4179606,5.21876617 L5.5781117,9.89453627 L5.82420486,9.89453627 L7.65623175,5.21876617 L7.65623175,8.96485099 C7.65623175,9.03776762 7.63800248,9.09245499 7.60154438,9.1289131 L6.94529594,9.78516153 L6.94529594,9.92187995 L10.1718507,9.92187995 L10.1718507,9.78516153 L9.51560231,9.15625678 C9.46091494,9.10156941 9.43357126,9.03776762 9.43357126,8.96485099 L9.43357126,4.34376825 C9.43357126,4.27085162 9.46091494,4.20704983 9.51560231,4.15236246 L10.1718507,3.52345771 Z" id="m" fill="#FFFFFF" fill-rule="nonzero"></path>
    </g>
</svg>