<?xml version="1.0" encoding="utf-8"?>
<!-- Generator: Adobe Illustrator 23.0.3, SVG Export Plug-In . SVG Version: 6.00 Build 0)  -->
<svg version="1.1" id="Layer_1" xmlns="http://www.w3.org/2000/svg" xmlns:xlink="http://www.w3.org/1999/xlink" x="0px" y="0px"
	 viewBox="0 0 114.9 77" style="enable-background:new 0 0 114.9 77;" xml:space="preserve">
<style type="text/css">
	.st0{fill-rule:evenodd;clip-rule:evenodd;fill:#FFFFFF;}
</style>
<title>D8032034-F21D-4446-9DE3-9AF09ABAC445</title>
<desc>Created with sketchtool.</desc>
<g id="Page-2">
	<g id="WORK-mailwave" transform="translate(-566.000000, -147.000000)">
		<g transform="translate(566.000000, 147.000000)">
			<g>
				<g id="Final">
					<g id="mainpage-copy-4">
						<g id="Group-23">
							<g id="logo">
								<g id="Group-7" transform="translate(0.078679, 0.143175)">
									<path id="Stroke-1" class="st0" d="M64.7,70.2C49.4,70.2,37,57.8,37,42.4L36.8,34c0-10-8.2-18.2-18.2-18.2
										C8.5,15.8,0.3,24,0.3,34c0,1.6,1.3,2.9,2.9,2.9s2.9-1.3,2.9-2.9c0-6.9,5.6-12.5,12.4-12.5C25.4,21.6,31,27.1,31,34l0.2,8.4
										C31.1,61,46.2,76,64.7,76C83.2,76,98.3,61,98.3,42.4c0-1.6-1.3-2.9-2.9-2.9s-2.9,1.3-2.9,2.9C92.5,57.8,80,70.2,64.7,70.2z
										"/>
									<path id="Stroke-3" class="st0" d="M64.7,60.7c10.1,0,18.2-8.2,18.2-18.3l0.2-8.3c0-15.4,12.4-27.9,27.8-27.9
										c1.6,0,2.9-1.3,2.9-2.9s-1.3-2.9-2.9-2.9C92.3,0.4,77.3,15.5,77.3,34l-0.2,8.3c0,6.9-5.6,12.5-12.4,12.5
										c-6.9,0-12.4-5.6-12.4-12.5c0-1.6-1.3-2.9-2.9-2.9s-2.9,1.3-2.9,2.9C46.5,52.5,54.6,60.7,64.7,60.7z"/>
									<path id="Stroke-5" class="st0" d="M38.8,34.6l0,7.8c0,14.3,11.6,25.9,25.9,25.9c14.3,0,25.9-11.6,25.9-25.9l0.2-8.3
										c0-11.2,9-20.2,20.1-20.2c1.6,0,2.9-1.3,2.9-2.9s-1.3-2.9-2.9-2.9C96.6,8.1,85,19.7,85,34l-0.2,8.3
										c0,11.2-9,20.2-20.1,20.2c-11.1,0-20.1-9-20.1-20.1l0-7.8C44.6,19.9,32.8,8,18.1,8c-1.6,0-2.9,1.3-2.9,2.9s1.3,2.9,2.9,2.9
										C29.5,13.8,38.8,23.1,38.8,34.6z"/>
								</g>
							</g>
						</g>
					</g>
				</g>
			</g>
		</g>
	</g>
</g>
</svg>
