<svg xmlns="http://www.w3.org/2000/svg" width="73" height="72.997" viewBox="0 0 73 72.997">
  <g id="noun_Iron_Man_213797" data-name="noun_Iron Man_213797" transform="translate(0)">
    <g id="Group_57" data-name="Group 57" transform="translate(-0.001)">
      <g id="Group_54" data-name="Group 54">
        <g id="Group_52" data-name="Group 52" transform="translate(18.25)">
          <g id="Group_47" data-name="Group 47" transform="translate(0.001)">
            <g id="Group_42" data-name="Group 42">
              <path id="Path_51" data-name="Path 51" d="M40.978,36.5a1.521,1.521,0,0,1-1.521-1.521V23.453a1.525,1.525,0,0,1-.122-.773l.043-.38a9.224,9.224,0,0,0,.079-1.01c0-.465-.03-.925-.07-1.381a1.492,1.492,0,0,1,.07-.614c-.027-5.189-.474-11.2-1.131-12.2-1-.995-7.993-4.051-14.076-4.051S11.177,6.1,10.118,7.16c-.605.94-1.052,6.986-1.077,12.187a1.361,1.361,0,0,1,.07.563c-.04.456-.07.916-.07,1.381a9.224,9.224,0,0,0,.079,1.01l.043.38a1.514,1.514,0,0,1-.122.773V34.978a1.521,1.521,0,0,1-3.042,0V22.812a1.58,1.58,0,0,1,.067-.45A10.322,10.322,0,0,1,6,21.291c0-.4.015-.785.046-1.174A1.306,1.306,0,0,1,6,19.77c0-5.837.341-13.136,1.965-14.764C9.942,3.029,18.026,0,24.249,0S38.557,3.029,40.534,5.006C42.158,6.634,42.5,13.933,42.5,19.77a1.572,1.572,0,0,1-.043.362c.027.383.043.77.043,1.159a9.689,9.689,0,0,1-.064,1.037,1.819,1.819,0,0,1,.064.484V34.978A1.521,1.521,0,0,1,40.978,36.5Z" transform="translate(-6)" fill="#fff"/>
            </g>
            <g id="Group_43" data-name="Group 43" transform="translate(21.289 18.249)">
              <path id="Path_52" data-name="Path 52" d="M22.125,12.083h-7.6a1.52,1.52,0,0,1-.484-2.962l9.125-3.042a1.52,1.52,0,0,1,.961,2.883l-.478.161v1.439A1.521,1.521,0,0,1,22.125,12.083Z" transform="translate(-13 -6)" fill="#fff"/>
            </g>
            <g id="Group_44" data-name="Group 44" transform="translate(3.041 18.249)">
              <path id="Path_53" data-name="Path 53" d="M17.646,12.083H11.562a1.521,1.521,0,0,1-1.521-1.521V9.632l-2-.669A1.52,1.52,0,0,1,9,6.079l9.125,3.042a1.52,1.52,0,0,1-.481,2.962Z" transform="translate(-7 -6)" fill="#fff"/>
            </g>
            <g id="Group_45" data-name="Group 45" transform="translate(9.124 1.519)">
              <path id="Path_54" data-name="Path 54" d="M22.687,11.147H13.562a1.521,1.521,0,0,1-1.411-.955L9.11,2.588a1.521,1.521,0,1,1,2.826-1.128l2.655,6.646h7.065l2.658-6.649A1.521,1.521,0,0,1,27.14,2.585l-3.042,7.6A1.519,1.519,0,0,1,22.687,11.147Z" transform="translate(-9 -0.499)" fill="#fff"/>
            </g>
            <g id="Group_46" data-name="Group 46" transform="translate(4.562 36.498)">
              <path id="Path_55" data-name="Path 55" d="M33.353,18.083H30.312a1.508,1.508,0,0,1-.843-.255L25.29,15.042h-8.2l-4.179,2.786a1.526,1.526,0,0,1-.846.255H9.021a1.521,1.521,0,1,1,0-3.042H11.6l4.179-2.786A1.508,1.508,0,0,1,16.625,12h9.125a1.508,1.508,0,0,1,.843.255l4.179,2.786h2.582a1.521,1.521,0,0,1,0,3.042Z" transform="translate(-7.5 -12)" fill="#fff"/>
            </g>
          </g>
          <g id="Group_48" data-name="Group 48" transform="translate(6.084 60.831)">
            <path id="Path_56" data-name="Path 56" d="M30.812,32.166a1.521,1.521,0,0,1-1.521-1.521c0-4.213-4.991-7.6-9.125-7.6s-9.125,3.391-9.125,7.6a1.521,1.521,0,0,1-3.042,0C8,24.553,14.424,20,20.166,20s12.166,4.553,12.166,10.645A1.521,1.521,0,0,1,30.812,32.166Z" transform="translate(-8 -20)" fill="#fff"/>
          </g>
          <g id="Group_49" data-name="Group 49" transform="translate(0.001 30.415)">
            <path id="Path_57" data-name="Path 57" d="M16.645,20.645a1.521,1.521,0,0,1-1.521-1.521c0-2.99-2.844-6.083-7.6-6.083a1.521,1.521,0,1,1,0-3.042c5.967,0,10.645,4.009,10.645,9.125A1.521,1.521,0,0,1,16.645,20.645Z" transform="translate(-6 -10)" fill="#fff"/>
          </g>
          <g id="Group_50" data-name="Group 50" transform="translate(24.333 30.415)">
            <path id="Path_58" data-name="Path 58" d="M15.521,20.645A1.521,1.521,0,0,1,14,19.125C14,14.009,18.678,10,24.645,10a1.521,1.521,0,0,1,0,3.042c-4.76,0-7.6,3.093-7.6,6.083A1.521,1.521,0,0,1,15.521,20.645Z" transform="translate(-14 -10)" fill="#fff"/>
          </g>
          <g id="Group_51" data-name="Group 51" transform="translate(0 33.454)">
            <path id="Path_59" data-name="Path 59" d="M31.853,26.21a1.5,1.5,0,0,1-.678-.161l-5.764-2.88H23.088l-5.764,2.88a1.515,1.515,0,0,1-1.895-.447L6.3,13.435A1.521,1.521,0,0,1,8.738,11.61L17.1,22.76l4.949-2.473a1.5,1.5,0,0,1,.678-.161H25.77a1.517,1.517,0,0,1,.681.161L31.4,22.76l8.361-11.15a1.521,1.521,0,0,1,2.433,1.825L33.07,25.6A1.515,1.515,0,0,1,31.853,26.21Z" transform="translate(-6 -10.999)" fill="#fff"/>
          </g>
        </g>
        <g id="Group_53" data-name="Group 53" transform="translate(0 45.623)">
          <path id="Path_60" data-name="Path 60" d="M71.477,42.374H1.522A1.522,1.522,0,0,1,.028,40.555L2.486,28.264A7.562,7.562,0,0,1,6.54,22.954l3.422-1.712a1.523,1.523,0,0,1,1.755.286l.776.776,15.77-7.166a1.532,1.532,0,0,1,1.706.31l2.6,2.594h7.865l2.6-2.6a1.532,1.532,0,0,1,1.706-.31L60.506,22.3l.776-.776a1.513,1.513,0,0,1,1.755-.286l3.422,1.712a7.542,7.542,0,0,1,4.054,5.311l2.458,12.291a1.526,1.526,0,0,1-1.493,1.822Zm-68.1-3.042H69.622L67.529,28.86A4.527,4.527,0,0,0,65.1,25.676l-2.442-1.22-.745.745a1.52,1.52,0,0,1-1.706.31l-15.77-7.166-2.3,2.3a1.529,1.529,0,0,1-1.074.441H31.937a1.532,1.532,0,0,1-1.077-.444l-2.3-2.3-15.77,7.166a1.519,1.519,0,0,1-1.706-.31l-.745-.745L7.906,25.676A4.533,4.533,0,0,0,5.473,28.86Z" transform="translate(0.001 -15)" fill="#fff"/>
        </g>
      </g>
      <g id="Group_55" data-name="Group 55" transform="translate(10.647 53.225)">
        <path id="Path_61" data-name="Path 61" d="M9.583,37.271a1.521,1.521,0,0,1-1.466-1.122L3.555,19.42a1.521,1.521,0,1,1,2.935-.8l4.562,16.728a1.52,1.52,0,0,1-1.068,1.868A1.433,1.433,0,0,1,9.583,37.271Z" transform="translate(-3.5 -17.499)" fill="#fff"/>
      </g>
      <g id="Group_56" data-name="Group 56" transform="translate(54.747 53.224)">
        <path id="Path_62" data-name="Path 62" d="M19.523,37.272a1.4,1.4,0,0,1-.4-.055,1.52,1.52,0,0,1-1.068-1.868l4.562-16.728a1.521,1.521,0,0,1,2.935.8L20.989,36.149A1.518,1.518,0,0,1,19.523,37.272Z" transform="translate(-17.999 -17.499)" fill="#fff"/>
      </g>
    </g>
  </g>
</svg>
