<svg id="noun_Harry_Potter_213813" data-name="noun_Harry Potter_213813" xmlns="http://www.w3.org/2000/svg" width="76" height="76" viewBox="0 0 76 76">
  <g id="Group_41" data-name="Group 41">
    <g id="Group_32" data-name="Group 32" transform="translate(15.833)">
      <path id="Path_42" data-name="Path 42" d="M27.167,53.833c-7.8,0-14.725-6.3-17.6-15.836C6.947,37.845,5,34.494,5,30.083A13.232,13.232,0,0,1,5.481,26.5,21.311,21.311,0,0,1,5,22.167a22.167,22.167,0,1,1,44.333,0,21.311,21.311,0,0,1-.481,4.332,13.231,13.231,0,0,1,.481,3.585c0,4.411-1.947,7.761-4.563,7.914C41.892,47.532,34.966,53.833,27.167,53.833ZM10.678,34.57a1.484,1.484,0,0,1,.554.1,1.6,1.6,0,0,1,.991,1.051c2.213,8.94,8.221,14.944,14.943,14.944s12.73-6,14.944-14.944a1.582,1.582,0,0,1,2.375-.959c.557.1,1.681-1.606,1.681-4.68a9.6,9.6,0,0,0-.453-3.011,1.606,1.606,0,0,1-.044-.839,18.707,18.707,0,0,0,.5-4.066,19,19,0,0,0-38,0,18.885,18.885,0,0,0,.494,4.066,1.545,1.545,0,0,1-.044.839,9.7,9.7,0,0,0-.45,3.011c0,3.065,1.191,4.75,1.583,4.75A1.763,1.763,0,0,1,10.678,34.57Z" transform="translate(-5)" fill="#fff"/>
    </g>
    <g id="Group_33" data-name="Group 33" transform="translate(0 49.731)">
      <path id="Path_43" data-name="Path 43" d="M74.417,41.974H1.583A1.584,1.584,0,0,1,0,40.39V38.066a20.6,20.6,0,0,1,13.822-19.44l8.145-2.834a1.587,1.587,0,0,1,1.688.424c.991,1.083,2.052,2.41,3.173,3.813,3.306,4.133,7.416,9.278,11.172,9.278s7.866-5.146,11.169-9.278c1.121-1.4,2.179-2.726,3.173-3.813a1.587,1.587,0,0,1,1.688-.424l8.145,2.834A20.591,20.591,0,0,1,76,38.066V40.39A1.584,1.584,0,0,1,74.417,41.974ZM3.167,38.807H72.833v-.741A17.433,17.433,0,0,0,61.139,21.615l-7.144-2.486c-.747.871-1.533,1.852-2.35,2.875C47.722,26.913,43.276,32.474,38,32.474S28.278,26.913,24.355,22c-.817-1.023-1.6-2-2.35-2.875l-7.144,2.486A17.43,17.43,0,0,0,3.167,38.066Z" transform="translate(0 -15.704)" fill="#fff"/>
    </g>
    <g id="Group_34" data-name="Group 34" transform="translate(16.365 9.5)">
      <path id="Path_44" data-name="Path 44" d="M42.636,22a1.584,1.584,0,0,1-1.447-.941,23.347,23.347,0,0,1-1.6-5.44c-6.64-.431-13.512-3.683-16.923-7.055A6.449,6.449,0,0,1,21.6,9.941c-2.536,2.53-6.574,2.562-8.635,2.559-.462,1.061-.659,4.506-.418,7.8a1.589,1.589,0,0,1-.5,1.276,1.571,1.571,0,0,1-1.314.4,32.007,32.007,0,0,0-3.98-.326,1.583,1.583,0,1,1,0-3.167c.858,0,1.77.063,2.54.133-.092-2.863.054-6.957,1.472-8.48a2.823,2.823,0,0,1,2.226-.808c1.906,0,4.839-.1,6.381-1.637a4.155,4.155,0,0,0,1.1-3.113,1.583,1.583,0,0,1,3.167,0c.184,1.59,8.122,7.917,17.417,7.917a1.584,1.584,0,0,1,1.583,1.583,15.054,15.054,0,0,0,1.039,4.661l3.049-.25a1.584,1.584,0,0,1,.26,3.157L42.766,22C42.721,22,42.68,22,42.636,22Z" transform="translate(-5.168 -3)" fill="#fff"/>
    </g>
    <g id="Group_35" data-name="Group 35" transform="translate(25.333 25.333)">
      <path id="Path_45" data-name="Path 45" d="M13.542,19.083a5.542,5.542,0,1,1,5.542-5.542A5.548,5.548,0,0,1,13.542,19.083Zm0-7.917a2.375,2.375,0,1,0,2.375,2.375A2.378,2.378,0,0,0,13.542,11.167Z" transform="translate(-8 -8)" fill="#fff"/>
    </g>
    <g id="Group_36" data-name="Group 36" transform="translate(39.583 25.333)">
      <path id="Path_46" data-name="Path 46" d="M18.042,19.083a5.542,5.542,0,1,1,5.542-5.542A5.548,5.548,0,0,1,18.042,19.083Zm0-7.917a2.375,2.375,0,1,0,2.375,2.375A2.378,2.378,0,0,0,18.042,11.167Z" transform="translate(-12.5 -8)" fill="#fff"/>
    </g>
    <g id="Group_37" data-name="Group 37" transform="translate(33.251 28.5)">
      <path id="Path_47" data-name="Path 47" d="M18.416,12.958a1.562,1.562,0,0,1-.785-.209,5.533,5.533,0,0,0-2.381-.583,5.5,5.5,0,0,0-2.391.589A1.582,1.582,0,0,1,11.3,10a8.293,8.293,0,0,1,7.9,0,1.582,1.582,0,0,1-.785,2.958Z" transform="translate(-10.5 -9)" fill="#fff"/>
    </g>
    <g id="Group_38" data-name="Group 38" transform="translate(26.917 15.834)">
      <path id="Path_48" data-name="Path 48" d="M10.083,14.5a1.583,1.583,0,0,1-1.415-2.293L10.251,9.04a1.586,1.586,0,0,1,1.415-.874h2.188L15,5.873a1.584,1.584,0,1,1,2.834,1.416l-1.583,3.167a1.583,1.583,0,0,1-1.415.877H12.645L11.5,13.625A1.583,1.583,0,0,1,10.083,14.5Z" transform="translate(-8.5 -5)" fill="#fff"/>
    </g>
    <g id="Group_39" data-name="Group 39" transform="translate(20.584 25.334)">
      <path id="Path_49" data-name="Path 49" d="M12.833,14.333a1.566,1.566,0,0,1-.877-.266L7.206,10.9A1.583,1.583,0,0,1,8.96,8.266l4.75,3.167a1.583,1.583,0,0,1-.877,2.9Z" transform="translate(-6.5 -8)" fill="#fff"/>
    </g>
    <g id="Group_40" data-name="Group 40" transform="translate(47.5 25.333)">
      <path id="Path_50" data-name="Path 50" d="M16.583,14.334a1.583,1.583,0,0,1-.877-2.9l4.75-3.167A1.583,1.583,0,1,1,22.21,10.9l-4.75,3.167A1.566,1.566,0,0,1,16.583,14.334Z" transform="translate(-15 -8)" fill="#fff"/>
    </g>
  </g>
</svg>
