<svg xmlns="http://www.w3.org/2000/svg" width="76" height="75.997" viewBox="0 0 76 75.997">
  <g id="noun_Darth_Vader_213778" data-name="noun_Darth Vader_213778" transform="translate(0)">
    <g id="Group_31" data-name="Group 31" transform="translate(0)">
      <g id="Group_18" data-name="Group 18" transform="translate(12.667 14.249)">
        <path id="Path_29" data-name="Path 29" d="M5.583,31.415a1.583,1.583,0,0,1-1.466-2.182C5.805,25.1,14.64,4.5,23,4.5a9.426,9.426,0,0,1,4.047.966,5.4,5.4,0,0,0,2.286.617,1.583,1.583,0,0,1,0,3.167,8.324,8.324,0,0,1-3.547-.877A6.352,6.352,0,0,0,23,7.667c-4.591,0-12.09,13.312-15.95,22.764A1.582,1.582,0,0,1,5.583,31.415Z" transform="translate(-4 -4.5)" fill="#fff"/>
      </g>
      <g id="Group_19" data-name="Group 19" transform="translate(26.916 28.534)">
        <path id="Path_30" data-name="Path 30" d="M29.083,24.809h-19a1.583,1.583,0,0,1-1.267-2.533l9.5-12.666a1.64,1.64,0,0,1,2.533,0l9.5,12.666a1.584,1.584,0,0,1-1.267,2.533ZM13.25,21.642H25.916L19.583,13.2Z" transform="translate(-8.5 -9.011)" fill="#fff"/>
      </g>
      <g id="Group_20" data-name="Group 20" transform="translate(36.416 14.249)">
        <path id="Path_31" data-name="Path 31" d="M36.832,31.415a1.582,1.582,0,0,1-1.466-.985c-3.6-8.8-11.1-22.764-15.95-22.764a6.352,6.352,0,0,0-2.787.706,8.324,8.324,0,0,1-3.547.877,1.583,1.583,0,0,1,0-3.167,5.4,5.4,0,0,0,2.286-.617A9.426,9.426,0,0,1,19.416,4.5c8.36,0,17.194,20.6,18.882,24.734a1.583,1.583,0,0,1-1.466,2.182Z" transform="translate(-11.5 -4.5)" fill="#fff"/>
      </g>
      <g id="Group_21" data-name="Group 21" transform="translate(33.25 36.415)">
        <path id="Path_32" data-name="Path 32" d="M10.5,11.5" transform="translate(-10.5 -11.5)" fill="none" stroke="#000" stroke-linecap="round" stroke-linejoin="round" stroke-miterlimit="10" stroke-width="1"/>
      </g>
      <g id="Group_22" data-name="Group 22" transform="translate(31.666)">
        <path id="Path_33" data-name="Path 33" d="M16.333,12.666A6.339,6.339,0,0,1,10,6.333V1.583A1.584,1.584,0,0,1,11.583,0h9.5a1.584,1.584,0,0,1,1.583,1.583v4.75A6.339,6.339,0,0,1,16.333,12.666Zm-3.167-9.5V6.333a3.167,3.167,0,1,0,6.333,0V3.167Z" transform="translate(-10)" fill="#fff"/>
      </g>
      <g id="Group_23" data-name="Group 23" transform="translate(0 45.913)">
        <path id="Path_34" data-name="Path 34" d="M74.414,44.583H1.584A1.583,1.583,0,0,1,.083,42.5l6.333-19a1.566,1.566,0,0,1,.893-.959l19-7.916a1.583,1.583,0,0,1,1.219,2.923L9.193,25.185,3.782,41.416H72.217L66.808,25.185,48.474,17.544a1.583,1.583,0,1,1,1.219-2.923l19,7.916a1.592,1.592,0,0,1,.893.959l6.333,19a1.583,1.583,0,0,1-1.5,2.087Z" transform="translate(0 -14.5)" fill="#fff"/>
      </g>
      <g id="Group_24" data-name="Group 24" transform="translate(12.665)">
        <path id="Path_35" data-name="Path 35" d="M40.416,49.081a1.583,1.583,0,0,1-.427-3.106c6.837-1.932,10.218-5.345,11.333-6.681l-6.07-18.211a1.5,1.5,0,0,1-.085-.5V14.249c0-7.644-9.259-11.083-15.833-11.083S13.5,6.605,13.5,14.249v6.333a1.578,1.578,0,0,1-.082.5L7.348,39.293c1.108,1.33,4.49,4.747,11.333,6.681a1.583,1.583,0,1,1-.861,3.046c-9.854-2.783-13.432-8.366-13.581-8.6a1.583,1.583,0,0,1-.158-1.339l6.254-18.755V14.249C10.335,4.994,20.122,0,29.334,0s19,4.994,19,14.249v6.077l6.251,18.755a1.585,1.585,0,0,1-.158,1.339c-.149.237-3.727,5.817-13.581,8.6A1.532,1.532,0,0,1,40.416,49.081Z" transform="translate(-3.999)" fill="#fff"/>
      </g>
      <g id="Group_25" data-name="Group 25" transform="translate(25.334 28.499)">
        <path id="Path_36" data-name="Path 36" d="M30.165,24.832a1.5,1.5,0,0,1-.263-.022,1.582,1.582,0,0,1-1.3-1.821l1.352-8.106-9.287-2.654-9.291,2.654,1.352,8.106a1.583,1.583,0,0,1-3.122.519l-1.583-9.5a1.584,1.584,0,0,1,1.127-1.783L20.232,9.06a1.615,1.615,0,0,1,.868,0l11.083,3.167a1.584,1.584,0,0,1,1.127,1.783l-1.583,9.5A1.58,1.58,0,0,1,30.165,24.832Z" transform="translate(-8 -9)" fill="#fff"/>
      </g>
      <g id="Group_26" data-name="Group 26" transform="translate(19 60.164)">
        <path id="Path_37" data-name="Path 37" d="M39.248,34.833a1.584,1.584,0,0,1-1.583-1.583V22.167H9.167V33.249a1.583,1.583,0,1,1-3.167,0V20.583A1.584,1.584,0,0,1,7.583,19H39.248a1.584,1.584,0,0,1,1.583,1.583V33.249A1.584,1.584,0,0,1,39.248,34.833Z" transform="translate(-6 -19)" fill="#fff"/>
      </g>
      <g id="Group_27" data-name="Group 27" transform="translate(25.333 66.497)">
        <path id="Path_38" data-name="Path 38" d="M15.916,24.167H9.583a1.583,1.583,0,1,1,0-3.167h6.333a1.583,1.583,0,1,1,0,3.167Z" transform="translate(-8 -21)" fill="#fff"/>
      </g>
      <g id="Group_28" data-name="Group 28" transform="translate(37.999 66.497)">
        <path id="Path_39" data-name="Path 39" d="M19.916,24.167H13.583a1.583,1.583,0,0,1,0-3.167h6.333a1.583,1.583,0,1,1,0,3.167Z" transform="translate(-12 -21)" fill="#fff"/>
      </g>
      <g id="Group_29" data-name="Group 29" transform="translate(26.917 20.582)">
        <path id="Path_40" data-name="Path 40" d="M16.416,11.25H10.083a1.584,1.584,0,0,1-1.3-2.479A5.621,5.621,0,0,1,13.249,6.5a5.8,5.8,0,0,1,4.433,2.217,1.584,1.584,0,0,1-1.267,2.533Z" transform="translate(-8.5 -6.5)" fill="#fff"/>
      </g>
      <g id="Group_30" data-name="Group 30" transform="translate(39.582 20.582)">
        <path id="Path_41" data-name="Path 41" d="M20.417,11.25H14.084a1.583,1.583,0,0,1-1.267-2.533A5.8,5.8,0,0,1,17.25,6.5a5.621,5.621,0,0,1,4.471,2.27,1.584,1.584,0,0,1-1.3,2.479Z" transform="translate(-12.5 -6.5)" fill="#fff"/>
      </g>
    </g>
  </g>
</svg>
