<svg xmlns="http://www.w3.org/2000/svg" viewBox="0 0 73.85 73.6"><defs><style>.cls-1{fill:#fff;}</style></defs><title>pm</title><g id="Layer_2" data-name="Layer 2"><g id="Layer_1-2" data-name="Layer 1"><path class="cls-1" d="M58.48,49.89l-3-48.48A1.42,1.42,0,0,0,54.85.32a1.51,1.51,0,0,0-2,.1L47.64,5.5a23.24,23.24,0,0,0-21.44,0L21,.42A1.47,1.47,0,0,0,20.23,0a1.5,1.5,0,0,0-1.85,1.37l-3,48.48C-.12,58.58-.24,68.82.07,71.67a1.45,1.45,0,0,0,0,.8A1.48,1.48,0,0,0,1.5,73.6H72.34a1.5,1.5,0,0,0,1.46-1.13,1.45,1.45,0,0,0,0-.8C74.09,68.82,74,58.58,58.48,49.89ZM70.84,70.6H3c0-3,1.16-11.24,14.51-18.48a1.52,1.52,0,0,0,.79-1.23L21.18,4.81l3.74,3.63a1.51,1.51,0,0,0,1.87.18A20.2,20.2,0,0,1,36.92,5.88,20.45,20.45,0,0,1,47.06,8.62a1.49,1.49,0,0,0,1.86-.18l3.75-3.63,2.87,46.08a1.51,1.51,0,0,0,.78,1.23C69.68,59.36,70.89,67.61,70.84,70.6Z"/><path class="cls-1" d="M40,39.85H33.83a1.55,1.55,0,0,0,0,3.09H40a1.55,1.55,0,0,0,0-3.09Z"/><path class="cls-1" d="M49.2,31.77a1.57,1.57,0,0,0-.73-1,1.5,1.5,0,0,0-1.19-.15l-10.37,3-10.37-3a1.55,1.55,0,0,0-1.19.15,1.57,1.57,0,0,0-.73,1L21.54,44.1a1.55,1.55,0,0,0,.64,1.66l9.25,6.17a1.52,1.52,0,0,0,.86.25h9.24a1.52,1.52,0,0,0,.86-.25l9.25-6.17a1.54,1.54,0,0,0,.64-1.66ZM41.07,49.1H32.75l-8-5.3,2.44-9.73,9.25,2.64a1.75,1.75,0,0,0,.85,0l9.26-2.65L49,43.8Z"/><path class="cls-1" d="M41.53,27.52h3.09A1.54,1.54,0,0,0,46.16,26a1.37,1.37,0,0,0-.1-.54l2.33-1.16A1.54,1.54,0,0,0,47,21.52L40.84,24.6a1.54,1.54,0,0,0,.69,2.92Z"/><path class="cls-1" d="M25.43,24.27l2.23,1.12V26a1.54,1.54,0,0,0,1.54,1.54h3.09A1.54,1.54,0,0,0,33,24.6l-3-1.53-.06,0-3.05-1.52a1.54,1.54,0,1,0-1.38,2.75Z"/></g></g></svg>