<svg id="polaris-logo-final" xmlns="http://www.w3.org/2000/svg" width="257.446" height="257.447" viewBox="0 0 257.446 257.447">
  <circle id="Ellipse_7" data-name="Ellipse 7" cx="128.723" cy="128.723" r="128.723" fill="#686ac6"/>
  <path id="Path_35" data-name="Path 35" d="M102.545,30.663,94.368,65.494,129.5,57.922,135.862,24ZM65.291,95.176,30.46,102.748,24.1,136.065l33.317-6.36Z" transform="translate(48.894 48.691)" fill="#d7dae3"/>
  <path id="Path_36" data-name="Path 36" d="M111.479,8.5V68.773L98.758,98.758,68.47,111.479H8.5L62.109,89.066l-6.36-33.317,33.317,6.36Z" transform="translate(17.245 17.245)" fill="#d7dae3"/>
  <path id="Path_37" data-name="Path 37" d="M111.479,85.509v59.97L89.066,91.869,80.888,73.091,62.109,65.216,8.5,42.5H68.47L98.758,55.221Z" transform="translate(17.245 86.223)" fill="#fff"/>
  <path id="Path_38" data-name="Path 38" d="M91.869,65.216,98.23,98.23l-33.014-6.36L42.5,145.479V85.509L55.221,55.221,85.509,42.5h59.97Z" transform="translate(86.223 86.223)" fill="#d7dae3"/>
  <path id="Path_39" data-name="Path 39" d="M145.479,111.479H85.509L55.221,98.758,42.5,68.773V8.5L65.216,62.109l7.875,18.778,18.778,8.178Z" transform="translate(86.223 17.245)" fill="#fff"/>
</svg>
