<svg xmlns="http://www.w3.org/2000/svg" viewBox="0 0 85.039 85.039"><defs><style>.cls-1{fill:#fff;}.cls-2{fill:#686ac6;}.cls-3{fill:#8688d1;}</style></defs><title>polaris-logo-invertiert_Zeichenfläche 1 Kopie 15</title><g id="Ebene_1" data-name="Ebene 1"><circle class="cls-1" cx="42.52" cy="42.52" r="42.52"/></g><g id="Ebene_4" data-name="Ebene 4"><path class="cls-2" d="M49.973,26.21l2.62,6.23,6.23,2.62,2.12-10.97ZM32.443,52.6l-6.23-2.62-2.12,10.96,10.97-2.11Z"/><polygon class="cls-2" points="42.523 8.5 42.523 28.35 38.323 38.32 28.343 42.52 8.503 42.52 26.213 35.06 24.093 24.09 35.063 26.21 42.523 8.5"/><polygon class="cls-3" points="42.523 56.69 42.523 76.54 35.063 58.83 32.443 52.6 26.213 49.98 8.503 42.52 28.343 42.52 38.323 46.72 42.523 56.69"/><polygon class="cls-2" points="58.823 49.98 60.943 60.94 49.973 58.83 42.523 76.54 42.523 56.69 46.723 46.72 56.693 42.52 76.533 42.52 58.823 49.98"/><polygon class="cls-3" points="76.533 42.52 56.693 42.52 46.723 38.32 42.523 28.35 42.523 8.5 49.973 26.21 52.593 32.44 58.823 35.06 76.533 42.52"/></g></svg>