<svg id="Ebene_1" data-name="Ebene 1" xmlns="http://www.w3.org/2000/svg" viewBox="0 0 85.039 85.039"><defs><style>.cls-1,.cls-2,.cls-3,.cls-4{fill:#fff;}.cls-2{opacity:0.9;}.cls-2,.cls-3,.cls-4{isolation:isolate;}.cls-3{opacity:0.7;}.cls-4{opacity:0.6;}</style></defs><title>ppms-logo</title><path class="cls-1" d="M13.51,76.894c-.071.066,25.352-3.308,35.833-14.389,9.116-10.558,5.939-16.782,11.539-20.992,6.74-5.594,24.157,2.476,24.157,2.476s-12.031-5.612-19.632-7.863c-3.866-1.134-4.312-4.7-9.359-4.667-5.9,0-8.314,6.467-9.716,9.4-2.672,5.238-7.827,2.215-13.2-2.666,6.218,7.328,2.625,16.586.659,19.858C30.773,65.059,13.51,76.894,13.51,76.894Z"/><path class="cls-2" d="M44.616,45.943C30.69,39.9,16.836,20.508,14.7,8.144c0,0-4.62,16.693,1.633,30.055A48.445,48.445,0,0,0,33.956,58.087C40.993,56.169,44.117,52.19,44.616,45.943Z"/><path class="cls-3" d="M38.078,49.12C28.2,44.072,7.886,31.3,1.419,24.327c0,0,1.99,15.06,11.58,23.754A42.43,42.43,0,0,0,33.956,58.176C38.505,56.84,40.067,54.678,38.078,49.12Z"/><path class="cls-3" d="M38.862,51.056C29.954,51.412,6.889,46.364,0,43.241c0,0,6.039,10.374,15.63,13.854a33.879,33.879,0,0,0,18.326,1.063C37.579,57.731,41.944,54.393,38.862,51.056Z"/><path class="cls-4" d="M39.5,49.714c-5.826,4.329-26.925,8.023-34.028,8.023,0,0,7.317,5.546,15.2,5.119a24.811,24.811,0,0,0,13.284-4.692C37.436,57.167,42.056,51.27,39.5,49.714Z"/><path class="cls-4" d="M36.8,51.127C33.6,54.607,20.031,64.7,13.5,65.9c0,0,6.818,2.275,12.5-.071a20.018,20.018,0,0,0,8.6-6.96C36.658,55.955,39.64,51.5,36.8,51.127Z"/></svg>