<svg xmlns="http://www.w3.org/2000/svg" xmlns:xlink="http://www.w3.org/1999/xlink" width="371.226" height="300" viewBox="0 0 371.226 300">
  <defs>
    <clipPath id="clip-path">
      <path id="Path_34" data-name="Path 34" d="M173.285-382.76c-.352.328,110.577-14.382,156.31-62.751,39.73-46.06,25.838-73.23,50.3-91.572,29.376-24.434,105.408,10.829,105.408,10.829s-52.514-24.5-85.664-34.305c-16.914-4.947-18.82-20.535-40.814-20.35-25.734.054-36.315,28.208-42.344,41-11.622,22.875-34.169,9.63-57.593-11.61,27.133,31.989,11.428,72.353,2.9,86.623C248.539-434.386,173.285-382.76,173.285-382.76Z" transform="translate(-173.284 580.911)" fill="none"/>
    </clipPath>
    <clipPath id="clip-path-2">
      <path id="Path_33" data-name="Path 33" d="M0-593.988H370.012V-964H0Z" transform="translate(0 964)" fill="none"/>
    </clipPath>
    <clipPath id="clip-path-3">
      <path id="Path_37" data-name="Path 37" d="M304.468-714.091C243.716-740.487,183.3-825.051,173.983-879c0,0-20.137,72.862,7.143,131.1S258-661.094,258-661.094C288.685-669.462,302.291-686.81,304.468-714.091Z" transform="translate(-166.826 879)" fill="none"/>
    </clipPath>
    <clipPath id="clip-path-5">
      <path id="Path_40" data-name="Path 40" d="M178.063-563.939C135-585.913,46.354-641.767,18.12-672.109c0,0,8.708,65.719,50.548,103.545S160.1-524.548,160.1-524.548C179.9-530.467,186.772-539.787,178.063-563.939Z" transform="translate(-18.12 672.109)" fill="none"/>
    </clipPath>
    <clipPath id="clip-path-7">
      <path id="Path_43" data-name="Path 43" d="M169.536-396.686C130.825-395.121,30.07-417.164,0-430.77c0,0,26.328,45.241,68.168,60.412,41.84,14.9,79.938,4.626,79.938,4.626C163.957-367.569,182.87-382.127,169.536-396.686Z" transform="translate(0 430.77)" fill="none"/>
    </clipPath>
    <clipPath id="clip-path-9">
      <path id="Path_46" data-name="Path 46" d="M218.338-348.333C192.963-329.42,100.847-313.3,69.893-313.3c0,0,31.907,24.151,66.331,22.314,34.424-1.565,57.963-20.478,57.963-20.478C209.358-315.745,229.5-341.529,218.338-348.333Z" transform="translate(-69.893 348.333)" fill="none"/>
    </clipPath>
    <clipPath id="clip-path-11">
      <path id="Path_49" data-name="Path 49" d="M274.082-330.212c-13.947,15.171-73.134,59.188-101.64,64.494,0,0,29.73,9.933,54.562-.34A87.18,87.18,0,0,0,264.489-296.4C273.469-309.122,286.464-328.648,274.082-330.212Z" transform="translate(-172.442 330.212)" fill="none"/>
    </clipPath>
  </defs>
  <g id="Group_80" data-name="Group 80" transform="translate(0 879)">
    <g id="Group_69" data-name="Group 69" transform="translate(59.203 -777.156)" clip-path="url(#clip-path)">
      <g id="Group_68" data-name="Group 68" transform="translate(-59.203 -130.884)" clip-path="url(#clip-path-2)">
        <path id="Path_32" data-name="Path 32" d="M175.371-604.435l310.052,10.827-7.258,207.84L168.113-396.595Z" transform="translate(-110.676 727.282)" fill="#313d4d"/>
      </g>
    </g>
    <g id="Group_71" data-name="Group 71" transform="translate(56.997 -879)" clip-path="url(#clip-path-3)">
      <g id="Group_70" data-name="Group 70" transform="translate(-56.997 -29.041)" clip-path="url(#clip-path-2)">
        <path id="Path_35" data-name="Path 35" d="M161.826-884H302.885v221.323H161.826Z" transform="translate(-106.537 911.332)" fill="rgba(49,61,77,0.8)"/>
      </g>
    </g>
    <g id="Group_73" data-name="Group 73" transform="translate(6.191 -808.315)" clip-path="url(#clip-path-5)">
      <g id="Group_72" data-name="Group 72" transform="translate(-6.191 -99.726)" clip-path="url(#clip-path-2)">
        <path id="Path_38" data-name="Path 38" d="M13.12-677.109h167.07v150.978H13.12Z" transform="translate(-8.638 775.127)" fill="rgba(49,61,77,0.6)"/>
      </g>
    </g>
    <g id="Group_75" data-name="Group 75" transform="translate(0 -725.86)" clip-path="url(#clip-path-7)">
      <g id="Group_74" data-name="Group 74" transform="translate(0 -182.181)" clip-path="url(#clip-path-2)">
        <path id="Path_41" data-name="Path 41" d="M-5-435.77H172.469v71.907H-5Z" transform="translate(3.292 616.242)" fill="rgba(49,61,77,0.6)"/>
      </g>
    </g>
    <g id="Group_77" data-name="Group 77" transform="translate(23.879 -697.695)" clip-path="url(#clip-path-9)">
      <g id="Group_76" data-name="Group 76" transform="translate(-23.879 -210.346)" clip-path="url(#clip-path-2)">
        <path id="Path_44" data-name="Path 44" d="M64.893-353.333H219.984v60.867H64.893Z" transform="translate(-42.722 561.97)" fill="rgba(49,61,77,0.5)"/>
      </g>
    </g>
    <g id="Group_79" data-name="Group 79" transform="translate(58.916 -691.504)" clip-path="url(#clip-path-11)">
      <g id="Group_78" data-name="Group 78" transform="translate(-58.916 -216.537)" clip-path="url(#clip-path-2)">
        <path id="Path_47" data-name="Path 47" d="M167.442-335.212H277.586v72.226H167.442Z" transform="translate(-110.235 550.041)" fill="rgba(49,61,77,0.5)"/>
      </g>
    </g>
  </g>
</svg>
