<svg xmlns="http://www.w3.org/2000/svg" viewBox="0 0 71.99 75.95"><defs><style>.cls-1{fill:#fff;}</style></defs><title>product</title><g id="Layer_2" data-name="Layer 2"><g id="Layer_1-2" data-name="Layer 1"><path class="cls-1" d="M15,28.7c0,4.17,1.85,7.34,4.32,7.49l0,.11c.07,0,.13-.11.2-.15l.24-.14,2.32,10a1.29,1.29,0,0,0,.36.63c.7.67,6.75,6.39,11.08,6.39a4.93,4.93,0,0,0,.55,0,3.71,3.71,0,0,0,1.83-.74,3.63,3.63,0,0,0,1.83.74l.54,0c4.34,0,10.39-5.72,11.09-6.39a1.27,1.27,0,0,0,.35-.63l2.4-10.3.2.06h.84a4.09,4.09,0,0,1,1-.37c.19-.07.38-.12.56-.17C56.11,34,57,31.6,57,28.7c0-3.4-1.22-6.14-3-7.12,0-.09,0-.19,0-.28a19.79,19.79,0,0,0,1.18-3.43,4.2,4.2,0,0,0-.07-2.4,3.84,3.84,0,0,1-.17-.85,5.31,5.31,0,0,0-2.77-4.06,2.57,2.57,0,0,0-.79-.18C51,8.21,48.69-.62,37.21,0c-6.8.38-15.94,6.7-17.39,10.15-.05.14-.08.27-.12.4a5.36,5.36,0,0,0-2.74,4,3.34,3.34,0,0,1-.17.85,4.29,4.29,0,0,0-.07,2.4A20.65,20.65,0,0,0,18,21.53a.07.07,0,0,0,0,0C16.22,22.56,15,25.3,15,28.7ZM48.27,8.05a10.74,10.74,0,0,1,.84,2.64L48,12.27l-1.72,2.52c-2.15-.52-8.11-1.89-11.08-1.89h-.67a1.16,1.16,0,0,0-.46-.12,3,3,0,0,0-1.23.24c-3,.28-6.56.93-7.58,1.13a8.92,8.92,0,0,1-1.14-.45,7,7,0,0,1-.86-.45A3.39,3.39,0,0,1,22,12a1,1,0,0,1,0-.93c0-.07.08-.15.12-.23,1-1.91,5.43-5.35,10.08-7.22a16.59,16.59,0,0,1,5.19-1.29C44.13,2,47,5.38,48.27,8.05ZM50.94,22.1l-.4.73c-.39-1.52-.89-3.83-1.28-5.92a11.48,11.48,0,0,1,.49-1.7,6,6,0,0,1,1.5-2.42,3.15,3.15,0,0,1,1.3,2,5.71,5.71,0,0,0,.26,1.37,1.91,1.91,0,0,1,0,1.21A20.86,20.86,0,0,1,50.94,22.1Zm-29.84.22a20.68,20.68,0,0,1-2-4.95,1.84,1.84,0,0,1,0-1.21,6.26,6.26,0,0,0,.26-1.37,3,3,0,0,1,.69-1.46,6,6,0,0,0,2.13,1.95v0a12,12,0,0,1,.46,1.59c-.4,2.09-.89,4.4-1.28,5.92C21.29,22.67,21.19,22.5,21.1,22.32Zm-1.7,1.91a5.72,5.72,0,0,0,1.71,2,1.51,1.51,0,0,0,.64.16,1.4,1.4,0,0,0,.57-.13c.58-.28,1.14-.54,2.76-9.16l0-.24-.05-.23c0-.06,0-.11,0-.17l.16.05.27-.06S28,16,30.7,15.6c0,0,0,.08,0,.12a3.43,3.43,0,0,0-.08,1.67,3.6,3.6,0,0,0,1.44,2l.22.18.5.33a4.92,4.92,0,0,1,.91.69,1.45,1.45,0,0,1,.27,1.59A1.76,1.76,0,0,1,32.8,23a2.4,2.4,0,0,1-.88,0,1.14,1.14,0,0,0-.55-1.28.85.85,0,0,0-.17-.06,1.15,1.15,0,0,0-1.4.5,1.9,1.9,0,0,0,.07,2.2,3.24,3.24,0,0,0,2.57,1,4.12,4.12,0,0,0,.94-.1,4.06,4.06,0,0,0,2.54-1.83,3.77,3.77,0,0,0-.58-4.3A7.28,7.28,0,0,0,34,18l-.43-.29a2.08,2.08,0,0,1-.66-.65.47.47,0,0,1-.07-.17,1.23,1.23,0,0,1,.05-.58,2.07,2.07,0,0,1,.67-1l0,0v0c.61,0,1.18-.08,1.67-.08,3.29,0,11.21,2,11.29,2l.35.09c1.59,8.44,2.14,8.7,2.72,9a1.39,1.39,0,0,0,.56.13,1.44,1.44,0,0,0,.64-.16,5.64,5.64,0,0,0,1.72-2h0C53,24.37,54,25.94,54,28.7s-1.16,4.45-1.59,4.43A1.51,1.51,0,0,0,51.08,33a1.27,1.27,0,0,0-1.15,1L47.35,45.08c-2.49,2.35-7,5.68-9.29,5.42a1.24,1.24,0,0,1-1-.63,1.26,1.26,0,0,0-1.15-.59,1.29,1.29,0,0,0-1.16.59,1.21,1.21,0,0,1-1,.63c-2.28.29-6.79-3.07-9.29-5.42L21.92,34a1.25,1.25,0,0,0-1.13-1,1.45,1.45,0,0,0-.41-.06,1.7,1.7,0,0,0-.88.25c-.37,0-1.5-1.6-1.5-4.5C18,26,19,24.45,19.4,24.23Z"/><path class="cls-1" d="M37.51,40.37h-3a1.5,1.5,0,0,0,0,3h3a1.5,1.5,0,0,0,0-3Z"/><path class="cls-1" d="M27.81,35.38h.07a6.93,6.93,0,0,0,5.33-2.05A7.34,7.34,0,0,0,35,29.25c.22,0,.45,0,.7,0a9.72,9.72,0,0,0,1-.07,7.31,7.31,0,0,0,1.78,4.11,7,7,0,0,0,5.33,2.05h.07a6.18,6.18,0,0,0,5-2c1.93-2.28,1.41-5.61,1.39-5.75a1.11,1.11,0,0,0-.81-.89,28.75,28.75,0,0,0-6.42-.9,18.05,18.05,0,0,0-5.64.93s0,0,0,0a5.08,5.08,0,0,1-2.87,0l-.13-.07a18.05,18.05,0,0,0-5.64-.93,28.75,28.75,0,0,0-6.42.9,1.11,1.11,0,0,0-.81.89c0,.14-.54,3.47,1.39,5.75A6.19,6.19,0,0,0,27.81,35.38Zm-.69-7.27c.53-.05,1.06-.08,1.57-.08a16,16,0,0,1,4.13.57,6.39,6.39,0,0,1-.15,1,4.76,4.76,0,0,1-1.09,2.19,4.82,4.82,0,0,1-3.7,1.34h-.05a4.13,4.13,0,0,1-3.28-1.23,5.08,5.08,0,0,1-.95-3.26A31.59,31.59,0,0,1,27.12,28.11Zm16.76,5a5,5,0,0,1-3.75-1.33,5.42,5.42,0,0,1-1.26-3.23l.15,0A16.15,16.15,0,0,1,43,28a17.25,17.25,0,0,1,1.89.11,32,32,0,0,1,3.2.53,5,5,0,0,1-1,3.25A4.08,4.08,0,0,1,43.88,33.16Z"/><path class="cls-1" d="M58.89,53.83l-7.71-2.68a1.49,1.49,0,0,0-1.6.4A18.51,18.51,0,0,1,36,58a18.5,18.5,0,0,1-13.58-6.4,1.5,1.5,0,0,0-1.6-.4l-7.72,2.68A19.5,19.5,0,0,0,0,72.24v2.21A1.5,1.5,0,0,0,1.5,76h69a1.51,1.51,0,0,0,1.5-1.5V72.24A19.5,19.5,0,0,0,58.89,53.83Zm-2.46,12,1.82,2.94-3.9,3.46-.89-15.62,4.75,4.93-1.8,3.11A1.12,1.12,0,0,0,56.43,65.81Zm-40-1.18-1.8-3.11,4.74-4.93-.89,15.62-3.9-3.46,1.83-2.94A1.16,1.16,0,0,0,16.42,64.63ZM3,73v-.71A16.52,16.52,0,0,1,14.08,56.66l3-1.06-4.76,4.95a1.14,1.14,0,0,0-.17,1.37l1.89,3.27-2,3.17a1.15,1.15,0,0,0,.21,1.47L15.83,73Zm26.07-1.52a12.14,12.14,0,0,0,4.17,0c3-.28,6.72-.63,8.4,1.5H30.39ZM46.89,67,43.6,71.06c-.1-.12-.19-.24-.3-.35-2.66-2.68-7.19-2.26-10.31-2a13,13,0,0,1-3.16.09,1.5,1.5,0,0,1,.15-.94,5.61,5.61,0,0,1,5-3.22c3.76,0,5,2.53,5.07,2.63a1.37,1.37,0,0,0,1.24.79h2.49a1.35,1.35,0,0,0,1-.41,1.33,1.33,0,0,0,.39-1c0-.47,0-1,0-1.45Zm-4.45-1.61h-.35a8,8,0,0,0-1.2-1.32h1.55C42.43,64.33,42.43,64.74,42.44,65.37Zm-15,1.5a4.26,4.26,0,0,0-.3,2.36l-1.66-1.89,2.74-3.29h1.3A7.59,7.59,0,0,0,27.45,66.87ZM48.17,73H45l3.77-4.69.52-.64a1.16,1.16,0,0,0-.08-1.54L49.12,66l-3.87-3.88a1.18,1.18,0,0,0-.81-.33H27.7a1.16,1.16,0,0,0-.89.41l-3.72,4.46a1.16,1.16,0,0,0,0,1.5L27.34,73h-6.6l.74-13,.27-4.82A21,21,0,0,0,36,61a21.1,21.1,0,0,0,14.66-6.22l.38-.36L52.09,73ZM69,73H57l3.51-3.12a1.16,1.16,0,0,0,.22-1.47l-2-3.17,1.89-3.27a1.15,1.15,0,0,0-.16-1.37L56.12,56l1.79.62A16.52,16.52,0,0,1,69,72.24Z"/></g></g></svg>