<?xml version="1.0" encoding="utf-8"?>
<!-- Generator: Adobe Illustrator 23.0.4, SVG Export Plug-In . SVG Version: 6.00 Build 0)  -->
<svg version="1.1" id="Layer_1" xmlns="http://www.w3.org/2000/svg" xmlns:xlink="http://www.w3.org/1999/xlink" x="0px" y="0px"
	 viewBox="0 0 17.7 17.7" style="enable-background:new 0 0 17.7 17.7;" xml:space="preserve">
<style type="text/css">
	.st0{fill:none;}
	.st1{enable-background:new    ;}
	.st2{fill:#FFFFFF;}
</style>
<title>right</title>
<g>
	<g id="Layer_1-2">
		<rect y="0" class="st0" width="17.7" height="17.7"/>
		<g class="st1">
			<path class="st2" d="M6.6,2C6.7,2,6.8,1.9,6.9,1.9S7.1,2,7.2,2l6.5,6.6c0.1,0.1,0.1,0.1,0.1,0.2s0,0.2-0.1,0.2l-6.5,6.6
				c-0.1,0.1-0.2,0.1-0.3,0.1s-0.2,0-0.2-0.1L6,15c-0.1-0.1-0.1-0.1-0.1-0.2s0-0.2,0.1-0.3l5.7-5.7L6,3.2C5.9,3.1,5.9,3,5.9,2.9
				s0-0.2,0.1-0.2L6.6,2z"/>
		</g>
	</g>
</g>
</svg>
