<?xml version="1.0" encoding="utf-8"?>
<!-- Generator: Adobe Illustrator 23.0.3, SVG Export Plug-In . SVG Version: 6.00 Build 0)  -->
<svg version="1.1" id="Layer_1" xmlns="http://www.w3.org/2000/svg" xmlns:xlink="http://www.w3.org/1999/xlink" x="0px" y="0px"
	 viewBox="0 0 237 100" style="enable-background:new 0 0 237 100;" xml:space="preserve">
<style type="text/css">
	.st0{fill-rule:evenodd;clip-rule:evenodd;fill:#4B4B4B;}
	.st1{filter:url(#Adobe_OpacityMaskFilter);}
	.st2{fill-rule:evenodd;clip-rule:evenodd;fill:#FFFFFF;}
	.st3{mask:url(#mask-2_1_);fill-rule:evenodd;clip-rule:evenodd;fill:#4B4B4B;}
	.st4{fill-rule:evenodd;clip-rule:evenodd;fill:#5EB8E8;}
</style>
<title>Group 2</title>
<desc>Created with Sketch.</desc>
<g id="header" transform="translate(-587.000000, -442.000000)">
	<g id="Group-2" transform="translate(587.000000, 442.000000)">
		<g id="Group" transform="translate(0.000000, 41.000000)">
			<path id="Fill-1" class="st0" d="M102,22.4c-0.1,2.2-0.8,4.2-2.6,5.6c-1.2,0.9-2.5,1.3-3.9,1.4c-4.8,0.1-9.6,0.1-14.4,0.1
				c-0.7,0-0.9-0.4-0.9-1c0-3.3,0-6.7,0-10c0-3.3,0-6.6,0-9.8c0-0.9,0.3-1.2,1.1-1.2c4.5,0,8.9,0,13.4,0.1c1.8,0,3.5,0.5,5,1.6
				c1.5,1.1,2.2,2.6,2.3,4.3C102.1,16.4,102.1,19.4,102,22.4 M106,44c-1.2-2.7-2.5-5.4-3.7-8.1c-0.2-0.6-0.1-1,0.5-1.3
				c3.9-2,6.1-5.4,6.7-9.7c0.8-4.8,0.7-9.6,0.1-14.4c-0.4-2.9-1.7-5.4-3.9-7.2c-3-2.4-6.5-3.1-10.2-3.2C88.1-0.1,80.8,0,73.4,0
				c-0.8,0-1.2,0.3-1.1,1.1c0,0.3,0,0.5,0,0.8v55.4c0,0.3,0,0.5,0,0.8c-0.1,0.7,0.3,0.9,0.9,0.9c2,0,3.9,0,5.9,0
				c0.8,0,1.1-0.3,1.1-1.1c0-2.6,0-5.1,0-7.7c0-4.2,0-8.3,0-12.5c0-0.7,0-1.2,0.9-1.2c3.9,0,7.8,0,11.7,0c0.4,0,1,0.4,1.2,0.8
				c1.6,3.3,3.1,6.7,4.6,10c1.6,3.6,3.2,7.2,4.8,10.8c0.2,0.5,0.6,0.9,1.2,0.9c2.3,0,4.5,0,6.8,0c0.3,0,0.5-0.1,1-0.1
				c-1-2.2-1.9-4.2-2.8-6.3C108.4,49.7,107.2,46.9,106,44"/>
			<path id="Fill-3" class="st0" d="M184.8,1.7c0-0.3,0-0.6,0-0.9c0-0.5-0.2-0.7-0.8-0.7c-2.1,0-6.9,2.9-6.9,3.3
				c0,12.5,0,23.4,0,35.9c0,1.1,0,2.3-0.1,3.4c-0.1,1.6-0.6,3.2-1.4,4.6c-1.6,2.8-4.2,4-7.1,4.4c-3.6,0.5-7.3,0.6-10.8-1
				c-2.1-0.9-3.6-2.4-4.5-4.6c-0.8-2-1-4.1-1-6.3c0-12.6,0-25.2,0-37.8c0-0.3,0-0.6,0-0.9c0-0.7-0.2-1.1-1-1.1
				c-1.7,0-6.6,3.1-6.6,4.5c0,12.3,0,21.6,0,33.9c0,2.6,0.2,5.2,0.5,7.8c0.3,2.7,1.4,5.1,3.1,7.1c1.7,2,3.9,3.5,6.4,4.1
				c2.2,0.6,4.4,1.3,6.6,1.5c2.7,0.2,5.5-0.1,8.2-0.2c2.6-0.1,5.1-0.8,7.4-1.9c3.3-1.6,5.6-4.1,6.8-7.7c0.9-2.7,1.1-5.5,1.1-8.3
				c0-6.1,0-12.3,0-18.4C184.8,15.5,184.8,8.6,184.8,1.7"/>
			<path id="Fill-8" class="st0" d="M131.3,0c-1.9,0.1-6.8,3.3-6.8,3.6v46.3c0,2.6,0,5.2,0,7.8c0,1,0.3,1.3,1.3,1.2
				c1.8-0.1,3.5,0,5.3,0c1.4,0,1.4,0,1.4-1.5v-28v-6c0-7.4,0-14.9,0-22.3C132.6,0.2,132.3,0,131.3,0"/>
			<path id="Fill-10" class="st0" d="M59,15.8c-2,0.5-6.8,1.9-6.7,3.2c0,1.1,0,1.5,0,2.6c0,12.1,0,24.1,0,36.2
				c0,0.9,0.3,1.2,1.3,1.2c1.8-0.1,3.5,0,5.3,0c1.4,0,1.4,0,1.4-1.2c0-6.8,0-13.6,0-20.4c0-6.8,0-13.7,0-20.5
				C60.3,15.7,60.1,15.6,59,15.8"/>
			<path id="Fill-12" class="st0" d="M43.4,37.8c-0.2-1.4-0.8-2.8-1.5-4c-1.9-3.2-5.3-4.4-8.7-5.6c-1.5-0.5-3-0.9-4.5-1.4
				c-2.1-0.6-4.1-1.2-6.2-1.9c-2.4-0.9-4.8-1.8-7-2.9c-1.9-1-3.1-2.6-3.2-4.7c-0.1-1.5,0-2.9,0.1-4.4c0.2-1.8,1.2-3.1,2.8-4
				c2.1-1.2,4.5-1.6,6.9-1.6C26,7.2,30,7.7,33.7,8c2.5,0.2,8.7-6.3,7.9-6.4c-3.3-0.4-6.5-0.9-9.8-1.2c-2.8-0.2-5.5-0.3-8.3-0.2
				c-4.3,0-8.5,0.5-12.4,2.4c-4.1,2-6.3,5.2-7,9.4c-0.5,2.7-0.4,5.4,0,8.1c0.5,3.5,2.4,6.4,5.8,7.9c3.1,1.4,6.4,2.6,9.7,3.8
				c3.3,1.2,6.8,2.2,10.1,3.5c3,1.1,5.4,2.8,5.7,6.2c0.2,2.6,0.1,5.1-1.9,7.2c-1.7,1.7-4,2.2-6.3,2.6c-9.5,1.6-17.2-2.1-21.9-2.5
				c-0.9-0.1-5.1,4.6-5.4,6.5c16.3,4.6,23.4,3.4,26.9,3.2c2.7-0.1,5.7-1.1,8.2-2c4.8-1.9,7.5-5.3,8.4-9.9
				C44,43.6,43.9,40.7,43.4,37.8"/>
			<g id="Clip-13">
			</g>
			<defs>
				<filter id="Adobe_OpacityMaskFilter" filterUnits="userSpaceOnUse" x="192.8" y="0.2" width="43.8" height="58.4">
					<feColorMatrix  type="matrix" values="1 0 0 0 0  0 1 0 0 0  0 0 1 0 0  0 0 0 1 0"/>
				</filter>
			</defs>
			<mask maskUnits="userSpaceOnUse" x="192.8" y="0.2" width="43.8" height="58.4" id="mask-2_1_">
				<g class="st1">
					<polygon id="path-1_1_" class="st2" points="236.6,0.2 192.8,0.2 192.8,58.7 236.6,58.7 					"/>
				</g>
			</mask>
			<path class="st3" d="M236.2,37.8c-0.2-1.4-0.8-2.8-1.5-4c-1.9-3.2-5.3-4.4-8.7-5.6c-1.5-0.5-3-0.9-4.5-1.4
				c-2.1-0.6-4.1-1.2-6.2-1.9c-2.4-0.9-4.8-1.8-7-2.9c-1.9-1-3.1-2.6-3.2-4.7c-0.1-1.5,0-2.9,0.1-4.4c0.2-1.8,1.2-3.1,2.8-4
				c2.1-1.2,4.5-1.6,6.9-1.6c3.8,0,7.8,0.6,11.5,0.9c2.5,0.2,8.7-6.3,7.9-6.4c-3.3-0.4-6.5-0.9-9.8-1.2c-2.8-0.2-5.5-0.3-8.3-0.2
				c-4.3,0-8.5,0.5-12.4,2.4c-4.1,2-6.3,5.2-7,9.4c-0.5,2.7-0.4,5.4,0,8.1c0.5,3.5,2.4,6.4,5.8,7.9c3.1,1.4,6.4,2.6,9.7,3.8
				c3.3,1.2,6.8,2.2,10.1,3.5c3,1.1,5.4,2.8,5.7,6.2c0.2,2.6,0.1,5.1-1.9,7.2c-1.7,1.7-4,2.2-6.3,2.6c-9.5,1.6-17.2-2.1-21.9-2.5
				c-0.9-0.1-5.1,4.6-5.4,6.5c16.3,4.6,23.4,3.4,26.9,3.2c2.7-0.1,5.7-1.1,8.2-2c4.8-1.9,7.5-5.3,8.4-9.9
				C236.8,43.6,236.7,40.7,236.2,37.8"/>
		</g>
	</g>
</g>
<polygon id="Combined-Shape-Copy" class="st4" points="51.6,18 54.5,0 57.4,17.9 63.5,14.8 60.6,20.7 78,23.5 60.2,26.4 63.6,33.3 
	57.3,30.1 54.5,47 51.7,29.9 45.1,33.3 48.6,26.4 31,23.5 48.1,20.7 45.2,14.8 "/>
</svg>
