<svg id="Solaris_logo_accessible" xmlns="http://www.w3.org/2000/svg" width="248" height="197.559" viewBox="0 0 248 197.559">
  <path id="Fill-1-Copy-12" d="M205.819,98.941c-.006-.029-.022-.052-.029-.079a3.764,3.764,0,0,0-.245-1.626,3.994,3.994,0,0,0-5.129-2.257c-10.175,3.79-22.058-2.442-29.525-7.634-.04-.026-.073-.052-.111-.079-.452-.315-.876-.622-1.3-.926l.025-.053c-.861-.6-1.641-1.178-2.371-1.73-.3-.235-.576-.46-.842-.675,0,0-3.848-3.424-4.355-3.881,0,0-2.572-2.469-2.727-2.579l-.011.008c-.031-.06-.105-.084-.158-.125s-.116-.093-.18-.128l-.019,0c-.258-.232-.424-.388-.441-.4a3.905,3.905,0,0,0-.464-.329l-.009.008c-.031-.06-.105-.083-.158-.125s-.116-.092-.18-.127c-1.278-.348-2.142-1.332-4.078.8-.322.353-.961,1.475-1.187,1.748a4.776,4.776,0,0,0-.994,1.933,2.575,2.575,0,0,0,.844,2.463c.115.112,1.733,1.753,1.98,1.99.135.13.695.662,1.594,1.446.1.113.181.223.3.336.249.238,1.913,1.818,4.591,3.927.39.309.8.627,1.237.955l.034.026c1.469,1.158,3.246,2.474,5.262,3.819,8.751,5.83,22.058,12.176,34.694,8.223.638-.113,1.272-.248,1.9-.4A2.846,2.846,0,0,0,205.878,100s0,0,0-.006a2.659,2.659,0,0,0-.056-1.05m-77.412-8.687a5.853,5.853,0,0,0-.969-.808,7.145,7.145,0,0,0-2.383-1.122,2.8,2.8,0,0,0-.323-.053,3.287,3.287,0,0,0-2.645,1.412c-.19.24-3.731,4.793-4.3,5.283-.412.552-1.988,2.351-2.006,2.37-.062.074-.163.131-.187.226l-.019-.006a5.769,5.769,0,0,0-.57.611c-.233.344-23.91,34.323-49,30.261-3.195-.519-6.614.213-7.132,3.362a30.334,30.334,0,0,0,.31,4.454c.847,1.37,2.216,1.38,4.308,1.757.921.163,1.71.336,2.755.493,31.5,3.318,55.749-32.209,56.857-33.825a40.914,40.914,0,0,0,2.408-3.342c.684-.946,1.228-1.736,1.623-2.325.147-.307,2.023-2.887,2.028-2.9s.655-1.208.693-1.266.087-.179.119-.248c.757-1.512.2-2.511-1.567-4.335m116.568,43.922c-1.371,3.811-3.9,6.554-8.533,4.443,0,0-8.422-10.654-29.918-7.3-15.6,2.435-34.575,1.955-47.073-11.44-7.32-6.318-12.794-16.374-11.73-34.267,0,0-.213-2.873-.213-2.873-5.652-3.25-11.6-11.912-12.633-12.787-1.529,8.416-3.8,19.141-5.473,23.087,0,.006.566,1.125.566,1.125,8.266,26.393,3.571,43.22-5.278,54.453-13.553,21.676-39.718,27.635-62.024,28.695-30.738,1.462-39.412,18.277-39.412,18.277-5.834,4.164-10.1,1.146-13.079-3.645-3.741-3.484-5.449-9.261-5.449-9.261-17.35-47.555,15.181-101.292,63.31-109.041,24.746-3.984,43.977,2.6,51.827,10.811,7.45-9.657,4.52-28.929,2.674-42.594-.863-6.379-1.677-28.207-1.343-33.022.283-4.092,2.475-7.124,6.015-8.318A10.417,10.417,0,0,1,130.538,0a13.48,13.48,0,0,1,9.923,4.418c2.177,2.551,2.65,9.682,1.294,12.4-.719,1.737-1.949,22.983-3.035,31.27-.21,1.6-.417,3.158-.623,4.679.21.446.427.9.612,1.39,2.33,6.156,7.045,16,15.037,18.252.3-.33.8-.942,1.127-1.274,5.652-5.715,15.657-11.659,33.044-12.358,34.442-1.39,64.686,31.97,59.5,68.073A17.216,17.216,0,0,1,244.975,134.176Z" transform="translate(248 197.559) rotate(180)" fill="#5e6cdd" fill-rule="evenodd"/>
</svg>
