<?xml version="1.0" encoding="UTF-8"?>
<svg width="85px" height="129px" viewBox="0 0 85 129" version="1.1" xmlns="http://www.w3.org/2000/svg" xmlns:xlink="http://www.w3.org/1999/xlink">
    <!-- Generator: Sketch 46.2 (44496) - http://www.bohemiancoding.com/sketch -->
    <title>Group 48</title>
    <desc>Created with Sketch.</desc>
    <defs>
        <circle id="path-1" cx="38.5" cy="85.5" r="38.5"></circle>
        <filter x="-9.1%" y="-6.5%" width="118.2%" height="118.2%" filterUnits="objectBoundingBox" id="filter-2">
            <feOffset dx="0" dy="2" in="SourceAlpha" result="shadowOffsetOuter1"></feOffset>
            <feGaussianBlur stdDeviation="2" in="shadowOffsetOuter1" result="shadowBlurOuter1"></feGaussianBlur>
            <feComposite in="shadowBlurOuter1" in2="SourceAlpha" operator="out" result="shadowBlurOuter1"></feComposite>
            <feColorMatrix values="0 0 0 0 0   0 0 0 0 0   0 0 0 0 0  0 0 0 0.5 0" type="matrix" in="shadowBlurOuter1"></feColorMatrix>
        </filter>
        <polygon id="path-3" points="44.804184 -5.43942923 53.1154798 23.9979615 36.4928881 23.9979615"></polygon>
        <polygon id="path-4" points="15.2529098 -5.43942923 23.5642057 23.9979615 6.94161395 23.9979615"></polygon>
        <ellipse id="path-5" cx="30.9780338" cy="22.9752759" rx="3.43257927" ry="3.41277593"></ellipse>
    </defs>
    <g id="STYLEGUIDE" stroke="none" stroke-width="1" fill="none" fill-rule="evenodd">
        <g id="ICONS-" transform="translate(-435.000000, -103.000000)">
            <g id="Group-48" transform="translate(439.000000, 102.000000)">
                <circle id="Oval-19" stroke="#545454" stroke-width="2" cx="38.5" cy="48.5" r="8.5"></circle>
                <g id="Oval-16">
                    <use fill="black" fill-opacity="1" filter="url(#filter-2)" xlink:href="#path-1"></use>
                    <use fill="#FFFFFF" fill-rule="evenodd" xlink:href="#path-1"></use>
                    <circle stroke="#545454" stroke-width="4" cx="38.5" cy="85.5" r="36.5"></circle>
                </g>
                <path d="M31.1111111,79.1111111 L38,55 L44.8888889,79.1111111 L69,86 L44.8888889,92.8888889 L38,117 L31.1111111,92.8888889 L7,86 L31.1111111,79.1111111 Z" id="Combined-Shape" fill="#DADADA"></path>
                <g id="Group-46" transform="translate(8.000000, 63.000000)">
                    <g id="Group-45" transform="translate(30.925932, 23.192282) rotate(150.000000) translate(-30.925932, -23.192282) translate(0.925932, 14.192282)">
                        <g id="Triangle-6" transform="translate(44.804184, 9.279266) rotate(90.000000) translate(-44.804184, -9.279266) ">
                            <use fill="#545454" fill-rule="evenodd" xlink:href="#path-3"></use>
                            <path stroke="#545454" stroke-width="2" d="M44.804184,-1.75911336 L37.8143194,22.9979615 L51.7940485,22.9979615 L44.804184,-1.75911336 Z"></path>
                        </g>
                        <g id="Triangle-6" transform="translate(15.252910, 9.279266) rotate(270.000000) translate(-15.252910, -9.279266) ">
                            <use fill="#FF6B6B" fill-rule="evenodd" xlink:href="#path-4"></use>
                            <path stroke="#FF6B6B" stroke-width="1" d="M15.2529098,-3.5992713 L7.60232961,23.4979615 L22.90349,23.4979615 L15.2529098,-3.5992713 Z"></path>
                        </g>
                    </g>
                    <g id="Oval-20">
                        <use fill="#FFFFFF" fill-rule="evenodd" xlink:href="#path-5"></use>
                        <ellipse stroke="#FFFFFF" stroke-width="1" cx="30.9780338" cy="22.9752759" rx="2.93257927" ry="2.91277593"></ellipse>
                    </g>
                </g>
                <rect id="Rectangle-47" fill="#F0AB00" transform="translate(36.500000, 42.000000) rotate(-15.000000) translate(-36.500000, -42.000000) " x="35" y="39" width="3" height="6" rx="1.5"></rect>
                <path d="M37.3019037,0.993907806 L37.3019037,0.993907806 L37.3019037,0.993907806 C38.4170589,0.993907806 39.3312936,1.87826443 39.3683331,2.99280429 L40.6316669,41.0071957 L40.6316669,41.0071957 C40.6671558,42.0750773 39.8302362,42.9695358 38.7623547,43.0050247 C38.7409426,43.0057363 38.7195202,43.0060922 38.6980963,43.0060922 L38.6980963,43.0060922 L38.6980963,43.0060922 C37.5829411,43.0060922 36.6687064,42.1217356 36.6316669,41.0071957 L35.3683331,2.99280429 L35.3683331,2.99280429 C35.3328442,1.92492273 36.1697638,1.03046421 37.2376453,0.994975263 C37.2590574,0.994263674 37.2804798,0.993907806 37.3019037,0.993907806 Z" id="Rectangle-47" fill="#F0AB00" transform="translate(38.000000, 22.000000) rotate(-1.000000) translate(-38.000000, -22.000000) "></path>
            </g>
        </g>
    </g>
</svg>