<?xml version="1.0" encoding="utf-8"?>
<!-- Generator: Adobe Illustrator 23.0.3, SVG Export Plug-In . SVG Version: 6.00 Build 0)  -->
<svg version="1.1" id="Layer_1" xmlns="http://www.w3.org/2000/svg" xmlns:xlink="http://www.w3.org/1999/xlink" x="0px" y="0px"
	 viewBox="0 0 189 52" style="enable-background:new 0 0 189 52;" xml:space="preserve">
<style type="text/css">
	.st0{fill-rule:evenodd;clip-rule:evenodd;fill:#C14040;}
	.st1{fill:#C14040;}
</style>
<title>46317758-B50B-4CA7-B2F5-6C542F85DC64</title>
<desc>Created with sketchtool.</desc>
<g id="Page-2">
	<g id="WORK-tobi" transform="translate(-626.000000, -145.000000)">
		<g id="Group-16" transform="translate(626.000000, 145.000000)">
			<path id="Fill-38" class="st0" d="M171.8,7.8c0,0-4.6,5.3-3.5,9c0.8,2.8,4.9,1.5,8.2,1.4C177.1,18.2,178.3,9.2,171.8,7.8"/>
			<path id="Stroke-40" class="st1" d="M171.8,7.8c0,0-4.6,5.3-3.5,9c0.8,2.8,4.9,1.5,8.2,1.4C177.1,18.2,178.3,9.2,171.8,7.8z"/>
			<path id="Fill-42" class="st0" d="M173.6,5.8c0,0,8.4,3.8,6,13.1c0,0,1.6,0.6,2.7-1.3c1.6-2.6,3.9-6,2.2-9.4S174.1,1.7,173.6,5.8
				"/>
			<path id="Stroke-44" class="st1" d="M173.6,5.8c0,0,8.4,3.8,6,13.1c0,0,1.6,0.6,2.7-1.3c1.6-2.6,3.9-6,2.2-9.4
				S174.1,1.7,173.6,5.8z"/>
			<path id="Fill-46" class="st0" d="M181.7,9.1c0.8-0.7,4.2-2.7,4-3.3s-0.6-2.6-0.6-2.6s2-0.7,2.4,0.3s0.3,3.4,0.3,3.4l-5.4,3.3
				L181.7,9.1z"/>
			<path id="Stroke-48" class="st1" d="M181.7,9.1c0.8-0.7,4.2-2.7,4-3.3s-0.6-2.6-0.6-2.6s2-0.7,2.4,0.3s0.3,3.4,0.3,3.4l-5.4,3.3
				L181.7,9.1z"/>
			<path id="Fill-50" class="st0" d="M68.7,10.6c1.3-0.1,1.5,0.5,1.5,1.1c0.1,0.6-0.7,1.3-1.5,1.3s-1.5-0.5-1.5-1.2
				S68,10.7,68.7,10.6 M66.1,20.7c0,0,7.5,1,11.6-6.9c0,0-3.2-8.1-14.7-4.6c0,0-0.6-4.8-5.8-3.7c0,0-1.3,4,1.8,6.7
				c0,0,1.8,0.8,1.1,6.8c0,0-7.4,1.3-12,7.7c0,0-7.9,12-2.1,24.9h22.4c0,0-2.7-4.6-9.5-4.9c0,0-0.5-9.7,1.5-14.9c0,0,1,2.7,3.2,1.4
				c2.1-1.3,4.4-2.6,7.1-2.6c2.7,0,3.7,0.1,4.1-0.2c0.4-0.3-0.9-3.2-6-3.1c-5.1,0-4.9-1.1-4.7-3.1C64.1,24.2,64.1,22.9,66.1,20.7"/>
			<path id="Fill-52" class="st0" d="M39.5,51.4c0.5,0.5,0.3-25.8,0.5-28.5c0.1-1.8,0-9.8-3.2-14.2c-2-2.9-5.4-7.9-14.4-7.9
				c-10,0-15.3,2.8-19.4,10c-2.1,3.7-5,10.8-0.1,20s16.8,7,20.6,4.4c1.7-1.2,4.1-3.5,5.1-10.1c0,0-7.7,0.5-5.9-4.5
				c0,0,0.7-3.2,5.3-0.9c3.8,1.9,5.2,14.1,5.5,16C33.9,37.6,34.7,46.4,39.5,51.4"/>
			<path id="Fill-57" class="st0" d="M119.8,15.8c-1.3,0-2.7-0.1-4.2-0.4c-1.4-0.3-2.9-0.5-4.5-0.9l-7.9,37.1H95l8.1-38.2h-0.6
				c-1.5,0-2.9,0.2-4.2,0.5c-1.3,0.3-2.5,0.9-3.4,1.8c-1,0.8-1.7,2-2.3,3.5c-0.6,1.5-0.9,3.3-0.9,5.6c0,0.8,0,1.4,0.1,1.9
				s0.1,0.8,0.2,1.1s0.2,0.5,0.3,0.7c0.1,0.2,0.2,0.3,0.2,0.5c-2,0-3.6-0.4-4.5-1.3c-1-0.8-1.5-2.4-1.5-4.7c0-1.8,0.3-3.6,1-5.4
				s1.8-3.3,3.4-4.7s3.6-2.5,6.1-3.3s5.5-1.3,9.2-1.3c1.5,0,2.9,0.1,4.1,0.2c1.2,0.1,2.3,0.3,3.4,0.5s2.1,0.3,3.2,0.5
				c1,0.1,2.1,0.2,3.3,0.2c1.6,0,3-0.1,4.1-0.4c1.1-0.3,2.1-0.5,2.8-0.8c-0.1,2.5-0.7,4.4-1.9,5.6C124,15.2,122.2,15.8,119.8,15.8"
				/>
			<path id="Fill-59" class="st0" d="M123.8,46.5c0.7,0,1.4-0.3,2.1-0.9c0.7-0.6,1.3-1.4,1.9-2.5c0.6-1.1,1.1-2.3,1.6-3.8
				s0.8-3,1-4.7c-0.6-0.2-1-0.5-1.2-0.9s-0.3-1-0.3-1.5c0-0.8,0.2-1.5,0.5-2s0.8-0.9,1.3-1.1c-0.1-1.2-0.3-2-0.6-2.5
				s-0.8-0.7-1.6-0.7c-1,0-2,0.6-2.9,1.7s-1.7,2.5-2.4,4.2c-0.7,1.6-1.2,3.4-1.7,5.2c-0.4,1.8-0.6,3.5-0.6,4.9c0,1,0,1.7,0.1,2.3
				s0.3,1.1,0.5,1.4c0.2,0.3,0.5,0.6,0.9,0.7C122.8,46.5,123.2,46.5,123.8,46.5 M128,22.5c4.8,0,7.2,3,7.3,9.1
				c0.2,0,0.4,0.1,0.6,0.1c0.6,0,1.4-0.1,2.1-0.3c0.8-0.2,1.6-0.5,2.3-0.8c0.8-0.3,1.5-0.7,2.3-1.1c0.7-0.4,1.4-0.8,2-1.3l0.5,1.6
				c-1.1,1.2-2.5,2.2-4.3,3s-3.7,1.4-5.7,1.8c-0.2,2.7-0.7,5.1-1.5,7.3s-1.8,4-3,5.5s-2.6,2.7-4.2,3.5c-1.6,0.8-3.2,1.2-5,1.2
				c-1.3,0-2.6-0.2-3.7-0.5s-2.1-0.9-2.9-1.6c-0.8-0.7-1.4-1.7-1.9-2.8c-0.5-1.2-0.7-2.6-0.7-4.2c0-1.1,0.1-2.4,0.3-3.8
				c0.2-1.4,0.6-2.9,1.1-4.4s1.2-3,2-4.4s1.8-2.7,2.9-3.9c1.2-1.2,2.5-2.1,4-2.8C124.2,22.8,126,22.5,128,22.5"/>
			<path id="Fill-61" class="st0" d="M155.6,32.2c0-0.7-0.1-1.4-0.2-2.1c-0.1-0.7-0.3-1.3-0.6-1.8s-0.6-0.9-1-1.2
				c-0.4-0.3-0.8-0.5-1.3-0.5c-0.2,0-0.4,0-0.8,0.1c-0.3,0-0.6,0.1-1,0.2c-0.3,0.1-0.6,0.2-0.9,0.3c-0.3,0.1-0.5,0.3-0.7,0.5
				L146,42.4c-0.1,0.5-0.2,0.9-0.2,1.3c0,1.8,1,2.7,3,2.7c0.9,0,1.8-0.5,2.6-1.4s1.5-2,2.1-3.4s1.1-2.9,1.4-4.6
				C155.5,35.3,155.6,33.7,155.6,32.2L155.6,32.2z M144.3,12.4l8.4-1.2l-2.7,13c1.2-0.7,2.1-1.2,2.8-1.4c0.7-0.2,1.3-0.3,1.9-0.3
				c1,0,1.9,0.2,2.7,0.5s1.5,0.9,2.1,1.7c0.6,0.8,1,1.8,1.4,3.1c0.3,1.3,0.5,2.8,0.5,4.7c0,1.1-0.1,2.4-0.3,3.8s-0.6,2.8-1.1,4.3
				c-0.5,1.4-1.1,2.9-1.9,4.2c-0.8,1.4-1.7,2.6-2.9,3.7c-1.2,1.1-2.5,1.9-4.1,2.6c-1.6,0.7-3.3,1-5.4,1c-2.6,0-4.6-0.7-6-2
				c-1.3-1.3-2-3.1-2-5.4c0-1.1,0.1-2.2,0.4-3.3L144.3,12.4z"/>
			<path id="Fill-63" class="st0" d="M175.6,22.7l-4.1,19.6c-0.2,0.7-0.2,1.3-0.2,1.8c0,0.8,0.2,1.4,0.6,1.7c0.4,0.3,1,0.5,1.8,0.5
				c0.5,0,0.9,0,1.2-0.1c0.2-0.1,0.5-0.2,0.7-0.2c-0.1,1-0.3,1.9-0.7,2.7c-0.4,0.7-0.9,1.3-1.4,1.8c-0.6,0.5-1.2,0.9-1.9,1.1
				c-0.7,0.2-1.5,0.3-2.2,0.3c-1.7,0-3.2-0.5-4.3-1.6c-1.2-1.1-1.8-2.9-1.8-5.3c0-1,0.2-2.3,0.5-3.8l3.9-18.5
				C167.7,22.7,175.6,22.7,175.6,22.7z"/>
		</g>
	</g>
</g>
</svg>
