<?xml version="1.0" encoding="UTF-8"?>
<svg width="237px" height="100px" viewBox="0 0 237 100" version="1.1" xmlns="http://www.w3.org/2000/svg" xmlns:xlink="http://www.w3.org/1999/xlink">
    <!-- Generator: Sketch 50.2 (55047) - http://www.bohemiancoding.com/sketch -->
    <title>Group 2</title>
    <desc>Created with Sketch.</desc>
    <defs>
        <polygon id="path-1" points="236.606204 0.239875912 192.813745 0.239875912 192.813745 58.6656473 236.606204 58.6656473 236.606204 0.239875912"></polygon>
    </defs>
    <g id="drafts" stroke="none" stroke-width="1" fill="none" fill-rule="evenodd">
        <g id="header" transform="translate(-587.000000, -442.000000)">
            <g id="Group-2" transform="translate(587.000000, 442.000000)">
                <g id="Group" transform="translate(0.000000, 41.000000)">
                    <path d="M101.992048,22.4152556 C101.8991,24.5672377 101.238189,26.5809943 99.4024727,27.9700256 C98.2437551,28.8436472 96.8852895,29.3125299 95.5111837,29.3446019 C90.7109739,29.4525623 85.9089766,29.4073906 81.1087669,29.4385591 C80.3750167,29.443528 80.2025273,29.0767334 80.2061022,28.4131604 C80.2253173,25.0686441 80.2163801,21.7218693 80.2163801,18.374191 C80.2150395,15.0938186 80.2400638,11.810736 80.1980587,8.52855672 C80.1877808,7.6522248 80.4612614,7.32879508 81.3393485,7.33647427 C85.7905578,7.37803228 90.2431076,7.34460519 94.6934231,7.40784564 C96.4911557,7.43314182 98.1838754,7.92461044 99.6956153,9.0060221 C101.192162,10.0783994 101.894185,11.6318558 101.975961,13.3483823 C102.123873,16.3644999 102.126107,19.3964277 101.992048,22.4152556 M105.953941,44.048006 C104.75009,41.3336356 103.489041,38.6459166 102.281615,35.93516 C102.031819,35.37232 102.167218,34.948609 102.80534,34.6170483 C106.710482,32.5938057 108.865705,29.1941799 109.540916,24.9466804 C110.300584,20.1706715 110.277794,15.3323255 109.595434,10.5287617 C109.182978,7.6445456 107.943825,5.16461661 105.654096,3.30308885 C102.680665,0.888658893 99.1093301,0.177655572 95.483925,0.0963464244 C88.1374859,-0.0685304576 80.7883656,0.0367197164 73.4392453,0.000130600101 C72.6098663,-0.00709687966 72.2577377,0.284712616 72.3113614,1.11045218 C72.3278953,1.36522084 72.3131488,1.62450668 72.3131488,1.88288908 L72.3131488,57.3172071 C72.3131488,57.5742344 72.332364,57.832165 72.3113614,58.0887406 C72.2563971,58.7627031 72.5629456,59.0012099 73.2104511,58.9935307 C75.1833543,58.9704931 77.1549169,58.9682345 79.1269264,58.9953376 C79.9344091,59.0057271 80.2454262,58.7139176 80.229786,57.8601715 C80.1868871,55.2858336 80.2150395,52.7114956 80.2150395,50.1362543 C80.2150395,45.9822603 80.2186144,41.8296214 80.2114646,37.6765309 C80.2114646,37.0197336 80.2284454,36.4645729 81.1396005,36.4708969 C85.0514452,36.4961931 88.9668649,36.4582488 92.8760285,36.5160687 C93.2804401,36.521941 93.8734282,36.9108697 94.0481519,37.2803746 C95.6179841,40.5986913 97.1216804,43.950435 98.627611,47.2981133 C100.251067,50.9091429 101.851286,54.530562 103.466251,58.1461087 C103.702642,58.6741664 104.040024,59.0079857 104.702276,58.9998547 C106.962513,58.9641691 109.220515,58.9885618 111.478517,58.9790757 C111.751104,58.9781723 112.024585,58.9117698 112.474576,58.8530466 C111.481645,56.6441481 110.549487,54.6150331 109.652185,52.5714632 C108.407223,49.7346774 107.207394,46.878016 105.953941,44.048006" id="Fill-1" fill="#FFFFFF"></path>
                    <path d="M184.768722,1.66897893 C184.768722,1.35084072 184.76614,1.03625217 184.753231,0.719445082 C184.734728,0.227817275 184.514413,-0.000248332609 184.001924,0.00330132665 C181.948955,0.0245992822 177.103759,2.92555831 177.103759,3.27386863 C177.103759,15.7336163 177.10591,26.6714476 177.099456,39.1298642 C177.099456,40.2666426 177.114516,41.4100766 177.018559,42.5424179 C176.883014,44.184579 176.451852,45.7513098 175.619218,47.190253 C174.021508,49.9554375 171.440559,51.1849508 168.566144,51.5603272 C164.924071,52.0395312 161.236386,52.171756 157.732009,50.5770716 C155.657955,49.633306 154.135978,48.1566477 153.259454,45.9687265 C152.449626,43.9409836 152.244372,41.8320423 152.245663,39.6645316 C152.258572,27.0801021 152.252118,14.4943415 152.252118,1.9068061 C152.252118,1.62283336 152.238779,1.3375295 152.252118,1.05311305 C152.291275,0.309903145 152.013731,-0.0215462882 151.234024,0.00108278961 C149.48829,0.04722836 144.618137,3.056452 144.618137,4.50870634 C144.616846,16.8096068 144.591888,26.0662307 144.6375,38.3675749 C144.647827,40.9818989 144.819518,43.6073157 145.092759,46.2078848 C145.375898,48.8954205 146.497264,51.2852286 148.205561,53.3240642 C149.922895,55.3708864 152.082579,56.7809886 154.631256,57.4571987 C156.802127,58.0349057 158.983757,58.7754534 161.196798,58.935188 C163.914583,59.1317504 166.669374,58.8318042 169.406523,58.6898178 C171.991775,58.5567056 174.472034,57.9195418 176.819329,56.7854256 C180.129209,55.1871916 182.454129,52.6407548 183.651659,49.0542678 C184.549698,46.366732 184.793679,43.5846866 184.779049,40.7525022 C184.748498,34.6178036 184.768722,28.4848798 184.768722,22.3479626 C184.768722,15.4549681 184.770873,8.56108609 184.768722,1.66897893" id="Fill-3" fill="#FFFFFF"></path>
                    <path d="M131.304824,0.00295797471 C129.410292,0.071597443 124.547479,3.28455677 124.547479,3.60698164 L124.547479,49.9363649 C124.547479,52.5433099 124.589038,55.1498034 124.5267,57.7553938 C124.501403,58.7547303 124.849682,59.031546 125.803724,58.9972263 C127.569063,58.9317478 129.338468,58.9800664 131.107872,58.9769054 C132.532159,58.9741959 132.534418,58.9705833 132.534418,57.505221 L132.534418,29.5116073 L132.534418,23.52462 C132.534418,16.0930428 132.514542,8.65965934 132.559262,1.22898532 C132.564231,0.224229945 132.259769,-0.0313617595 131.304824,0.00295797471" id="Fill-8" fill="#FFFFFF"></path>
                    <path d="M58.9785284,15.8438775 C56.9573564,16.3129422 52.2203533,17.7205623 52.2360545,19.0131528 C52.2508041,20.1387377 52.2422399,20.5166308 52.2422399,21.6405115 C52.2422399,33.6973056 52.2522315,45.7553779 52.2203533,57.812172 C52.2179744,58.73326 52.5105876,59.036597 53.5411569,58.9965497 C55.2996908,58.9283841 57.06441,58.9790822 58.8257986,58.9782302 C60.2479462,58.9748219 60.2517526,58.9735438 60.25318,57.7337816 C60.2555589,50.9300006 60.25318,44.1279237 60.25318,37.3249948 C60.25318,30.4909653 60.2555589,23.6569357 60.2517526,16.8229062 C60.2517526,15.7322563 60.1018775,15.5844221 58.9785284,15.8438775" id="Fill-10" fill="#FFFFFF"></path>
                    <path d="M43.3824335,37.8105591 C43.1452221,36.4203985 42.6238221,34.997508 41.8861411,33.7671212 C39.9917056,30.6147124 36.5540005,29.3533182 33.1632726,28.1242234 C31.6976781,27.5932234 30.1711529,27.2013255 28.6734651,26.7396613 C26.6162374,26.1018584 24.5273816,25.5376978 22.516666,24.7913693 C20.1399006,23.9102453 17.7533677,23.0037124 15.5212547,21.8585956 C13.6249588,20.8831577 12.459367,19.2285737 12.3635521,17.135581 C12.297505,15.6808219 12.3235518,14.2084058 12.4533204,12.7558 C12.6128567,10.9913985 13.6924012,9.6658365 15.2659036,8.75025985 C17.3663875,7.53236204 19.7617577,7.10859562 22.1831746,7.12754453 C25.9520455,7.1598438 29.9739418,7.7468292 33.7297893,8.00737664 C36.1926019,8.17705547 42.4084713,1.74174891 41.6317202,1.64355912 C38.3605282,1.23185109 35.0953828,0.746931387 31.8088419,0.480785401 C29.0506778,0.258566423 26.2664669,0.221529927 23.4952794,0.246508029 C19.2096597,0.283544526 14.9965989,0.758989781 11.1254016,2.6668 C7.06024903,4.67107737 4.85278748,7.88162482 4.14952539,12.0258365 C3.69324225,14.7105518 3.79742922,17.4159387 4.18022334,20.0997927 C4.684879,23.6273036 6.53512806,26.4549971 9.99701941,28.0475664 C13.139373,29.4915591 16.4421932,30.6543328 19.7171061,31.8407927 C23.0552754,33.0479241 26.4850735,34.0371431 29.7976612,35.2998292 C32.7735017,36.4315956 35.2325934,38.1227854 35.4642233,41.4918146 C35.6381784,44.069727 35.5884105,46.6015591 33.5442062,48.6562234 C31.8586098,50.3469825 29.5720778,50.8323328 27.2562431,51.2156175 C17.7566235,52.7905299 10.0677177,49.1101358 5.40023422,48.6661285 C4.4709236,48.5782745 0.302514326,53.2427197 0.000186048171,55.1746467 C16.2956802,59.8098073 23.3724876,58.5445372 26.8553093,58.4019898 C29.5185889,58.2930336 32.5697789,57.3249168 35.0311962,56.3576613 C39.8265878,54.4726759 42.5112629,51.0653182 43.4182478,46.4327416 C43.9736016,43.5796394 43.8684844,40.6666759 43.3824335,37.8105591" id="Fill-12" fill="#FFFFFF"></path>
                    <mask id="mask-2" fill="white">
                        <use xlink:href="#path-1"></use>
                    </mask>
                    <g id="Clip-13"></g>
                    <path d="M236.195993,37.8105591 C235.958781,36.4203985 235.437381,34.997508 234.6997,33.7671212 C232.805265,30.6147124 229.36756,29.3533182 225.976832,28.1242234 C224.511237,27.5932234 222.984712,27.2013255 221.487024,26.7396613 C219.429797,26.1018584 217.340941,25.5376978 215.330225,24.7913693 C212.95346,23.9102453 210.566927,23.0037124 208.334814,21.8585956 C206.438518,20.8831577 205.272926,19.2285737 205.177111,17.135581 C205.111064,15.6808219 205.137111,14.2084058 205.26688,12.7558 C205.426416,10.9913985 206.505961,9.6658365 208.079463,8.75025985 C210.179947,7.53236204 212.575317,7.10859562 214.996734,7.12754453 C218.765605,7.1598438 222.787501,7.7468292 226.543349,8.00737664 C229.006161,8.17705547 235.222031,1.74174891 234.44528,1.64355912 C231.174088,1.23185109 227.908942,0.746931387 224.622401,0.480785401 C221.864237,0.258566423 219.080026,0.221529927 216.308839,0.246508029 C212.023219,0.283544526 207.810158,0.758989781 203.938961,2.6668 C199.873808,4.67107737 197.666347,7.88162482 196.963085,12.0258365 C196.506802,14.7105518 196.610989,17.4159387 196.993783,20.0997927 C197.498438,23.6273036 199.348687,26.4549971 202.810579,28.0475664 C205.952932,29.4915591 209.255753,30.6543328 212.530665,31.8407927 C215.868835,33.0479241 219.298633,34.0371431 222.61122,35.2998292 C225.587061,36.4315956 228.046153,38.1227854 228.277783,41.4918146 C228.451738,44.069727 228.40197,46.6015591 226.357766,48.6562234 C224.672169,50.3469825 222.385637,50.8323328 220.069802,51.2156175 C210.570183,52.7905299 202.881277,49.1101358 198.213794,48.6661285 C197.284483,48.5782745 193.116074,53.2427197 192.813745,55.1746467 C209.10924,59.8098073 216.186047,58.5445372 219.668869,58.4019898 C222.332148,58.2930336 225.383338,57.3249168 227.844756,56.3576613 C232.640147,54.4726759 235.324822,51.0653182 236.231807,46.4327416 C236.787161,43.5796394 236.682044,40.6666759 236.195993,37.8105591" id="Fill-12" fill="#FFFFFF" mask="url(#mask-2)"></path>
                </g>
                <polygon id="Combined-Shape-Copy" fill="#FFFFFF" points="51.5580117 18.0441947 54.5 0 57.4186917 17.901309 63.5121647 14.8309544 60.5755259 20.6590531 78 23.5 60.1548197 26.4095403 63.6031391 33.2531282 57.2622641 30.0581137 54.5 47 51.7144393 29.9152279 45.0899909 33.2531282 48.5616069 26.3633055 31 23.5 48.1409008 20.7052879 45.1809654 14.8309544"></polygon>
            </g>
        </g>
    </g>
</svg>