<?xml version="1.0" encoding="utf-8"?>
<!-- Generator: Adobe Illustrator 16.0.0, SVG Export Plug-In . SVG Version: 6.00 Build 0)  -->
<!DOCTYPE svg PUBLIC "-//W3C//DTD SVG 1.1//EN" "http://www.w3.org/Graphics/SVG/1.1/DTD/svg11.dtd">
<svg version="1.1" id="Layer_1" xmlns="http://www.w3.org/2000/svg" xmlns:xlink="http://www.w3.org/1999/xlink" x="0px" y="0px"
	 width="917.333px" height="688px" viewBox="-59.333 -43.5 917.333 688" enable-background="new -59.333 -43.5 917.333 688"
	 xml:space="preserve">
<g id="Layer_2" display="none">
	<rect y="65.156" display="inline" fill="#212121" width="800" height="469.689"/>
</g>
<g id="Layer_5">
	<g>
		<path fill="#FFFFFF" d="M286.648,532.131h71.045V410.515c-31.329,21.955-51.804,37.99-71.045,58.218V532.131z"/>
		<path fill="#FFFFFF" d="M556.769,196.639c-71.785,19.735-138.391,46.624-198.828,76.719V124.113c0,0-71.045,0-71.045,55.504
			c0,32.562,0,95.96,0,132.223C108.542,415.202,0,532.131,0,532.131h181.067c0,0,137.65-149.244,375.455-270.86l0,0v-64.631H556.769
			z"/>
		<path fill="#FFFFFF" d="M800,162.843c-49.584,0-97.44,4.193-143.817,11.841V65.156c0,0-84.613,0-84.613,55.504
			c0,74.992,0,411.471,0,411.471h84.613V214.894C701.326,195.899,749.43,178.138,800,162.843z"/>
	</g>
</g>
</svg>
