<?xml version="1.0" encoding="UTF-8"?>
<svg width="44px" height="53px" viewBox="0 0 44 53" version="1.1" xmlns="http://www.w3.org/2000/svg" xmlns:xlink="http://www.w3.org/1999/xlink">
    <!-- Generator: sketchtool 42 (36781) - http://www.bohemiancoding.com/sketch -->
    <title>5C753CCF-C0F3-420B-9E8F-E67BA7771C55</title>
    <desc>Created with sketchtool.</desc>
    <defs>
        <polygon id="path-1" points="43.5688817 53 0.000318276245 53 0.000318276245 5.20133118 43.5688817 5.20133118"></polygon>
    </defs>
    <g id="Page-2" stroke="none" stroke-width="1" fill="none" fill-rule="evenodd">
        <g id="Desktop-svgs" transform="translate(-311.000000, -4112.000000)">
            <g id="Group-20" transform="translate(311.000000, 4112.000000)">
                <path d="M21.698,0.000151298906 C24.272,0.0201512989 25.464,1.4461513 25.464,3.0901513 C25.464,4.7341513 23.327,5.9541513 21.698,5.9541513 C20.068,5.9541513 18,4.8611513 18,3.2171513 C18,1.5731513 19.307,-0.0178487011 21.698,0.000151298906 Z" id="Fill-1" fill="#FFFFFF"></path>
                <path d="M31.9905805,6.17966288 C31.3305805,3.59766288 29.3935805,2.96266288 21.8225805,3.00166288 C21.8165805,3.00166288 21.8105805,3.00266288 21.8045805,3.00266288 L21.8045805,3.00866288 C16.8585805,3.10766288 15.4195805,2.90666288 13.7245805,3.80666288 C12.3275805,4.54866288 11.8055805,6.26766288 12.0635805,7.27466288 C12.7235805,9.85666288 15.9955805,10.4526629 22.2315805,10.4526629 L22.2485805,10.4526629 L22.2485805,10.4456629 C25.5505805,10.4316629 28.5785805,10.2566629 30.2735805,9.35766288 C31.6715805,8.61466288 32.2485805,7.18666288 31.9905805,6.17966288" id="Fill-4" fill="#FFFFFF"></path>
                <path d="M11.7168,5.2758 C11.7788,5.2768 11.6278,5.2638 11.7168,5.2758" id="Fill-6" fill="#FFFFFF"></path>
                <mask id="mask-2" fill="white">
                    <use xlink:href="#path-1"></use>
                </mask>
                <g id="Clip-9"></g>
                <path d="M41.3820672,50.3849 C41.3739881,51.0969 41.3366219,51.1279 40.5085079,51.1219 C34.428939,51.0669 28.3483602,51.0099 22.2687913,50.9529 L22.2687913,50.9229 C16.009461,50.9809 9.75013074,51.0389 3.49181039,51.0969 C2.66369635,51.1029 2.62633023,51.0709 2.61825106,50.3589 C2.48090532,36.1699 2.34254968,21.9779 2.20520394,7.7889 C2.19611488,7.1239 2.26983723,7.0639 3.04543672,7.0569 C4.60774455,7.0399 6.16904248,7.0359 7.7313503,7.0049 C8.12621931,6.9979 8.70185956,6.8639 8.70286945,7.2079 C8.70488924,8.6519 8.61803826,9.7559 9.75013074,10.9429 C11.1952907,12.4579 11.0599648,12.1669 13.0343098,12.8389 C13.4412976,12.9779 16.4578545,13.3179 16.6830611,13.3159 C18.7048712,13.2979 20.2924264,13.3039 21.731527,13.3189 L21.731527,13.3499 C23.3089833,13.3309 25.0439832,13.3209 27.3162473,13.3409 C27.5414539,13.3439 30.5590207,13.0029 30.9660084,12.8649 C32.9403535,12.1919 32.8050275,12.4829 34.2501875,10.9679 C35.38228,9.7819 35.2944191,8.6779 35.2974488,7.2339 C35.2974488,6.8899 35.874099,7.0239 36.268968,7.0309 C37.8312758,7.0619 39.3925737,7.0659 40.9548816,7.0829 C41.730481,7.0899 41.8042034,7.1499 41.7951143,7.8139 C41.6577686,22.0029 41.519413,36.1959 41.3820672,50.3849 M42.8544944,5.6299 C42.4030712,5.4059 41.83652,5.2549 41.3133943,5.2439 C38.7088747,5.1839 36.5113428,5.3079 33.9048034,5.2849 C33.9048034,5.2849 32.7979583,5.2549 32.8343145,5.2889 C33.8785461,6.2649 33.5786072,8.1539 33.4988255,8.4609 C32.8322947,11.0429 29.5279177,11.6389 23.2302115,11.6389 L23.2120333,11.6389 L23.2120333,11.6329 C22.9030054,11.6309 22.6020567,11.6239 22.2990881,11.6189 L22.2990881,11.5849 C21.8032296,11.5959 21.3003018,11.6049 20.787275,11.6069 L20.787275,11.6129 L20.7701068,11.6129 C14.4724006,11.6129 11.1680236,11.0179 10.5014927,8.4359 C10.421711,8.1279 10.1217722,6.2399 11.1649939,5.2629 C11.20236,5.2289 10.0955149,5.2589 10.0955149,5.2589 C7.48796557,5.2819 5.29144358,5.1579 2.68692394,5.2179 C2.16379824,5.2299 1.59623715,5.3799 1.14582391,5.6039 C0.19652245,6.0749 -0.00848626881,6.8819 0.000602787704,7.7569 C0.144007902,22.0149 0.290442701,36.2749 0.409610331,50.5319 C0.422738968,52.1229 1.74065216,52.9939 3.33729642,52.9739 C9.4673601,52.9049 15.5994436,52.8539 21.731527,52.7969 L21.731527,52.8169 C28.0423619,52.8759 34.3531968,52.9279 40.6630219,52.9999 C42.2596661,53.0199 43.5775793,52.1489 43.5907079,50.5579 C43.7098756,36.3009 43.8563104,22.0399 43.9997155,7.7829 C44.0088045,6.9069 43.8037958,6.0999 42.8544944,5.6299" id="Fill-8" fill="#FFFFFF" mask="url(#mask-2)"></path>
            </g>
        </g>
    </g>
</svg>