<?xml version="1.0" encoding="UTF-8"?>
<svg width="51px" height="29px" viewBox="0 0 51 29" version="1.1" xmlns="http://www.w3.org/2000/svg" xmlns:xlink="http://www.w3.org/1999/xlink">
    <!-- Generator: sketchtool 42 (36781) - http://www.bohemiancoding.com/sketch -->
    <title>E93D3BED-45CA-40E7-8A68-DB067649087A</title>
    <desc>Created with sketchtool.</desc>
    <defs></defs>
    <g id="Page-2" stroke="none" stroke-width="1" fill="none" fill-rule="evenodd">
        <g id="Desktop-svgs" transform="translate(-1091.000000, -4127.000000)" fill="#FEFEFE">
            <g id="Group-4" transform="translate(1091.000000, 4127.000000)">
                <path d="M43.806978,14.5557518 C42.3158501,13.3467414 40.9378422,12.2330896 39.5564065,11.1194378 C38.7954171,10.5064185 38.0207161,9.91383309 37.2734382,9.28719109 C36.0256898,8.23824688 35.8165891,6.72953815 36.7318332,5.5648014 C37.681356,4.35919669 39.2616088,4.15826257 40.5607754,5.18336714 C43.6013052,7.58095391 46.6212677,10.0091917 49.6138071,12.4680804 C51.0706562,13.6634681 51.0877956,15.4071676 49.6549417,16.6093666 C46.641835,19.1329629 43.6013052,21.6259082 40.5470639,24.0984196 C39.371301,25.0485996 37.7739088,24.8510711 36.8415253,23.730608 C35.9331371,22.6373902 36.0222619,21.0912191 37.1603182,20.1171995 C38.9668111,18.5676228 40.8315779,17.0827538 42.6654939,15.5672337 C43.0151377,15.2777524 43.3442142,14.967837 43.806978,14.5557518" id="Fill-69"></path>
                <path d="M6.97200521,14.7730331 C8.03122021,15.6380715 9.02530548,16.4486193 10.0159629,17.2557614 C11.2397161,18.250215 12.5114597,19.1969894 13.6803669,20.2527449 C15.2640475,21.6899347 14.7121588,24.0398422 12.6897095,24.6903238 C11.8327394,24.9661825 11.0271875,24.809522 10.3313279,24.254399 C7.21881259,21.7648593 4.09601368,19.2821309 1.01777722,16.744912 C-0.373942164,15.5972035 -0.219687552,13.7751738 1.29200764,12.5287012 C3.57497588,10.6521808 5.86479989,8.78247183 8.15119601,6.91276283 C8.7956375,6.38488506 9.42636747,5.83997897 10.0845205,5.33253518 C11.3768313,4.33467591 12.9947908,4.46749677 13.9271742,5.62882786 C14.8938365,6.83102691 14.6950194,8.33973563 13.3992807,9.41251949 C11.4830956,11.0097754 9.54634328,12.5865974 7.62330246,14.1770421 C7.43134116,14.3337026 7.25651927,14.510797 6.97200521,14.7730331" id="Fill-70"></path>
                <path d="M19.3764755,28.3847871 C18.3721066,28.3950041 17.4808577,27.0123049 18.1424386,25.5717094 C19.6712732,22.2443766 21.2275308,18.9306665 22.7769327,15.6135507 C24.8405166,11.2100284 26.8835332,6.79628915 28.9985353,2.4166065 C29.2693379,1.85807776 29.8452217,1.32338866 30.410822,1.06115261 C31.0758308,0.754642937 31.8299644,0.958982719 32.357858,1.58221905 C32.9097467,2.24291768 33.0091552,2.96832391 32.6492278,3.74481508 C31.7339838,5.71669397 30.8153119,7.6851672 29.8932121,9.65364043 C27.2400328,15.327475 24.5799977,21.0013096 21.9302462,26.6751442 C21.5189006,27.5606166 21.0698483,28.3813814 19.3764755,28.3847871" id="Fill-71"></path>
            </g>
        </g>
    </g>
</svg>