<?xml version="1.0" encoding="utf-8"?>
<!-- Generator: Adobe Illustrator 22.1.0, SVG Export Plug-In . SVG Version: 6.00 Build 0)  -->
<svg version="1.1" id="Layer_1" xmlns="http://www.w3.org/2000/svg" xmlns:xlink="http://www.w3.org/1999/xlink" x="0px" y="0px"
	 viewBox="0 0 843 784" style="enable-background:new 0 0 843 784;" xml:space="preserve">
<style type="text/css">
	.st0{fill:#0093C6;}
	.st1{font-family:'BentonSans-Light';}
	.st2{font-size:20px;}
	.st3{fill:#4A4A4A;}
	.st4{fill:none;stroke:#4A4A4A;stroke-width:3;stroke-linecap:square;}
	.st5{fill:none;stroke:#0093C6;stroke-width:3;stroke-linecap:square;}
	.st6{fill:none;stroke:#FBBA00;stroke-width:3;stroke-linecap:square;}
	.st7{fill:none;stroke:#F05053;stroke-width:3;stroke-linecap:square;}
	.st8{fill:#F05053;}
	.st9{fill:#FBBA00;}
	.st10{fill:none;}
	.st11{font-family:'BentonSans-Bold';}
	.st12{font-size:16px;}
	.st13{fill:none;stroke:#979797;}
	.st14{font-family:'FontAwesome';}
	.st15{font-size:30px;}
	.st16{font-size:28px;}
	.st17{font-size:35px;}
	.st18{font-family:'BentonSans-Medium';}
	.st19{font-size:18px;}
</style>
<title>4F7E4420-817C-47C5-9D22-F17B53B45E80</title>
<desc>Created with sketchtool.</desc>
<g id="Page-2">
	<g id="Desktop-HD-P_x26_I" transform="translate(-178.000000, -1838.000000)">
		<g id="Group-7" transform="translate(178.000000, 1824.000000)">
			<text transform="matrix(1 0 0 1 482.7461 498)" class="st0 st1 st2">Tools Team WDF </text>
			<text transform="matrix(1 0 0 1 471.0566 522)" class="st0 st1 st2">Walldorf, Germany</text>
			<text transform="matrix(1 0 0 1 633 410)" class="st3 st1 st2">SAP Labs Silicon Valley</text>
			<text transform="matrix(1 0 0 1 839.4746 410)" class="st3 st1 st2"> </text>
			<text transform="matrix(1 0 0 1 633 434)" class="st3 st1 st2">Palo Alto, USA</text>
			<text transform="matrix(1 0 0 1 383.7637 409)" class="st3 st1 st2">SAP Labs </text>
			<text transform="matrix(1 0 0 1 324.8184 433)" class="st3 st1 st2">Bangalore, India</text>
			<path id="Line-Copy-4" class="st4" d="M553.5,78.5v157"/>
			<path id="Line-Copy-11" class="st5" d="M553.5,362v70"/>
			<path id="Line-Copy-20" class="st6" d="M551.4,362l-70,0.2"/>
			<path id="Line-Copy-21" class="st7" d="M556,362l70,0.2"/>
			<circle id="Oval-3-Copy-3" class="st8" cx="634.5" cy="363.5" r="7.5"/>
			<circle id="Oval-3-Copy-4" class="st9" cx="477.5" cy="363.5" r="7.5"/>
			<circle id="Oval-3-Copy-5" class="st3" cx="554" cy="237" r="6"/>
			<circle id="Oval-3-Copy-7" class="st3" cx="554" cy="74" r="6"/>
			<circle id="Oval-3-Copy-6" class="st0" cx="553.5" cy="439.5" r="7.5"/>
			<g id="aa148240aa860b035061922161e9ebaa-copy-2" transform="translate(525.000000, 275.000000)">
				<g id="_x38_F88DBBF-E723-4BAE-910E-41F7F41145B2">
					<g id="Final">
						<g id="Landing-Page">
							<g id="Group-24-Copy">
								<g id="Group-29">
									<g id="Group-21">
										<g id="About-us">
											<g id="Tools-logo">
												<g id="Group-4-Copy-4">
													<g id="Group-2" transform="translate(0.643825, 0.000000)">
														<rect id="Rectangle" x="0" y="0" class="st10" width="60.1" height="59.2"/>
														<g id="Group" transform="translate(2.941361, 1.076418)">
															<g id="Group-3">
																<path id="Line" class="st3" d="M24.1,44.2c0,5.3,4.3,8.6,9.5,7.3l9.9-2.4L43,47l-9.9,2.4c-3.8,0.9-6.8-1.4-6.8-5.2
																	l0.1-38.8l-2.2,0L24.1,44.2z"/>
																<path id="Shape" class="st9" d="M36.1,48c0-3.9,3.2-7,7.1-7s7.1,3.1,7.1,7s-3.2,7-7.1,7S36.1,51.9,36.1,48z"/>
																<path id="Shape_1_" class="st0" d="M25.2,14.3c-3.9,0-7-3.2-7-7.1s3.1-7.1,7-7.1s7,3.2,7,7.1S29.1,14.3,25.2,14.3z"
																	/>
																<path id="Shape_2_" class="st3" d="M43.3,28.4L43.3,28.4c-3.9,0-7.1-3.1-7.1-7l0,0c0-3.9,3.2-7,7.1-7l0,0
																	c3.9,0,7.1,3.1,7.1,7l0,0C50.4,25.2,47.2,28.4,43.3,28.4L43.3,28.4z"/>
																<polygon id="Line_1_" class="st3" points="42.4,22.7 41.9,20.6 8.1,28.9 8.6,31 																"/>
																<path id="Shape_3_" class="st8" d="M7.2,37.3L7.2,37.3c-3.9,0-7.1-3.1-7.1-7l0,0c0-3.9,3.2-7,7.1-7l0,0
																	c3.9,0,7.1,3.1,7.1,7l0,0C14.3,34.1,11.1,37.3,7.2,37.3L7.2,37.3z"/>
															</g>
														</g>
													</g>
												</g>
											</g>
										</g>
									</g>
								</g>
							</g>
						</g>
					</g>
				</g>
			</g>
			<text transform="matrix(1 0 0 1 340 684)" class="st0 st11 st12">THIS IS US</text>
			<text transform="matrix(1 0 0 1 0 386)" class="st3 st11 st12">AROUND THE WORLD</text>
			<text transform="matrix(1 0 0 1 5 88)" class="st3 st11 st12">THE TOOLS TEAM</text>
			
				<g id="Group-15" transform="translate(407.269377, 547.700390) rotate(15.000000) translate(-407.269377, -547.700390) translate(376.769377, 489.700390)">
				<path id="Path-3" class="st13" d="M58.6,4.4c-14.9,7-67.8,38.7-56.9,111.1"/>
				<polyline id="Path-5" class="st13" points="50.4,3.5 59,4.2 54.8,11 				"/>
			</g>
			
				<g id="Group-15-Copy" transform="translate(304.729734, 356.615832) rotate(-299.000000) translate(-304.729734, -356.615832) translate(253.729734, 261.115832)">
				<path id="Path-3_1_" class="st13" d="M99.6,4.4c-14.9,7-118.4,79.7-95.5,185.9"/>
				<polyline id="Path-5_1_" class="st13" points="91.4,3.5 100,4.2 95.8,11 				"/>
			</g>
			<g id="Group-19" transform="translate(342.000000, 173.000000)">
				<path id="Path-3_2_" class="st13" d="M31.7,0.8c-1.4,16.4,15.9,117.1,119.3,126"/>
				<polyline id="Path-5_2_" class="st13" points="144.7,131.2 152,126.6 145.1,122.6 				"/>
			</g>
			<text transform="matrix(1 0 0 1 5 125)" class="st3 st1 st2">A healthy mix of designers, engineers, data </text>
			<text transform="matrix(1 0 0 1 5 149)" class="st3 st1 st2">scientists, writers &amp; product managers.</text>
			<text transform="matrix(1 0 0 1 0 423)" class="st3 st1 st2">We work as discrete teams </text>
			<text transform="matrix(1 0 0 1 0 447)" class="st3 st1 st2">around the world, but </text>
			<text transform="matrix(1 0 0 1 0 471)" class="st3 st1 st2">we share a common goal </text>
			<text transform="matrix(1 0 0 1 0 495)" class="st3 st1 st2">of creating top-notch </text>
			<text transform="matrix(1 0 0 1 0 519)" class="st3 st1 st2">experiences for our </text>
			<text transform="matrix(1 0 0 1 0 543)" class="st3 st1 st2">internal customers and </text>
			<text transform="matrix(1 0 0 1 0 567)" class="st3 st1 st2">users.</text>
			<text transform="matrix(1 0 0 1 340 721)" class="st0 st1 st2">We in Walldorf operate as a fairly autonomous </text>
			<text transform="matrix(1 0 0 1 340 745)" class="st0 st1 st2">team within SAP, designing and building a </text>
			<text transform="matrix(1 0 0 1 340 769)" class="st0 st1 st2">variety of products and services mostly for </text>
			<text transform="matrix(1 0 0 1 340 793)" class="st0 st1 st2">internal usage.</text>
			<text transform="matrix(1 0 0 1 5 349)" class="st3 st14 st15"></text>
			<text transform="matrix(1 0 0 1 346 647)" class="st0 st14 st16"></text>
			<text transform="matrix(1 0 0 1 517.0771 41)" class="st3 st11 st17">SAP</text>
			<text transform="matrix(1 0 0 1 615 312)" class="st18 st19">SAP Tools</text>
			<text transform="matrix(1 0 0 1 7 52)" class="st3 st14 st15"></text>
		</g>
	</g>
</g>
</svg>
