<?xml version="1.0" encoding="UTF-8"?>
<svg width="309px" height="77px" viewBox="0 0 309 77" version="1.1" xmlns="http://www.w3.org/2000/svg" xmlns:xlink="http://www.w3.org/1999/xlink">
    <!-- Generator: sketchtool 42 (36781) - http://www.bohemiancoding.com/sketch -->
    <title>D8032034-F21D-4446-9DE3-9AF09ABAC445</title>
    <desc>Created with sketchtool.</desc>
    <defs></defs>
    <g id="Page-2" stroke="none" stroke-width="1" fill="none" fill-rule="evenodd">
        <g id="WORK-mailwave" transform="translate(-566.000000, -147.000000)">
            <g id="16c0d4ef14b81a337a4d01100a0c67f7-copy" transform="translate(566.000000, 147.000000)">
                <g id="logo">
                    <g id="Final">
                        <g id="mainpage-copy-4">
                            <g id="Group-23">
                                <g id="logo">
                                    <g id="Group-7" transform="translate(0.078679, 0.143175)">
                                        <path d="M64.7089145,70.2250838 C49.3829418,70.2250838 36.9540322,57.7664311 36.9540322,42.3932312 L36.7871835,33.9775908 C36.7877563,23.9504327 28.6272934,15.7707656 18.5554764,15.7707656 C8.48294156,15.7707656 0.322316716,23.9502708 0.322316716,34.0351799 C0.322316716,35.6364113 1.62213518,36.9344658 3.22554252,36.9344658 C4.82894986,36.9344658 6.12876833,35.6364113 6.12876833,34.0351799 C6.12876833,27.1479807 11.6945348,21.5693374 18.5554764,21.5693374 C25.4156484,21.5693374 30.9813047,27.1480915 30.9813047,34.0351799 L31.1481534,42.4508203 C31.1475806,60.9640385 46.171245,76.0236556 64.7089145,76.0236556 C83.2473149,76.0236556 98.2711283,60.9641878 98.2711283,42.3932312 C98.2711283,40.7919998 96.9713098,39.4939453 95.3679025,39.4939453 C93.7644952,39.4939453 92.4646767,40.7919998 92.4646767,42.3932312 C92.4646767,57.7665545 80.035644,70.2250838 64.7089145,70.2250838 Z" id="Stroke-1" fill="#12B8C4"></path>
                                        <path d="M64.7088265,60.6576454 C74.7813615,60.6576454 82.9419862,52.4781403 82.9419862,42.3932312 L83.1068156,34.0924643 C83.1073824,18.6621737 95.536978,6.20332718 110.863144,6.20332718 C112.466552,6.20332718 113.76637,4.90527267 113.76637,3.30404129 C113.76637,1.70280989 112.466552,0.404755384 110.863144,0.404755384 C92.325333,0.404755384 77.3009307,15.464515 77.3009307,34.0351799 L77.1361014,42.3359466 C77.1355346,49.2804302 71.5697681,54.8590737 64.7088265,54.8590737 C57.8486545,54.8590737 52.2829984,49.2803195 52.2829984,42.3932312 C52.2829984,40.7919998 50.9831799,39.4939453 49.3797724,39.4939453 C47.7763651,39.4939453 46.4765466,40.7919998 46.4765466,42.3932312 C46.4765466,52.4779782 54.6370095,60.6576454 64.7088265,60.6576454 Z" id="Stroke-3" fill="#F40707"></path>
                                        <path d="M38.7960079,34.5513191 L38.8118496,42.3993424 C38.8118437,56.7215086 50.404143,68.3404742 64.7095304,68.3404742 C79.0141913,68.3404742 90.6063373,56.7213552 90.6063373,42.3934958 L90.7720405,34.0930335 C90.7726132,22.9047539 99.7695618,13.8861559 110.862968,13.8861559 C112.466376,13.8861559 113.766194,12.5881014 113.766194,10.98687 C113.766194,9.38563863 112.466376,8.08758411 110.862968,8.08758411 C96.5578477,8.08758411 84.9661616,19.7071634 84.9661616,34.0354444 L84.8004585,42.3359067 C84.7998857,53.5236622 75.8025809,62.5419023 64.7095304,62.5419023 C53.615719,62.5419023 44.6182952,53.5237814 44.6182952,42.3934958 L44.6024537,34.5454724 C44.6024595,19.9083563 32.7548946,8.03291022 18.1355637,8.03291022 C16.5321564,8.03291022 15.232338,9.33096473 15.232338,10.9321961 C15.232338,12.5334275 16.5321564,13.831482 18.1355637,13.831482 C29.5432496,13.831482 38.7960079,23.1060152 38.7960079,34.5513191 Z" id="Stroke-5" fill="#F2A906"></path>
                                    </g>
                                    <path d="M144.467915,35.9614537 L144.467915,36.471728 C144.467915,37.5386652 144.700173,39.8117054 147.115657,39.8117054 C149.577592,39.8117054 149.80985,37.5386652 149.80985,36.471728 L149.80985,35.9614537 L149.763399,29.1887218 C149.763399,26.6837389 150.506625,24.8281959 153.015012,24.8281959 C155.523399,24.8281959 156.266625,26.6837389 156.266625,29.1887218 C156.266625,30.5803792 156.313076,33.8275793 156.359528,35.5903452 C156.40598,37.8633853 156.498883,39.8117054 159.239528,39.8117054 C161.376302,39.8117054 161.60856,37.5386652 161.60856,36.471728 L161.60856,35.9614537 L161.515657,29.1423332 C161.515657,27.3795675 161.236947,24.4106987 159.378883,22.3696014 C158.124689,20.9779442 156.452431,20.0037841 153.386625,19.9573956 C150.64598,19.911007 148.369851,20.9779442 147.115657,22.3696014 C145.861463,20.9779442 144.003399,19.911007 141.216302,19.9573956 C138.243399,20.0037841 136.385334,20.9315556 135.131141,22.2304358 C133.08727,24.3179216 132.80856,27.3331789 132.80856,29.1423332 L132.715657,35.9614537 L132.715657,36.471728 C132.715657,37.5386652 132.947915,39.8117054 135.084689,39.8117054 C137.778883,39.8117054 137.871786,37.8633853 137.918238,35.5903452 C137.964689,33.8275793 138.011141,30.5803792 138.011141,29.1887218 C138.011141,26.6837389 138.754367,24.8281959 141.262754,24.8281959 C143.771141,24.8281959 144.514367,26.6837389 144.514367,29.1887218 L144.467915,35.9614537 Z M167.972432,22.8798758 C166.253722,24.6890301 165.417592,27.1476245 165.371141,30.0237162 C165.324689,32.9925849 166.253722,35.2656251 167.879527,36.8892252 C169.551785,38.4664367 171.827914,39.3478197 174.84727,39.3014311 C176.984044,39.2550425 179.353076,38.4664367 180.932431,36.7500595 L180.978883,36.7500595 C181.396947,38.5128253 182.697592,39.3478197 184.462753,39.3478197 C185.763399,39.3014311 186.924689,38.6056024 187.342754,37.3067224 C187.993077,35.4975681 187.203399,34.5697966 186.36727,33.966745 C185.716948,33.5028594 185.252431,33.0853622 184.880819,32.2967564 C184.64856,31.6473164 184.695012,30.9050991 184.741463,30.162882 L184.741463,28.6320589 C184.602109,25.9415217 183.673077,23.946813 182.140173,22.5087671 C180.375012,20.8851671 178.145335,20.0501727 175.683399,19.9573956 C172.84985,19.911007 169.969851,20.7923898 167.972432,22.8798758 L167.972432,22.8798758 Z M174.986625,34.6625737 C173.500172,34.6625737 170.387914,33.7348022 170.480819,29.7917734 C170.480819,27.1940131 171.920819,24.7818072 174.754367,24.6426415 C175.683399,24.6426415 177.076947,24.8281959 178.098883,25.802356 C178.935012,26.5445731 179.585334,27.7506761 179.678237,29.4670533 C179.771141,32.2039791 177.587915,34.616185 174.986625,34.6625737 L174.986625,34.6625737 Z M194.264044,16.3390868 C194.589205,16.3390868 197.376302,15.8288124 197.236948,12.8599437 C197.097592,9.98385207 194.867915,9.56635489 193.613722,9.56635489 C193.613722,9.56635489 190.455012,9.56635489 190.455012,13.1382751 C190.408559,16.6638067 193.985334,16.3854753 194.264044,16.3390868 L194.264044,16.3390868 Z M196.215012,23.1582073 C196.215012,23.1582073 196.633077,19.3543441 193.84598,19.3543441 C191.151786,19.3543441 191.058883,21.2562757 191.012432,23.5293158 C190.873076,29.8381619 190.826625,35.7295109 190.826625,35.7295109 C190.826625,35.7295109 190.408559,39.5797626 193.195656,39.5797626 C195.889851,39.5797626 195.982753,37.6314423 196.029205,35.3584023 C196.16856,29.0959447 196.215012,23.1582073 196.215012,23.1582073 L196.215012,23.1582073 Z M206.480819,11.839395 C206.480819,10.1230178 206.387915,7.98914337 204.065334,7.98914337 C201.37114,7.98914337 201.278237,9.93746349 201.231786,12.2105036 C201.09243,18.4729612 201.045979,35.9614537 201.045979,35.9614537 C201.045979,35.9614537 200.627915,39.8117054 203.415012,39.8117054 C206.155656,39.8117054 206.248561,37.8633853 206.295012,35.5903452 C206.434366,29.3278876 206.434366,13.3238294 206.480819,11.839395 L206.480819,11.839395 Z M227.291142,23.0190415 C227.291142,21.9521043 227.058883,19.6790642 224.643399,19.6790642 C222.181463,19.6790642 221.949206,21.9521043 221.949206,23.0190415 L221.995657,30.3948248 C221.995657,32.667865 221.484689,34.7089621 218.744044,34.7089621 C216.235657,34.7089621 215.492432,32.4823106 215.492432,29.9773276 C215.492432,28.5856705 215.445979,25.6631903 215.399527,23.9004244 C215.353076,21.6273842 215.260173,19.6790642 212.565979,19.6790642 C210.429206,19.6790642 210.196948,21.9521043 210.196948,23.0190415 L210.28985,30.1164933 C210.28985,32.8534192 210.893721,35.1264593 212.194367,36.7500595 C213.587915,38.3736596 215.771142,39.3478197 218.697592,39.3014311 C221.020173,39.2550425 222.971141,38.4664367 224.643399,36.9356138 C225.897593,38.3736596 227.709205,39.2550425 230.449851,39.3478197 C233.376302,39.2550425 235.466625,38.4664367 236.860174,36.9356138 C238.300174,35.4047908 238.950496,32.9925849 238.950496,30.0701047 L239.043398,23.0190415 C239.043398,21.4418299 238.578883,19.6790642 236.720818,19.6790642 C233.980173,19.6790642 233.88727,21.6273842 233.840819,23.9004244 C233.794367,25.6631903 233.747914,28.5856705 233.747914,29.9773276 C233.747914,32.4823106 233.00469,34.7089621 230.496302,34.7089621 C227.709205,34.7089621 227.244689,32.6214763 227.244689,30.3948248 L227.291142,23.0190415 Z M245.40727,22.8798758 C243.688561,24.6890301 242.852431,27.1476245 242.80598,30.0237162 C242.759527,32.9925849 243.688561,35.2656251 245.314367,36.8892252 C246.986626,38.4664367 249.262754,39.3478197 252.282108,39.3014311 C254.418883,39.2550425 256.787914,38.4664367 258.36727,36.7500595 L258.413721,36.7500595 C258.831787,38.5128253 260.132431,39.3478197 261.897592,39.3478197 C263.198237,39.3014311 264.359528,38.6056024 264.777593,37.3067224 C265.427915,35.4975681 264.638237,34.5697966 263.802108,33.966745 C263.151786,33.5028594 262.687269,33.0853622 262.315657,32.2967564 C262.083399,31.6473164 262.12985,30.9050991 262.176301,30.162882 L262.176301,28.6320589 C262.036947,25.9415217 261.107916,23.946813 259.575011,22.5087671 C257.809851,20.8851671 255.580173,20.0501727 253.118237,19.9573956 C250.284689,19.911007 247.404689,20.7923898 245.40727,22.8798758 L245.40727,22.8798758 Z M252.421464,34.6625737 C250.935013,34.6625737 247.822753,33.7348022 247.915657,29.7917734 C247.915657,27.1940131 249.355657,24.7818072 252.189205,24.6426415 C253.118237,24.6426415 254.511786,24.8281959 255.533722,25.802356 C256.369851,26.5445731 257.020173,27.7506761 257.113076,29.4670533 C257.20598,32.2039791 255.022754,34.616185 252.421464,34.6625737 L252.421464,34.6625737 Z M267.193076,23.4365386 C269.00469,26.6373502 270.258882,29.5598304 271.32727,31.6473164 C272.48856,33.7811906 273.742754,36.1470081 274.950496,38.2344939 C275.415013,39.0694883 275.833076,39.626151 277.040818,39.626151 C278.062754,39.626151 278.620173,39.0230996 279.131141,38.2344939 C281.68598,34.2450765 283.915657,29.5134419 286.145335,25.2920815 C286.702754,24.1787559 287.260174,23.0190415 287.306625,22.2304358 C287.399528,20.6532241 286.377592,19.6326755 284.798238,19.6790642 C283.265334,19.7254526 282.754367,20.560447 282.150495,21.8129386 C280.478238,25.2456931 278.80598,29.3278876 277.180173,32.2039791 C275.879528,29.930939 274.857593,27.425956 273.789206,25.0137502 C273.231786,23.8076473 272.581463,22.2768243 271.931141,21.1634986 C271.32727,20.0965614 270.491141,19.6790642 269.655012,19.6790642 C267.471786,19.6790642 266.356947,21.5809956 267.193076,23.4365386 L267.193076,23.4365386 Z M299.56985,39.3478197 C306.723399,39.3478197 309.556948,34.7553508 307.187914,32.7142536 C305.933722,31.6473164 304.911785,32.2039791 303.796947,33.0853622 C302.356947,34.2914651 301.381464,34.5697966 299.523399,34.5234079 C297.24727,34.4770193 294.924689,33.2245279 294.878238,30.7195449 C297.990496,31.5545391 302.682108,32.0648134 305.608561,30.5339905 C307.002109,29.7917734 308.070496,28.5856705 308.163399,26.4981845 C308.256302,24.5498644 307.280819,22.6943214 305.608561,21.5346071 C304.122109,20.4676699 302.078237,20.0037841 300.034367,20.0037841 C297.479528,20.0037841 294.878238,20.7923898 293.066624,22.2304358 C290.976302,24.0395901 289.675657,26.7301275 289.722108,30.0237162 C289.768561,32.8998078 290.744044,35.172848 292.369851,36.7500595 C294.08856,38.4200482 296.596948,39.3478197 299.56985,39.3478197 L299.56985,39.3478197 Z M295.203399,27.2404018 C295.853721,25.2920815 297.804689,24.4570873 299.755657,24.4570873 C300.870496,24.4570873 303.239527,24.8281959 303.193076,26.3590188 C303.146625,27.657899 300.313076,27.657899 299.384045,27.657899 C297.015011,27.657899 295.714367,27.3331789 295.203399,27.2404018 L295.203399,27.2404018 Z" id="mailwave" fill="#000000"></path>
                                </g>
                            </g>
                        </g>
                    </g>
                </g>
            </g>
        </g>
    </g>
</svg>