<?xml version="1.0" encoding="UTF-8"?>
<svg width="49px" height="49px" viewBox="0 0 49 49" version="1.1" xmlns="http://www.w3.org/2000/svg" xmlns:xlink="http://www.w3.org/1999/xlink">
    <!-- Generator: sketchtool 42 (36781) - http://www.bohemiancoding.com/sketch -->
    <title>96748C2D-5AE6-45E5-9FF8-FA7036E16895</title>
    <desc>Created with sketchtool.</desc>
    <defs></defs>
    <g id="Page-2" stroke="none" stroke-width="1" fill="none" fill-rule="evenodd">
        <g id="Desktop-svgs" transform="translate(-699.000000, -4118.000000)" fill="#FEFEFE">
            <g id="Group-30" transform="translate(723.500000, 4142.500000) scale(-1, 1) translate(-723.500000, -4142.500000) translate(699.000000, 4118.000000)">
                <path d="M7.43931635,6.90405063 C6.78801911,7.55793793 6.18471218,8.16755161 5.44771793,8.91339182 C5.63967922,9.03940135 5.8693472,9.14838257 6.04074121,9.31526005 C15.2206045,18.3062104 24.3936121,27.3005665 33.5700475,36.2949226 C33.6317493,36.3562245 33.6968791,36.4175264 33.7585809,36.4788284 C34.1425035,36.8806966 34.1802102,37.2621309 33.8717009,37.5890745 C33.5494802,37.9296408 33.1312788,37.9092068 32.7165053,37.5039329 C30.7146232,35.5490824 28.7195969,33.5942318 26.7245706,31.6393812 C19.4300415,24.4908945 12.1389402,17.3390021 4.84783889,10.1939211 C4.72786308,10.0747229 4.59417575,9.97255302 4.37136353,9.77502456 C4.32680109,10.0679116 4.28223865,10.2450061 4.28223865,10.4186949 C4.27881077,11.3143843 4.26167136,12.206668 4.30966169,13.0989517 C4.32680109,13.378216 4.45363266,13.7153767 4.64902183,13.9094995 C9.88339497,19.0656733 15.1314796,24.2048188 20.3795643,29.34737 C23.7697379,32.6678914 27.1564835,35.9884129 30.550085,39.3089343 C31.0265603,39.7755102 31.266512,40.303388 31.0334161,40.9640866 C30.834599,41.526021 30.4163977,41.849559 29.8268023,41.9381062 C29.2714857,42.0198421 28.8464285,41.7678231 28.4659338,41.3932001 C26.2069607,39.1761135 23.9445598,36.9624325 21.6855867,34.7487516 C15.148619,28.3392937 8.6116514,21.9230246 2.06440013,15.5237838 C1.57764113,15.0469909 1.34111739,14.5361415 1.35482891,13.8516032 C1.38225196,12.468904 1.36511255,11.0862048 1.33083375,9.70009998 C1.31369435,9.11432594 1.49879988,8.6477501 1.90671763,8.23907054 C3.56238379,6.56688999 5.20433843,4.87427546 6.88399975,3.22593456 C7.14451865,2.97050983 7.58671521,2.7797927 7.95007051,2.76617005 C9.64344335,2.70827378 11.3368162,2.69805679 13.0267612,2.73211342 C13.3489819,2.73892475 13.7260487,2.96710417 13.9694282,3.20209492 C17.3630297,6.49877673 20.7360638,9.80908119 24.1125259,13.1193857 C29.5731391,18.4696823 35.0303245,23.8233846 40.4943656,29.1702755 C40.9502737,29.619823 41.2484992,30.1034272 41.0873889,30.7573145 C40.8097306,31.8811833 39.4420064,32.2558062 38.5747527,31.4282301 C37.2790139,30.1851631 36.0072703,28.9216621 34.728671,27.6683781 C27.345017,20.4347498 19.9647908,13.2045272 12.5879925,5.96408763 C12.344613,5.72228556 12.1012335,5.61671 11.7584455,5.62692699 C10.8603408,5.6541723 9.95880834,5.64395531 9.06070371,5.6541723 C8.87902606,5.65757796 8.70077629,5.69844592 8.42311799,5.73590821 C8.60136776,5.93343667 8.69392053,6.05263487 8.80361269,6.16161609 C16.4203626,13.6268294 24.0405404,21.0954485 31.6607182,28.5640675 C33.3438074,30.2124084 35.0234687,31.8607493 36.7065579,33.5090902 C36.9602211,33.7611093 37.1693217,34.0642133 36.9465095,34.3877513 C36.7991107,34.5989024 36.4974572,34.7964308 36.247222,34.8168648 C36.0381213,34.8338931 35.7673187,34.6261477 35.589069,34.4524589 C32.5211161,31.4588811 29.4600191,28.4550863 26.3954941,25.4546971 C20.1841751,19.3653717 13.9728561,13.2726405 7.75810922,7.183315 C7.65870069,7.08795643 7.5524364,7.00281486 7.43931635,6.90405063" id="Fill-65"></path>
                <path d="M32.4193081,8.56090569 C31.6240399,9.3612365 30.8493389,10.144539 30.016364,10.9823321 C30.8801899,11.8133139 31.7748666,12.6749466 32.6695433,13.539985 C32.8066586,13.6728059 32.9437738,13.8090324 33.080889,13.9452589 C33.5847874,14.4424857 33.6670565,14.9397125 33.3037012,15.3109298 C32.9163507,15.7093924 32.4535869,15.6549018 31.9325491,15.1406467 C31.1132857,14.3437215 30.2974502,13.5467964 29.4884705,12.7396542 C29.2759419,12.5319088 29.10112,12.286701 28.8097502,11.9427291 C28.2407221,12.6170504 27.757391,13.1857961 27.270632,13.7579475 C26.5953395,13.0734092 26.0331672,12.5046635 25.5052736,11.97338 C29.159394,8.29185831 32.8443652,4.57968561 36.4916298,0.904975204 C40.4336921,4.77040274 44.4306005,8.68691522 48.3966579,12.5795881 C44.7665327,16.2372702 41.0781336,19.9494429 37.4240133,23.6309646 C36.8892639,23.1133038 36.3133801,22.5513694 35.7272125,21.9826237 C38.7883096,18.9107156 41.8905412,15.794534 44.9687777,12.7055976 C42.0859304,9.88230295 39.2887801,7.14755554 36.5361923,4.45367608 C35.6175204,5.38001642 34.6440024,6.36084738 33.595071,7.41319725 C33.8727293,7.67202764 34.225801,7.98194298 34.5617332,8.30888663 C35.2781602,9.00364189 35.9911593,9.70861413 36.7041584,10.4135864 C37.1703501,10.8733509 37.2217683,11.3807947 36.8515572,11.7383893 C36.4779183,12.0993896 36.0151545,12.055116 35.5523906,11.6055684 C34.6097236,10.6860394 33.6670565,9.76310474 32.7243894,8.84017006 C32.6146973,8.73118884 32.4981493,8.63242462 32.4193081,8.56090569" id="Fill-66"></path>
                <path d="M21.1021614,36.5067548 C21.6986126,37.1129628 22.202511,37.6238123 22.7064094,38.1414731 C22.7646834,38.1993693 22.8161016,38.2708883 22.8435246,38.3015392 C19.312808,41.8570514 15.7992307,45.3955353 12.3302159,48.8863399 C8.38815361,45.0209124 4.39467312,41.1043999 0.438899312,37.2287554 C3.88734684,33.7549791 7.41120774,30.2062782 10.9350686,26.6575773 C11.4492507,27.1752381 12.0182788,27.7473895 12.6078742,28.3433805 C12.498182,28.4693901 12.3507832,28.6362675 12.1793892,28.833796 C12.268514,28.9393716 12.3439274,29.0483528 12.4399081,29.1403057 C13.4031424,30.0904857 14.3698046,31.03726 15.333039,31.98744 C15.7820913,32.4301762 15.8232259,32.917186 15.4598706,33.2781863 C15.103371,33.6323752 14.6029005,33.5949129 14.1572761,33.1623937 C13.2111811,32.2428647 12.2719419,31.31993 11.3292749,30.400401 C11.2161548,30.2914198 11.0996069,30.1892499 11.0173378,30.1143253 C10.2254974,30.9180618 9.45422436,31.7013643 8.61782158,32.5493744 C9.30682551,33.2066673 10.0438198,33.9082339 10.7773861,34.6098005 C11.0584723,34.8754422 11.3327027,35.1513009 11.6069332,35.4203483 C12.2102401,36.0163393 12.299365,36.4454529 11.9051587,36.8575381 C11.5212362,37.2560007 11.0207656,37.1742648 10.4483096,36.615736 C9.54334925,35.7336693 8.64181675,34.8481969 7.73342848,33.9627245 C7.63744783,33.867366 7.53118355,33.7788187 7.47633746,33.7277338 C6.2902909,34.9231215 5.12138373,36.0980752 3.98332749,37.2457837 C6.71534805,39.9192292 9.51249833,42.6539766 12.299365,45.3819127 C15.1719286,42.4870991 18.0993384,39.5343892 21.1021614,36.5067548" id="Fill-67"></path>
                <path d="M45.5926519,47.2679688 C44.9242152,47.1113083 44.0878125,46.9171856 43.2514097,46.7128458 C39.9195101,45.8988923 36.5910384,45.0815332 33.2625666,44.2675797 C32.2856208,44.0291833 31.8262848,43.5694188 31.8057175,42.7963333 C31.7782945,41.8223137 32.6284088,41.0935018 33.5847874,41.3182755 C35.6586549,41.8052853 37.7222388,42.3127291 39.7858227,42.8303899 C40.1046156,42.9121258 40.2862933,42.8678522 40.5091055,42.6192388 C41.0472827,42.0198421 41.6128829,41.4374737 42.212762,40.899379 C42.5761173,40.575841 42.6001124,40.2795483 42.4629972,39.8470291 C41.8665461,37.9262352 41.2940901,35.9986299 40.7319177,34.0676189 C40.5536679,33.4477883 40.7936195,32.9301275 41.2975179,32.5486932 C41.7842769,32.1842873 42.4869924,32.1093627 42.9223332,32.5044196 C43.2616933,32.8109293 43.5427795,33.2638825 43.6798947,33.703213 C44.6431291,36.8091777 45.5652288,39.928765 46.4976123,43.041541 C46.734136,43.8282492 46.9877991,44.6115517 47.2003277,45.4050712 C47.4608466,46.3927134 46.7752706,47.2713745 45.5926519,47.2679688" id="Fill-68"></path>
            </g>
        </g>
    </g>
</svg>