<?xml version="1.0" encoding="UTF-8"?>
<svg width="373px" height="322px" viewBox="0 0 373 322" version="1.1" xmlns="http://www.w3.org/2000/svg" xmlns:xlink="http://www.w3.org/1999/xlink">
    <!-- Generator: Sketch 46.2 (44496) - http://www.bohemiancoding.com/sketch -->
    <title>dark blue copy 2</title>
    <desc>Created with Sketch.</desc>
    <defs></defs>
    <g id="Logo-+-Sticker" stroke="none" stroke-width="1" fill="none" fill-rule="evenodd">
        <g id="Artboard" transform="translate(-1244.000000, -459.000000)">
            <g id="dark-blue-copy-2" transform="translate(1429.987149, 621.945883) rotate(2.000000) translate(-1429.987149, -621.945883) translate(1242.487149, 461.445883)">
                <path d="M211.195886,168.18794 L212.491533,10.5119837 C212.491533,10.5119837 154.833622,63.0998243 146.66877,128.968988 C138.503919,194.838152 166.104115,246.666527 166.104115,246.666527 L211.195886,168.18794 Z" id="1-1" fill="#D7E0EB"></path>
                <path d="M211.194977,168.19174 L127.558064,1.03739239e-11 C127.558064,1.03739239e-11 99.9390747,53.2113771 111.228361,118.609657 C122.517647,184.007937 162.027135,244.776672 166.104115,246.666527 L211.194977,168.19174 Z" id="2-1" fill="#D7E0EB"></path>
                <path d="M211.194977,168.19174 L51.1844701,36.7919431 C51.1844701,36.7919431 50.8194781,92.4991088 83.8438766,152.06298 C116.868275,211.626852 166.374919,246.764036 166.374919,246.764036 L211.194977,168.19174 Z" id="3-1" fill="#D7E0EB"></path>
                <path d="M206.23889,167.601059 L0.585957727,124.201991 C0.585957727,124.201991 22.4305411,161.400328 75.6012636,200.535641 C128.771986,239.670954 162.724984,246.6637 166.111021,246.6637" id="4-1" fill="#D7E0EB"></path>
                <path d="M211.957551,168.19174 L10.017473,210.509914 C10.017473,210.509914 37.7832018,234.060904 97.6496284,254.645018 C157.516055,275.229131 162.968441,266.995486 162.968441,266.995486" id="5-1" fill="#D7E0EB"></path>
                <path d="M211.194977,168.19174 L51.1844701,282.659301 C51.1844701,282.659301 87.157701,291.946395 149.913377,283.982441 C212.669053,276.018486 217.145181,242.294549 217.145181,242.294549 L211.194977,168.19174 Z" id="6-1" fill="#D7E0EB"></path>
                <path d="M211.194977,168.19174 L164.623662,74.0977058 C164.623662,74.0977058 145.239649,100.96744 145.118543,154.650879 C144.997436,208.334319 166.107846,246.773363 166.107846,246.773363 L211.194977,168.19174 Z" id="1-2" fill="#B5C2D3"></path>
                <path d="M211.194977,168.19174 L108.81131,84.0958699 C108.81131,84.0958699 106.488483,116.873016 124.67369,166.719982 C142.858897,216.566949 166.104115,246.666527 166.104115,246.666527 L211.194977,168.19174 Z" id="2-2" fill="#B5C2D3"></path>
                <path d="M211.194977,168.19174 L78.1745758,140.745265 C78.1745758,140.745265 85.330448,161.887297 122.150963,205.52453 C158.971477,249.161762 166.104115,246.666527 166.104115,246.666527 L211.194977,168.19174 Z" id="3-2" fill="#B5C2D3"></path>
                <path d="M211.195886,168.18794 L72.1395742,197.644602 C75.7041802,199.512228 92.4625844,212.978847 115.381717,226.083242 C138.300849,239.187636 166.111021,246.6637 166.111021,246.6637" id="4-2" fill="#B5C2D3"></path>
                <path d="M211.194977,168.19174 L92.8810855,252.813201 C92.8810855,252.813201 109.022832,258.39318 133.854717,265.013203 C146.627504,268.418348 156.475404,269.571252 156.475404,269.571252 L211.194977,168.19174 Z" id="5-2" fill="#B5C2D3"></path>
                <path d="M211.194977,168.19174 L149.004114,116.879923 C149.004114,116.879923 141.81119,140.364809 147.038827,183.118363 C152.266463,225.871917 166.104025,246.663944 166.104025,246.663944 L211.194977,168.19174 Z" id="1-3" fill="#919FB1"></path>
                <path d="M211.194977,168.19174 L118.8918,148.949753 C118.8918,148.949753 125.404367,176.17294 140.311949,204.890334 C155.219531,233.607729 166.111021,246.6637 166.111021,246.6637 L211.194977,168.19174 Z" id="2-3" fill="#919FB1"></path>
                <path d="M211.194977,168.19174 L109.306006,189.929145 C109.306006,189.929145 115.517369,199.338604 134.387162,219.001981 C153.256955,238.665358 166.111021,246.6637 166.174696,246.411372 L211.194977,168.19174 Z" id="3-3" fill="#919FB1"></path>
                <path d="M211.830426,168.19174 L123.561792,230.610769 C123.561792,230.610769 134.901335,236.007264 142.574022,239.038414 C150.246708,242.069564 166.111021,246.6637 166.111021,246.6637" id="4-3" fill="#919FB1"></path>
                <path d="M211.194977,168.19174 L145.288819,154.445525 C145.288819,154.445525 145.463479,174.76175 150.889859,201.509826 C157.17086,228.228058 163.126779,242.196008 166.104025,246.663944" id="1-4" fill="#5F6B7B"></path>
                <path d="M211.194977,168.19174 L131.388462,185.200507 C130.465295,185.232744 138.063445,201.760066 147.169376,217.48602 C156.275307,233.211974 166.111021,246.6637 166.111021,246.6637 L211.194977,168.19174 Z" id="2-4" fill="#5F6B7B"></path>
                <path d="M211.194977,168.19174 L136.613282,221.491267 C136.613282,221.491267 147.745144,231.812459 153.182344,236.528771 C158.619543,241.245083 166.111021,246.6637 166.111021,246.6637 L211.194977,168.19174 Z" id="3-4" fill="#5F6B7B"></path>
                <path d="M211.450319,168.19174 L145.580475,214.867515 C145.580475,214.867515 151.692784,225.701097 155.132402,231.112693 C158.57202,236.52429 166.111021,246.6637 166.111021,246.6637" id="2-5" fill="#415065"></path>
                <path d="M211.195886,168.18794 L147.62515,181.531671 C147.62515,181.531671 150.771048,198.107518 154.460901,211.883414 C158.150754,225.65931 166.111021,246.6637 166.111021,246.6637 L211.195886,168.18794 Z" id="1-5" fill="#415065"></path>
                <path d="M129.365624,320.773643 C129.365624,320.773643 202.193062,307.242133 235.508695,259.021302 C268.824328,210.800471 251.838398,184.918492 272.250527,164.334379 C299.825983,136.526582 374.311173,156.100733 374.311173,156.100733 C374.311173,156.100733 272.250527,131.399797 260.00325,131.399797 C247.755972,131.399797 223.442254,131.140335 211.194977,168.19174 C209.239876,174.10646 153.83349,209.231334 153.83349,209.231334 L166.107456,246.670834 L129.365624,320.773643 Z" id="Oval-2" fill="#313D4D"></path>
            </g>
        </g>
    </g>
</svg>