<?xml version="1.0" encoding="UTF-8"?>
<svg width="291px" height="251px" viewBox="0 0 291 251" version="1.1" xmlns="http://www.w3.org/2000/svg" xmlns:xlink="http://www.w3.org/1999/xlink">
    <!-- Generator: Sketch 46.2 (44496) - http://www.bohemiancoding.com/sketch -->
    <title>green copy 2</title>
    <desc>Created with Sketch.</desc>
    <defs></defs>
    <g id="Poster" stroke="none" stroke-width="1" fill="none" fill-rule="evenodd">
        <g id="A4-Copy-4" transform="translate(-471.000000, -127.000000)">
            <g id="green-copy-2" transform="translate(615.914166, 255.947272) rotate(4.000000) translate(-615.914166, -255.947272) translate(468.914166, 129.947272)">
                <path d="M165.496289,131.768852 L166.512599,8.2880568 C166.512599,8.2880568 121.285531,49.4711803 114.880992,101.055309 C108.476454,152.639437 130.126145,193.2278 130.126145,193.2278 L165.496289,131.768852 Z" id="1-1" fill="#9A9DA1"></path>
                <path d="M165.495577,131.771828 L99.8904866,0.0558053941 C99.8904866,0.0558053941 78.2260537,41.7272391 87.0814097,92.9426039 C95.9367657,144.157969 126.928147,191.747798 130.126145,193.2278 L165.495577,131.771828 Z" id="2-1" fill="#9A9DA1"></path>
                <path d="M165.495577,131.771828 L39.9827697,28.8686853 C39.9827697,28.8686853 39.6964687,72.4946464 65.6009235,119.14091 C91.5053783,165.787173 130.338565,193.304162 130.338565,193.304162 L165.495577,131.771828 Z" id="3-1" fill="#9A9DA1"></path>
                <path d="M161.608004,131.309248 L0.293117787,97.3221292 C0.293117787,97.3221292 17.4280862,126.453268 59.1353887,157.101312 C100.842691,187.749355 127.475543,193.225586 130.131562,193.225586" id="4-1" fill="#9A9DA1"></path>
                <path d="M166.093742,131.771828 L7.69123167,164.912466 C7.69123167,164.912466 29.4707675,183.355956 76.4302039,199.475996 C123.38964,215.596036 127.666512,209.14802 127.666512,209.14802" id="5-1" fill="#9A9DA1"></path>
                <path d="M165.495577,131.771828 L39.9827697,221.414826 C39.9827697,221.414826 68.200299,228.68783 117.426073,222.451017 C166.651847,216.214204 170.162938,189.803972 170.162938,189.803972 L165.495577,131.771828 Z" id="6-1" fill="#9A9DA1"></path>
                <path d="M165.495577,131.771828 L128.964873,58.0839529 C128.964873,58.0839529 113.759985,79.126452 113.664988,121.167572 C113.569992,163.208692 130.129072,193.311466 130.129072,193.311466 L165.495577,131.771828 Z" id="1-2" fill="#CACACA"></path>
                <path d="M165.495577,131.771828 L85.1854667,65.9138166 C85.1854667,65.9138166 83.3634328,91.5825878 97.6279734,130.61925 C111.892514,169.655913 130.126145,193.2278 130.126145,193.2278 L165.495577,131.771828 Z" id="2-2" fill="#CACACA"></path>
                <path d="M165.495577,131.771828 L61.1539039,110.277666 C61.1539039,110.277666 66.7669953,126.834629 95.6491371,161.008261 C124.531279,195.181894 130.126145,193.2278 130.126145,193.2278 L165.495577,131.771828 Z" id="3-2" fill="#CACACA"></path>
                <path d="M165.496289,131.768852 L56.4200273,154.837252 C59.2161168,156.299846 72.3614683,166.845962 90.3393165,177.108408 C108.317165,187.370855 130.131562,193.225586 130.131562,193.225586" id="4-2" fill="#CACACA"></path>
                <path d="M165.495577,131.771828 L72.689742,198.041445 C72.689742,198.041445 85.3513852,202.411295 104.829604,207.595635 C114.848622,210.262306 122.57335,211.16518 122.57335,211.16518 L165.495577,131.771828 Z" id="5-2" fill="#CACACA"></path>
                <path d="M165.495577,131.771828 L116.712844,91.5879967 C116.712844,91.5879967 111.070689,109.979719 115.171266,143.461316 C119.271842,176.942914 130.126074,193.225777 130.126074,193.225777 L165.495577,131.771828 Z" id="1-3" fill="#DDDCDC"></path>
                <path d="M165.495577,131.771828 L93.0926381,116.702848 C93.0926381,116.702848 98.2011187,138.022146 109.894679,160.511604 C121.588239,183.001061 130.131562,193.225586 130.131562,193.225586 L165.495577,131.771828 Z" id="2-3" fill="#DDDCDC"></path>
                <path d="M165.495577,131.771828 L85.5735074,148.795045 C85.5735074,148.795045 90.445723,156.163876 105.247255,171.562859 C120.048787,186.961843 130.131562,193.225586 130.181509,193.02798 L165.495577,131.771828 Z" id="3-3" fill="#DDDCDC"></path>
                <path d="M165.994025,131.771828 L96.7557962,180.654052 C96.7557962,180.654052 105.650575,184.880209 111.669057,187.253994 C117.687539,189.627779 130.131562,193.225586 130.131562,193.225586" id="4-3" fill="#DDDCDC"></path>
                <path d="M165.495577,131.771828 L113.798553,121.006752 C113.798553,121.006752 113.935557,136.917001 118.192029,157.864226 C123.118869,178.788078 127.790712,189.726802 130.126074,193.225777" id="1-4" fill="#EEEEEE"></path>
                <path d="M165.495577,131.771828 L102.895064,145.091906 C102.170929,145.117152 108.130945,158.060196 115.273669,170.375665 C122.416393,182.691134 130.131562,193.225586 130.131562,193.225586 L165.495577,131.771828 Z" id="2-4" fill="#EEEEEE"></path>
                <path d="M165.495577,131.771828 L106.993431,173.512294 C106.993431,173.512294 115.725303,181.595131 119.990262,185.288617 C124.25522,188.982103 130.131562,193.225586 130.131562,193.225586 L165.495577,131.771828 Z" id="3-4" fill="#EEEEEE"></path>
                <path d="M165.695867,131.771828 L114.027329,168.325035 C114.027329,168.325035 118.821846,176.809139 121.519895,181.047124 C124.217943,185.285108 130.131562,193.225586 130.131562,193.225586" id="2-5" fill="#F6F6F6"></path>
                <path d="M165.496289,131.768852 L115.63118,142.21873 C115.63118,142.21873 118.098833,155.199776 120.993167,165.988095 C123.8875,176.776415 130.131562,193.225586 130.131562,193.225586 L165.496289,131.768852 Z" id="1-5" fill="#F6F6F6"></path>
                <path d="M101.308343,251.263317 C101.308343,251.263317 158.434442,240.666383 184.567343,202.903197 C210.700243,165.14001 197.37642,144.871052 213.387766,128.751012 C235.018051,106.973888 293.444497,122.302996 293.444497,122.302996 C293.444497,122.302996 213.387766,102.958948 203.780958,102.958948 C194.17415,102.958948 175.102384,102.755756 165.495577,131.771828 C163.961989,136.403824 120.501024,163.911171 120.501024,163.911171 L130.128766,193.231173 L101.308343,251.263317 Z" id="Oval-2" fill="#FFFFFF"></path>
            </g>
        </g>
    </g>
</svg>