<?xml version="1.0" encoding="UTF-8"?>
<svg width="26px" height="73px" viewBox="0 0 26 73" version="1.1" xmlns="http://www.w3.org/2000/svg" xmlns:xlink="http://www.w3.org/1999/xlink">
    <!-- Generator: sketchtool 42 (36781) - http://www.bohemiancoding.com/sketch -->
    <title>6EB05B6A-A38A-49D6-8C63-848EF6F16823</title>
    <desc>Created with sketchtool.</desc>
    <defs>
        <polygon id="path-1" points="0 72.7824698 25.8757778 72.7824698 25.8757778 0 0 0"></polygon>
    </defs>
    <g id="Page-2" stroke="none" stroke-width="1" fill="none" fill-rule="evenodd">
        <g id="Desktop-svgs" transform="translate(-708.000000, -3408.000000)">
            <g id="Group-32" transform="translate(708.000000, 3408.000000)">
                <path d="M13.9928148,47.1703463 L12.220963,47.1703463 C12.3071481,49.8326416 12.3697407,52.4474134 12.4915556,55.0597356 C12.5242963,55.7652389 12.726037,56.4643732 12.8772222,57.1605678 C12.9056296,57.2933396 13.0592222,57.3981852 13.155037,57.5157691 C13.2503704,57.4011248 13.3567778,57.2933396 13.4367037,57.1688966 C13.4838889,57.0958966 13.4915926,56.9959503 13.5118148,56.9067826 C14.2321111,53.7040913 14.0419259,50.4592658 13.9928148,47.1703463 Z M19.3550741,4.45554765 C19.2380741,4.43007114 19.187037,4.40900403 19.136,4.40900403 C15.3135185,4.40655436 11.491037,4.41047383 7.66855556,4.3967557 C7.27277778,4.39528591 7.22077778,4.59762819 7.22848148,4.90628591 C7.29396296,7.47696376 8.008,9.79434631 9.9267037,11.5669235 C11.2945926,12.8304604 12.8993704,13.3056953 14.7304444,12.7280644 C16.0901481,12.2988832 17.0555185,11.3709503 17.8287778,10.212749 C18.9814444,8.48671544 19.4571481,6.56666846 19.3550741,4.45554765 Z M21.411963,9.79865772e-05 C21.410037,1.96129933 21.5414815,3.93425906 21.3763333,5.88125235 C21.1062222,9.06140671 19.8331852,11.7937624 17.2042963,13.6888228 C16.5302222,14.1748362 15.6996667,14.4511584 14.9158148,14.7573664 C14.5624074,14.8955275 14.3987037,15.0194805 14.3991852,15.4364134 C14.4112222,24.8166685 14.4083333,34.1969235 14.4097778,43.5771785 C14.4097778,43.756004 14.4338519,43.9348295 14.4502222,44.1616685 L25.1140741,44.1616685 C25.1400741,44.5908497 25.1814815,44.9710376 25.1834074,45.3512255 C25.1944815,47.8469436 24.4515556,50.2755409 24.3427407,52.7663597 C24.1881852,56.2963262 22.7938148,59.035051 20.9771852,62.0770443 C19.812963,64.0264872 18.8355556,65.4139772 16.874963,66.5721785 C14.0347037,68.2501987 11.921963,69.4755208 8.918,68.0199302 C5.57459259,66.3997221 4.39303704,63.6183732 2.99144444,60.2579235 C1.69625926,57.1507691 0.422259259,53.8275544 0.467518519,50.4715141 C0.494962963,48.399098 0.472333333,46.3261919 0.472333333,44.194494 L11.5112593,44.194494 C11.5232963,43.9456081 11.5406296,43.7520846 11.5406296,43.5580711 C11.5420741,34.1410711 11.5391852,24.7245611 11.5512222,15.3075611 C11.5517037,14.8901383 11.4303704,14.6971047 11.0365185,14.5623732 C9.57040741,14.0606819 8.44759259,13.0685678 7.52025926,11.8447154 C5.6992963,9.44159463 5.06662963,6.6700443 5.12825926,3.68929262 C5.15377778,2.45956107 5.15811111,1.22982953 5.17207407,9.79865772e-05 L21.411963,9.79865772e-05 Z" id="Fill-1" fill="#FFFFFF"></path>
                <polygon id="Fill-3" fill="#FFFFFF" points="11.5114519 44.1946409 12.2211556 47.1704933 13.9930074 47.1704933 14.4504148 44.1618154"></polygon>
                <path d="M0.26337037,44.1672537 C0.26337037,44.1672537 -2.86625926,63.7684886 12.453037,72.6759584" id="Fill-5" fill="#FFFFFF"></path>
                <path d="M25.5959407,44.2735201 C25.5959407,44.2735201 28.9191259,63.874755 12.6522741,72.7822248" id="Fill-7" fill="#FFFFFF"></path>
                <polygon id="Fill-9" fill="#FFFFFF" points="12.6832333 66.8689309 16.7117889 66.2099711 16.0502333 69.0491322 12.6346037 72.6761054 9.21897407 69.0491322 7.89923333 65.7861792"></polygon>
                <mask id="mask-2" fill="white">
                    <use xlink:href="#path-1"></use>
                </mask>
                <g id="Clip-12"></g>
                <polygon id="Fill-11" fill="#FFFFFF" mask="url(#mask-2)" points="0.0914814815 45.6568456 10.3451111 45.6568456 10.3451111 44.2046846 0.0914814815 44.2046846"></polygon>
                <polygon id="Fill-13" fill="#FFFFFF" mask="url(#mask-2)" points="14.9398889 45.6710537 25.5892963 45.6710537 25.5892963 44.2188926 14.9398889 44.2188926"></polygon>
            </g>
        </g>
    </g>
</svg>