<?xml version="1.0" encoding="UTF-8"?>
<svg width="178px" height="140px" viewBox="0 0 178 140" version="1.1" xmlns="http://www.w3.org/2000/svg" xmlns:xlink="http://www.w3.org/1999/xlink">
    <!-- Generator: Sketch 53.2 (72643) - https://sketchapp.com -->
    <title>Fill 1 Copy</title>
    <desc>Created with Sketch.</desc>
    <g id="Page-1" stroke="none" stroke-width="1" fill="none" fill-rule="evenodd">
        <g id="Desktop-HD" transform="translate(-282.000000, -207.000000)" fill="#FFFFFF">
            <path d="M426.895348,275.384576 C426.890929,275.405297 426.879883,275.421656 426.87436,275.441287 C426.899766,275.825179 426.848953,276.219977 426.699827,276.601687 C426.143092,278.03801 424.508234,278.761079 423.03907,278.212507 C415.777207,275.507814 407.295828,279.955288 401.967073,283.661154 C401.938353,283.679694 401.915156,283.698234 401.88754,283.717865 C401.564987,283.942529 401.262317,284.16174 400.962961,284.37877 L400.980635,284.416941 C400.366459,284.845548 399.809723,285.257795 399.288336,285.651503 C399.075142,285.819455 398.877412,285.979774 398.687415,286.133549 C398.687415,286.133549 395.941295,288.577588 395.578975,288.903678 C395.578975,288.903678 393.743074,290.666091 393.63261,290.744614 L393.624878,290.739161 C393.602785,290.781694 393.549763,290.799144 393.512205,290.82859 C393.46802,290.858037 393.429358,290.895117 393.384068,290.920201 L393.370812,290.923473 C393.186338,291.089244 393.068142,291.200486 393.055991,291.211392 C392.95547,291.307365 392.836169,291.366257 392.724601,291.445871 L392.717973,291.440418 C392.695881,291.482951 392.642858,291.49931 392.605301,291.529847 C392.561115,291.557112 392.522453,291.595283 392.477163,291.620367 C391.564736,291.869025 390.94835,292.571372 389.566453,291.051073 C389.336689,290.799144 388.880475,289.998642 388.719199,289.803424 C388.149207,289.094533 388.024384,288.49143 388.010024,288.423813 C387.974675,287.645123 388.002291,287.252506 388.612049,286.665762 C388.693792,286.586149 389.849239,285.414842 390.024876,285.245799 C390.120979,285.153098 390.520856,284.773568 391.162649,284.214089 C391.232241,284.133385 391.291891,284.054861 391.374739,283.974157 C391.552585,283.804023 392.740066,282.67634 394.651083,281.17131 C394.929451,280.951008 395.225492,280.724163 395.533685,280.489683 C395.542522,280.48314 395.54915,280.477687 395.557987,280.471143 C396.606285,279.644467 397.874405,278.705459 399.313743,277.745729 C405.559343,273.585082 415.056986,269.055812 424.075217,271.8772 C424.530326,271.957904 424.983226,272.053877 425.429498,272.164028 C426.54076,272.436678 427.215691,273.542549 426.937324,274.63097 C426.936219,274.633151 426.936219,274.634241 426.935114,274.635332 C426.969358,274.878536 426.961626,275.131556 426.895348,275.384576 M373.645721,284.663454 C373.399407,284.904011 373.171172,285.070135 372.954236,285.208213 C372.167841,285.695798 371.631149,285.88997 371.25377,285.964402 C371.170159,285.981662 371.093327,285.993528 371.023275,286 C370.216542,285.960087 369.68324,285.69472 369.135249,285.048561 C368.999664,284.886751 366.472128,281.817766 366.067632,281.487674 C365.773864,281.115513 364.648506,279.903021 364.636077,279.890076 C364.592012,279.840454 364.519699,279.80162 364.502751,279.737975 L364.489193,279.74229 C364.353607,279.604212 364.198814,279.488788 364.082437,279.330215 C363.916345,279.098288 347.017896,256.194702 329.109336,258.932518 C326.829243,259.282026 324.388708,258.789047 324.019238,256.666107 C323.922068,256.099774 324.223746,253.687735 324.240694,253.664003 C324.845178,252.74061 325.822522,252.734138 327.315091,252.479558 C327.972679,252.369527 328.535358,252.253025 329.281078,252.147309 C351.764512,249.911103 369.069716,273.85782 369.860631,274.947337 C370.166828,275.372356 371.014236,276.279568 371.579175,277.199724 C372.067282,277.837253 372.45596,278.370146 372.737299,278.767118 C372.842378,278.974234 374.181283,280.713146 374.184672,280.720698 C374.185802,280.725012 374.652442,281.535138 374.679559,281.573973 C374.704416,281.619279 374.741702,281.69479 374.764299,281.741176 C375.304381,282.760575 374.910054,283.433702 373.645721,284.663454 M457.828927,251.91629 C456.844735,249.215909 455.032801,247.271857 451.70408,248.767879 C451.70408,248.767879 445.659123,256.317856 430.230503,253.941299 C419.033796,252.215717 405.41489,252.556175 396.443987,262.047988 C391.190156,266.524965 387.261156,273.651309 388.024543,286.331456 C388.024543,286.332565 387.871422,288.367555 387.871422,288.367555 C383.814821,290.670919 379.544072,296.809157 378.803986,297.429081 C377.706618,291.464953 376.073326,283.865071 374.876096,281.068208 C374.879425,281.063772 375.2822,280.270847 375.2822,280.270847 C381.21509,261.567797 377.845315,249.642869 371.494116,241.682567 C361.766484,226.322 342.986951,222.098981 326.976914,221.348197 C304.915262,220.312404 298.689445,208.396348 298.689445,208.396348 C294.501914,205.445336 291.437272,207.584571 289.302452,210.979177 C286.617284,213.44778 285.391205,217.542157 285.391205,217.542157 C272.938461,251.242027 296.287218,289.322392 330.831572,294.814091 C348.592517,297.63757 362.395612,292.969847 368.030027,287.153215 C373.377062,293.996768 371.27442,307.653932 369.949589,317.337599 C369.330447,321.857827 368.745702,337.326314 368.98537,340.738664 C369.188422,343.638663 370.761797,345.786769 373.30272,346.632926 C374.050573,346.882447 374.861671,347 375.692742,347 C378.306897,347 381.121886,345.827802 382.815095,343.869332 C384.377374,342.061685 384.716904,337.008225 383.743808,335.083025 C383.227856,333.852051 382.344636,318.795916 381.565715,312.923834 C381.414813,311.787124 381.26613,310.685901 381.118557,309.607966 C381.269459,309.291905 381.424799,308.973626 381.557948,308.623186 C383.230075,304.260435 386.614275,297.282694 392.35077,295.689081 C392.566027,295.923077 392.92331,296.356691 393.159649,296.591796 C397.21625,300.641813 404.397411,304.853743 416.876785,305.349459 C441.596975,306.334239 463.304672,282.693982 459.582053,257.109672 C459.582053,257.109672 459.33018,254.041108 457.828927,251.91629 Z" id="Fill-1-Copy" transform="translate(371.000000, 277.000000) scale(-1, 1) translate(-371.000000, -277.000000) "></path>
        </g>
    </g>
</svg>