<?xml version="1.0" encoding="UTF-8"?>
<svg width="189px" height="52px" viewBox="0 0 189 52" version="1.1" xmlns="http://www.w3.org/2000/svg" xmlns:xlink="http://www.w3.org/1999/xlink">
    <!-- Generator: sketchtool 42 (36781) - http://www.bohemiancoding.com/sketch -->
    <title>46317758-B50B-4CA7-B2F5-6C542F85DC64</title>
    <desc>Created with sketchtool.</desc>
    <defs></defs>
    <g id="Page-2" stroke="none" stroke-width="1" fill="none" fill-rule="evenodd">
        <g id="WORK-tobi" transform="translate(-626.000000, -145.000000)">
            <g id="Group-16" transform="translate(626.000000, 145.000000)">
                <path d="M171.819024,7.7573385 C171.819024,7.7573385 167.229981,13.0368859 168.319581,16.7732636 C169.148047,19.6138239 173.200244,18.2291347 176.552552,18.1660111 C177.10398,18.1566097 178.285042,9.23872765 171.819024,7.7573385" id="Fill-38" fill="#D26258"></path>
                <path d="M171.819024,7.7573385 C171.819024,7.7573385 167.229981,13.0368859 168.319581,16.7732636 C169.148047,19.6138239 173.200244,18.2291347 176.552552,18.1660111 C177.10398,18.1566097 178.285042,9.23872765 171.819024,7.7573385 Z" id="Stroke-40" stroke="#D26258" stroke-width="0.45"></path>
                <path d="M173.600162,5.76424558 C173.600162,5.76424558 182.031966,9.57180517 179.569099,18.8617134 C179.569099,18.8617134 181.208801,19.4472851 182.311656,17.5871546 C183.875801,14.9493955 186.206113,11.610562 184.48953,8.18980206 C182.774272,4.77038522 174.126404,1.72165144 173.600162,5.76424558" id="Fill-42" fill="#D26258"></path>
                <path d="M173.600162,5.76424558 C173.600162,5.76424558 182.031966,9.57180517 179.569099,18.8617134 C179.569099,18.8617134 181.208801,19.4472851 182.311656,17.5871546 C183.875801,14.9493955 186.206113,11.610562 184.48953,8.18980206 C182.774272,4.77038522 174.126404,1.72165144 173.600162,5.76424558 Z" id="Stroke-44" stroke="#D26258" stroke-width="0.45"></path>
                <path d="M181.690372,9.06977139 C182.525467,8.33377751 185.848613,6.38231927 185.676292,5.75914197 C185.505296,5.13730772 185.108958,3.15630229 185.108958,3.15630229 C185.108958,3.15630229 187.135719,2.47805975 187.497593,3.48132148 C187.859468,4.48592627 187.782586,6.91282581 187.782586,6.91282581 L182.370378,10.2221122 L181.690372,9.06977139 Z" id="Fill-46" fill="#D26258"></path>
                <path d="M181.690372,9.06977139 C182.525467,8.33377751 185.848613,6.38231927 185.676292,5.75914197 C185.505296,5.13730772 185.108958,3.15630229 185.108958,3.15630229 C185.108958,3.15630229 187.135719,2.47805975 187.497593,3.48132148 C187.859468,4.48592627 187.782586,6.91282581 187.782586,6.91282581 L182.370378,10.2221122 L181.690372,9.06977139 Z" id="Stroke-48" stroke="#D26258" stroke-width="0.45"></path>
                <path d="M68.7058168,10.6306416 C70.0146909,10.5787934 70.1602477,11.1087971 70.2273403,11.7643887 C70.2841985,12.3324145 69.5450428,13.0248759 68.7262857,13.0248759 C67.9075287,13.0248759 67.2229568,12.544416 67.2229568,11.8634764 C67.2229568,11.1825368 68.0235193,10.6582939 68.7058168,10.6306416 M66.0960287,20.7007127 C66.0960287,20.7007127 73.6194963,21.6973502 77.7405735,13.7749464 C77.7405735,13.7749464 74.4962487,5.65897602 63.0336498,9.165066 C63.0336498,9.165066 62.4434625,4.35585813 57.2511781,5.4746269 C57.2511781,5.4746269 55.9570871,9.48306825 59.0558551,12.1653481 C59.0558551,12.1653481 60.8059483,12.9557449 60.1384339,18.9666787 C60.1384339,18.9666787 52.7753062,20.284775 48.1243112,26.6356024 C48.1243112,26.6356024 40.2380887,38.6344263 46.0444409,51.581496 L68.4169775,51.581496 C68.4169775,51.581496 65.7639772,46.9877461 58.8909666,46.6732004 C58.8909666,46.6732004 58.3746947,36.9891103 60.3635921,31.8112042 C60.3635921,31.8112042 61.3688438,34.5073102 63.5192183,33.2433665 C65.6684555,31.9805749 67.9245861,30.6325219 70.6253472,30.6163914 C73.3272455,30.5991087 74.3154398,30.7246965 74.7043494,30.4020855 C75.093259,30.0783224 73.7696018,27.2381936 68.7160513,27.27852 C63.6613636,27.3188464 63.7807657,26.2046863 64.0605077,24.196433 C64.0605077,24.196433 64.0673306,22.8679671 66.0960287,20.7007127" id="Fill-50" fill="#D26258"></path>
                <path d="M39.505756,51.3648857 C39.974267,51.8499544 39.8537278,25.5295077 40.0447711,22.8218798 C40.1721333,21.0071931 40.0015589,13.0675066 36.8811848,8.62123607 C34.8797786,5.77073768 31.4330388,0.689614844 22.4540031,0.689614844 C12.4208176,0.690767026 7.14210893,3.53550451 3.09039865,10.6894029 C0.93888705,14.4904514 -1.98248362,21.6316758 2.94370468,30.8260885 C7.87330447,40.02511 19.7384589,37.8567034 23.5809312,35.2573807 C25.2923609,34.0982856 27.7179287,31.7455298 28.6390304,25.1665703 C28.6390304,25.1665703 20.9017762,25.6700739 22.76786,20.6384949 C22.76786,20.6384949 23.4569805,17.4872769 28.0397457,19.7559234 C31.8014795,21.6190018 33.2172469,33.8736101 33.5765903,35.7136448 C33.9370709,37.5548317 34.6739522,46.3609591 39.505756,51.3648857" id="Fill-52" fill="#D26258"></path>
                <path d="M119.763766,15.8182581 C118.432467,15.8182581 117.045241,15.6938406 115.602089,15.442542 C114.156505,15.1924751 112.65621,14.8943659 111.097556,14.5469824 L103.230126,51.6320167 L95.0210561,51.6320167 L103.117057,13.3927331 L102.489705,13.3927331 C101.007647,13.3927331 99.6106944,13.5664248 98.2988481,13.9125764 C96.9870018,14.258728 95.8477989,14.8561784 94.8788077,15.7024636 C93.9086007,16.5499808 93.1390004,17.7153169 92.568791,19.19724 C91.9997974,20.680395 91.7140849,22.5392662 91.7140849,24.7713898 C91.7140849,25.5807194 91.7420482,26.2151254 91.8004065,26.6783034 C91.8563332,27.1402495 91.9329285,27.5159657 92.0277608,27.8042201 C92.1225931,28.0924744 92.2076989,28.3240634 92.2842942,28.4965233 C92.3596737,28.670215 92.436269,28.8352838 92.5128643,28.988034 C90.4764022,28.988034 88.9603018,28.5655073 87.9633473,27.7179901 C86.9676085,26.8717048 86.4691313,25.3109429 86.4691313,23.0393998 C86.4691313,21.1903835 86.8168496,19.3906414 87.5122861,17.6377099 C88.2077227,15.8860102 89.3384151,14.3264801 90.9043632,12.9591196 C92.4703114,11.592991 94.4982628,10.4855522 96.9870018,9.63803501 C99.4769566,8.79174972 102.527394,8.36675929 106.138315,8.36675929 C107.658063,8.36675929 109.017325,8.43451139 110.214887,8.56878373 C111.411232,8.70428792 112.551651,8.85826996 113.634927,9.03072985 C114.718203,9.20442159 115.773516,9.35963548 116.798434,9.49267596 C117.825784,9.62818016 118.927297,9.6947004 120.105405,9.6947004 C121.701748,9.6947004 123.070737,9.57151477 124.211156,9.32021608 C125.350359,9.07014925 126.299897,8.79174972 127.060987,8.48255379 C126.984392,11.0238734 126.348529,12.8827445 125.150968,14.0567036 C123.954623,15.2318945 122.157673,15.8182581 119.763766,15.8182581" id="Fill-57" fill="#D26258"></path>
                <path d="M123.754624,46.5485153 C124.437902,46.5485153 125.132123,46.2504061 125.834855,45.6529557 C126.537586,45.0567373 127.184391,44.2289298 127.774053,43.1695334 C128.362499,42.110137 128.885292,40.849948 129.341217,39.3852708 C129.797141,37.9218255 130.13878,36.3438176 130.36735,34.6487833 C129.759451,34.4960331 129.349727,34.196692 129.141826,33.7532238 C128.932708,33.3122192 128.82815,32.8009988 128.82815,32.2232582 C128.82815,31.4139286 128.989851,30.7499581 129.313253,30.2301147 C129.63544,29.7102713 130.063401,29.3542649 130.594705,29.1608634 C130.519325,27.9684265 130.319934,27.1307642 129.996532,26.6491084 C129.67313,26.1686844 129.150336,25.9272406 128.429368,25.9272406 C127.402018,25.9272406 126.434243,26.4951264 125.521179,27.6308979 C124.60933,28.7679013 123.811766,30.1537396 123.127272,31.7896448 C122.442777,33.4267818 121.892021,35.1600037 121.473786,36.9880784 C121.055552,38.8173851 120.846434,40.4446672 120.846434,41.8686931 C120.846434,42.8320048 120.89385,43.6130017 120.988683,44.2079883 C121.083515,44.8054386 121.245216,45.2772396 121.473786,45.6233912 C121.70114,45.9707747 122.00509,46.2109866 122.385635,46.3464908 C122.76618,46.481995 123.222104,46.5485153 123.754624,46.5485153 M127.973444,22.4607969 C132.762473,22.4607969 135.194069,25.4850042 135.270665,31.5297231 C135.421424,31.5691425 135.630541,31.5876204 135.896801,31.5876204 C136.543605,31.5876204 137.256063,31.4927674 138.03539,31.299366 C138.814716,31.1071964 139.592827,30.8472747 140.37337,30.5183691 C141.151481,30.1919272 141.91257,29.8174428 142.652992,29.3924524 C143.394628,28.9699257 144.069396,28.5461671 144.677296,28.1224085 L145.190362,29.6819386 C144.087633,30.8756074 142.652992,31.8857296 140.885221,32.7147689 C139.118666,33.5425763 137.208647,34.1289399 135.15638,34.4750916 C134.92781,37.171625 134.415958,39.598382 133.617179,41.7541305 C132.819615,43.9111109 131.811719,45.7490405 130.594705,47.2703831 C129.378906,48.7917256 127.991681,49.9558298 126.434243,50.7651594 C124.87559,51.5732572 123.222104,51.9785379 121.473786,51.9785379 C120.142487,51.9785379 118.918178,51.8134692 117.795997,51.4870272 C116.675031,51.1605853 115.715766,50.6296552 114.918202,49.8991645 C114.119423,49.1674418 113.492071,48.2238399 113.036146,47.0683586 C112.580222,45.9128774 112.351652,44.5073294 112.351652,42.8517145 C112.351652,41.7356527 112.465937,40.4643769 112.694507,39.0391192 C112.921861,37.6150933 113.29268,36.1417931 113.805747,34.6204506 C114.318814,33.0991081 114.975345,31.615953 115.772908,30.1722175 C116.571688,28.7284819 117.54919,27.4288734 118.709061,26.2733922 C119.867717,25.117911 121.207526,24.1940188 122.72849,23.5004837 C124.248238,22.8081804 125.996556,22.4607969 127.973444,22.4607969" id="Fill-59" fill="#D26258"></path>
                <path d="M155.622398,32.2230118 C155.622398,31.5294767 155.565255,30.8470283 155.452186,30.1719711 C155.337901,29.4993775 155.147021,28.9019272 154.881977,28.3820839 C154.614501,27.8622405 154.292314,27.4483368 153.91177,27.1403727 C153.531225,26.8324086 153.094753,26.6784266 152.601139,26.6784266 C152.410259,26.6784266 152.153725,26.6969044 151.831539,26.7363238 C151.508136,26.7745114 151.184734,26.8324086 150.862548,26.9087837 C150.539145,26.9863907 150.225469,27.0910984 149.92152,27.2266026 C149.616354,27.3621068 149.389,27.5247119 149.238241,27.7168814 L146.101482,42.389522 C145.988412,42.8514681 145.930054,43.2949364 145.930054,43.7174631 C145.930054,45.4901043 146.936735,46.3745772 148.952529,46.3745772 C149.864377,46.3745772 150.72881,45.9224859 151.547042,45.0170715 C152.362843,44.112889 153.0753,42.9672626 153.684415,41.5814243 C154.292314,40.194354 154.767691,38.6631566 155.109331,36.9878321 C155.452186,35.3137393 155.622398,33.7246447 155.622398,32.2230118 L155.622398,32.2230118 Z M144.277784,12.3531695 L152.715424,11.1976883 L149.978662,24.1937724 C151.156771,23.4632816 152.088072,22.9914806 152.771351,22.7796013 C153.455845,22.5677221 154.083197,22.4605506 154.653406,22.4605506 C155.64185,22.4605506 156.553699,22.6342423 157.390168,22.9816258 C158.225422,23.3277774 158.937879,23.8956632 159.527542,24.6852831 C160.115988,25.474903 160.573128,26.5047348 160.89653,27.7747787 C161.218717,29.0460544 161.380418,30.6055845 161.380418,32.453369 C161.380418,33.5718945 161.275859,34.8320835 161.066742,36.2376316 C160.857625,37.6431796 160.506259,39.0684374 160.012645,40.512173 C159.517815,41.9559086 158.880737,43.3713115 158.102626,44.7571498 C157.323299,46.14422 156.354308,47.3674534 155.195652,48.4256179 C154.034565,49.4850144 152.676519,50.3423864 151.119081,50.9952702 C149.560428,51.6506178 147.773204,51.9782915 145.759842,51.9782915 C143.137366,51.9782915 141.150751,51.322944 139.802431,50.0134807 C138.452895,48.7052493 137.778127,46.8944205 137.778127,44.5846899 C137.778127,43.5068157 137.910649,42.4092317 138.176909,41.291938 L144.277784,12.3531695 Z" id="Fill-61" fill="#D26258"></path>
                <path d="M175.575106,22.7499136 L171.470571,42.3893988 C171.318596,43.0447464 171.242001,43.6606745 171.242001,44.2371833 C171.242001,45.0465129 171.431665,45.6045438 171.81221,45.9125079 C172.191539,46.2217038 172.781201,46.374454 173.579981,46.374454 C174.111285,46.374454 174.50034,46.3374983 174.748363,46.2598913 C174.99517,46.1835163 175.214014,46.1059093 175.404894,46.0283024 C175.327083,47.0679891 175.099729,47.9549256 174.7204,48.6854164 C174.339855,49.4171391 173.864478,50.0342991 173.295484,50.5332009 C172.724059,51.0345664 172.07847,51.4004277 171.356286,51.6307849 C170.634102,51.8623739 169.892465,51.9781684 169.132591,51.9781684 C167.423179,51.9781684 165.977594,51.4287604 164.800702,50.3311765 C163.621377,49.2348243 163.032931,47.472038 163.032931,45.0465129 C163.032931,44.0068261 163.184906,42.7552601 163.488855,41.2918148 L167.366036,22.7499136 L175.575106,22.7499136 Z" id="Fill-63" fill="#D26258"></path>
            </g>
        </g>
    </g>
</svg>