<?xml version="1.0" encoding="UTF-8"?>
<svg width="24px" height="24px" viewBox="0 0 24 24" version="1.1" xmlns="http://www.w3.org/2000/svg" xmlns:xlink="http://www.w3.org/1999/xlink">
    <!-- Generator: Sketch 41.2 (35397) - http://www.bohemiancoding.com/sketch -->
    <title>logo_b_avatar</title>
    <desc>Created with Sketch.</desc>
    <defs></defs>
    <g id="Logo-Assets" stroke="none" stroke-width="1" fill="none" fill-rule="evenodd">
        <g id="Logo-without-circle-background-Copy" transform="translate(-163.000000, -122.000000)"></g>
        <g id="logo_b_avatar">
            <g>
                <ellipse id="Oval-3" fill="#FFFFFF" cx="12" cy="12" rx="12" ry="12"></ellipse>
                <g id="Group-2" transform="translate(2.880000, 2.880000)">
                    <rect id="Rectangle" x="0" y="0" width="18.24" height="18.24"></rect>
                    <g id="Group">
                        <path d="M8.0425865,13.8202156 C8.03945551,15.4521722 9.35446671,16.4813684 10.9381141,16.0865207 L13.953719,15.334646 L13.7913491,14.683416 L10.7757442,15.4352908 C9.61607824,15.724428 8.7114592,15.016426 8.71375172,13.8215032 L8.73670983,1.85511507 L8.06554461,1.85382741 L8.0425865,13.8202156 Z" id="Line" fill="#4A4A4A"></path>
                        <path d="M11.7098866,14.7297583 C11.7098866,13.535359 12.6781348,12.5671108 13.8725341,12.5671108 C15.0669334,12.5671108 16.0351815,13.535359 16.0351815,14.7297583 C16.0351815,15.9241576 15.0669334,16.8924057 13.8725341,16.8924057 C12.6781348,16.8924057 11.7098866,15.9241576 11.7098866,14.7297583 Z" id="Shape" fill="#FBBA00"></path>
                        <path d="M6.23847975,2.40264747 C6.23847975,1.20824817 7.20672792,0.24 8.40112722,0.24 C9.59552653,0.24 10.5637747,1.20824817 10.5637747,2.40264747 C10.5637747,3.59704677 9.59552653,4.56529494 8.40112722,4.56529494 C7.20672792,4.56529494 6.23847975,3.59704677 6.23847975,2.40264747 Z" id="Shape" fill="#0093C6" transform="translate(8.401127, 2.402647) rotate(-90.000000) translate(-8.401127, -2.402647) "></path>
                        <path d="M13.895892,8.84383645 L13.895892,8.84383645 C12.7014927,8.84383645 11.7332446,7.87558829 11.7332446,6.68118898 L11.7332446,6.68118898 C11.7332446,5.48678968 12.7014927,4.51854151 13.895892,4.51854151 L13.895892,4.51854151 C15.0902913,4.51854151 16.0585395,5.48678968 16.0585395,6.68118898 L16.0585395,6.68118898 C16.0585395,7.87558829 15.0902913,8.84383645 13.895892,8.84383645 L13.895892,8.84383645 Z" id="Shape" fill="#4A4A4A"></path>
                        <polygon id="Line" fill="#4A4A4A" points="13.6152826 7.09700943 13.4529127 6.44577949 3.17795135 9.00761508 3.34032121 9.65884503"></polygon>
                        <path d="M2.89954689,11.5949269 L2.89954689,11.5949269 C1.70514758,11.5949269 0.736899417,10.6266787 0.736899417,9.4322794 L0.736899417,9.4322794 C0.736899417,8.23788009 1.70514758,7.26963193 2.89954689,7.26963193 L2.89954689,7.26963193 C4.09394619,7.26963193 5.06219436,8.23788009 5.06219436,9.4322794 L5.06219436,9.4322794 C5.06219436,10.6266787 4.09394619,11.5949269 2.89954689,11.5949269 L2.89954689,11.5949269 Z" id="Shape" fill="#F05053"></path>
                    </g>
                </g>
            </g>
        </g>
    </g>
</svg>